{
copyright = "Copyright (c) 2015, Cadson Demak (info@cadsondemak.com)";
customParameters = (
{
name = vendorID;
value = CDK;
},
{
name = description;
value = "Copyright (c) 2015, Cadson Demak (info@cadsondemak.com)";
},
{
name = license;

glyphs = (
{
glyphname = A;
lastChange = "2015-12-01 01:57:22 +0000";
layers = (
{
layerId = "A000C7A9-5E22-4BBF-9975-052AE6D21EBD";
name = Bold;
paths = (
{
closed = 1;
nodes = (
"258 0 LINE",
"303 122 LINE",
"511 122 LINE",
"556 0 LINE",
"799 0 LINE",
"519 699 LINE",
"295 699 LINE",
"15 0 LINE"
);
},
{
closed = 1;
nodes = (
"407 457 LINE",
"459 296 LINE",
"355 296 LINE"
);
}
);
width = 814;
}
);
leftKerningGroup = A;
note = A;
rightKerningGroup = A;
unicode = 0041;
},
{
glyphname = Aacute;
lastChange = "2015-12-01 01:57:22 +0000";
layers = (
{
layerId = "A000C7A9-5E22-4BBF-9975-052AE6D21EBD";
name = Bold;
paths = (
{
closed = 1;
nodes = (
"258 0 LINE",
"303 122 LINE",
"511 122 LINE",
"556 0 LINE",
"799 0 LINE",
"519 699 LINE",
"295 699 LINE",
"15 0 LINE"
);
},
{
closed = 1;
nodes = (
"407 457 LINE",
"459 296 LINE",
"355 296 LINE"
);
},
{
closed = 1;
nodes = (
"507 742 LINE",
"602 923 LINE",
"385 923 LINE",
"317 742 LINE"
);
}
);
width = 814;
}
);
leftKerningGroup = A;
note = Aacute;
rightKerningGroup = A;
unicode = 00C1;
},
{
glyphname = Abreve;
lastChange = "2015-12-01 01:57:21 +0000";
layers = (
{
layerId = "A000C7A9-5E22-4BBF-9975-052AE6D21EBD";
name = Bold;
paths = (
{
closed = 1;
nodes = (
"258 0 LINE",
"303 122 LINE",
"511 122 LINE",
"556 0 LINE",
"799 0 LINE",
"519 699 LINE",
"295 699 LINE",
"15 0 LINE"
);
},
{
closed = 1;
nodes = (
"407 457 LINE",
"459 296 LINE",
"355 296 LINE"
);
},
{
closed = 1;
nodes = (
"540 742 OFFCURVE",
"612 816 OFFCURVE",
"612 937 CURVE",
"445 937 LINE",
"445 898 OFFCURVE",
"432 879 OFFCURVE",
"407 879 CURVE SMOOTH",
"382 879 OFFCURVE",
"369 898 OFFCURVE",
"369 937 CURVE",
"202 937 LINE",
"202 816 OFFCURVE",
"274 742 OFFCURVE",
"407 742 CURVE SMOOTH"
);
}
);
width = 814;
}
);
leftKerningGroup = A;
note = Abreve;
rightKerningGroup = A;
unicode = 0102;
},
{
glyphname = Abreveacute;
lastChange = "2015-12-01 01:57:21 +0000";
layers = (
{
layerId = "A000C7A9-5E22-4BBF-9975-052AE6D21EBD";
name = Bold;
paths = (
{
closed = 1;
nodes = (
"258 0 LINE",
"303 122 LINE",
"511 122 LINE",
"556 0 LINE",
"799 0 LINE",
"519 699 LINE",
"295 699 LINE",
"15 0 LINE"
);
},
{
closed = 1;
nodes = (
"407 457 LINE",
"459 296 LINE",
"355 296 LINE"
);
},
{
closed = 1;
nodes = (
"518 742 OFFCURVE",
"598 804 OFFCURVE",
"598 904 CURVE",
"459 904 LINE",
"459 872 OFFCURVE",
"443 851 OFFCURVE",
"408 851 CURVE SMOOTH",
"373 851 OFFCURVE",
"357 872 OFFCURVE",
"357 904 CURVE",
"218 904 LINE",
"218 804 OFFCURVE",
"298 742 OFFCURVE",
"408 742 CURVE SMOOTH"
);
},
{
closed = 1;
nodes = (
"486 921 LINE",
"565 1063 LINE",
"379 1063 LINE",
"325 921 LINE"
);
}
);
width = 814;
}
);
leftKerningGroup = A;
note = Abreveacute;
rightKerningGroup = A;
unicode = 1EAE;
},
{
glyphname = Abrevedotbelow;
lastChange = "2015-12-01 01:57:21 +0000";
layers = (
{
layerId = "A000C7A9-5E22-4BBF-9975-052AE6D21EBD";
name = Bold;
paths = (
{
closed = 1;
nodes = (
"258 0 LINE",
"303 122 LINE",
"511 122 LINE",
"556 0 LINE",
"799 0 LINE",
"519 699 LINE",
"295 699 LINE",
"15 0 LINE"
);
},
{
closed = 1;
nodes = (
"457 -220 OFFCURVE",
"496 -182 OFFCURVE",
"496 -133 CURVE SMOOTH",
"496 -84 OFFCURVE",
"457 -45 OFFCURVE",
"409 -45 CURVE SMOOTH",
"362 -45 OFFCURVE",
"321 -84 OFFCURVE",
"321 -133 CURVE SMOOTH",
"321 -182 OFFCURVE",
"362 -220 OFFCURVE",
"409 -220 CURVE SMOOTH"
);
},
{
closed = 1;
nodes = (
"407 457 LINE",
"459 296 LINE",
"355 296 LINE"
);
},
{
closed = 1;
nodes = (
"541 742 OFFCURVE",
"613 816 OFFCURVE",
"613 937 CURVE",
"446 937 LINE",
"446 898 OFFCURVE",
"433 879 OFFCURVE",
"408 879 CURVE SMOOTH",
"383 879 OFFCURVE",
"370 898 OFFCURVE",
"370 937 CURVE",
"203 937 LINE",
"203 816 OFFCURVE",
"275 742 OFFCURVE",
"408 742 CURVE SMOOTH"
);
}
);
width = 814;
}
);
leftKerningGroup = A;
note = Abrevedotbelow;
rightKerningGroup = A;
unicode = 1EB6;
},
{
glyphname = Abrevegrave;
lastChange = "2015-12-01 01:57:22 +0000";
layers = (
{
layerId = "A000C7A9-5E22-4BBF-9975-052AE6D21EBD";
name = Bold;
paths = (
{
closed = 1;
nodes = (
"258 0 LINE",
"303 122 LINE",
"511 122 LINE",
"556 0 LINE",
"799 0 LINE",
"519 699 LINE",
"295 699 LINE",
"15 0 LINE"
);
},
{
closed = 1;
nodes = (
"407 457 LINE",
"459 296 LINE",
"355 296 LINE"
);
},
{
closed = 1;
nodes = (
"517 742 OFFCURVE",
"597 804 OFFCURVE",
"597 904 CURVE",
"458 904 LINE",
"458 872 OFFCURVE",
"442 851 OFFCURVE",
"407 851 CURVE SMOOTH",
"372 851 OFFCURVE",
"356 872 OFFCURVE",
"356 904 CURVE",
"217 904 LINE",
"217 804 OFFCURVE",
"297 742 OFFCURVE",
"407 742 CURVE SMOOTH"
);
},
{
closed = 1;
nodes = (
"490 921 LINE",
"436 1063 LINE",
"250 1063 LINE",
"329 921 LINE"
);
}
);
width = 814;
}
);
leftKerningGroup = A;
note = Abrevegrave;
rightKerningGroup = A;
unicode = 1EB0;
},
{
glyphname = Abrevehookabove;
lastChange = "2015-12-01 01:57:21 +0000";
layers = (
{
layerId = "A000C7A9-5E22-4BBF-9975-052AE6D21EBD";
name = Bold;
paths = (
{
closed = 1;
nodes = (
"258 0 LINE",
"303 122 LINE",
"511 122 LINE",
"556 0 LINE",
"799 0 LINE",
"519 699 LINE",
"295 699 LINE",
"15 0 LINE"
);
},
{
closed = 1;
nodes = (
"407 457 LINE",
"459 296 LINE",
"355 296 LINE"
);
},
{
closed = 1;
nodes = (
"518 742 OFFCURVE",
"598 804 OFFCURVE",
"598 904 CURVE",
"459 904 LINE",
"459 872 OFFCURVE",
"443 851 OFFCURVE",
"408 851 CURVE SMOOTH",
"373 851 OFFCURVE",
"357 872 OFFCURVE",
"357 904 CURVE",
"218 904 LINE",
"218 804 OFFCURVE",
"298 742 OFFCURVE",
"408 742 CURVE SMOOTH"
);
},
{
closed = 1;
nodes = (
"480 921 LINE",
"480 942 LINE",
"515 954 OFFCURVE",
"538 975 OFFCURVE",
"538 1008 CURVE SMOOTH",
"538 1054 OFFCURVE",
"499 1085 OFFCURVE",
"418 1085 CURVE SMOOTH",
"388 1085 OFFCURVE",
"343 1079 OFFCURVE",
"319 1072 CURVE",
"319 1003 LINE",
"327 1007 OFFCURVE",
"341 1009 OFFCURVE",
"351 1009 CURVE SMOOTH",
"377 1009 OFFCURVE",
"389 1001 OFFCURVE",
"389 989 CURVE SMOOTH",
"389 973 OFFCURVE",
"370 968 OFFCURVE",
"343 968 CURVE",
"343 921 LINE"
);
}
);
width = 814;
}
);
leftKerningGroup = A;
note = Abrevehookabove;
rightKerningGroup = A;
unicode = 1EB2;
},
{
glyphname = Abrevetilde;
lastChange = "2015-12-01 01:57:21 +0000";
layers = (
{
layerId = "A000C7A9-5E22-4BBF-9975-052AE6D21EBD";
name = Bold;
paths = (
{
closed = 1;
nodes = (
"258 0 LINE",
"303 122 LINE",
"511 122 LINE",
"556 0 LINE",
"799 0 LINE",
"519 699 LINE",
"295 699 LINE",
"15 0 LINE"
);
},
{
closed = 1;
nodes = (
"407 457 LINE",
"459 296 LINE",
"355 296 LINE"
);
},
{
closed = 1;
nodes = (
"517 742 OFFCURVE",
"597 804 OFFCURVE",
"597 904 CURVE",
"458 904 LINE",
"458 872 OFFCURVE",
"442 851 OFFCURVE",
"407 851 CURVE SMOOTH",
"372 851 OFFCURVE",
"356 872 OFFCURVE",
"356 904 CURVE",
"217 904 LINE",
"217 804 OFFCURVE",
"297 742 OFFCURVE",
"407 742 CURVE SMOOTH"
);
},
{
closed = 1;
nodes = (
"526 919 OFFCURVE",
"556 928 OFFCURVE",
"577 951 CURVE",
"577 1064 LINE",
"552 1037 OFFCURVE",
"522 1025 OFFCURVE",
"489 1025 CURVE SMOOTH",
"436 1025 OFFCURVE",
"379 1065 OFFCURVE",
"324 1065 CURVE SMOOTH",
"287 1065 OFFCURVE",
"257 1056 OFFCURVE",
"236 1033 CURVE",
"236 920 LINE",
"261 947 OFFCURVE",
"291 959 OFFCURVE",
"324 959 CURVE SMOOTH",
"376 959 OFFCURVE",
"430 919 OFFCURVE",
"489 919 CURVE SMOOTH"
);
}
);
width = 814;
}
);
leftKerningGroup = A;
note = Abrevetilde;
rightKerningGroup = A;
unicode = 1EB4;
},
{
glyphname = Acaron;
lastChange = "2015-12-01 01:57:21 +0000";
layers = (
{
layerId = "A000C7A9-5E22-4BBF-9975-052AE6D21EBD";
name = Bold;
paths = (
{
closed = 1;
nodes = (
"258 0 LINE",
"303 122 LINE",
"511 122 LINE",
"556 0 LINE",
"799 0 LINE",
"519 699 LINE",
"295 699 LINE",
"15 0 LINE"
);
},
{
closed = 1;
nodes = (
"407 457 LINE",
"459 296 LINE",
"355 296 LINE"
);
},
{
closed = 1;
nodes = (
"508 742 LINE",
"673 933 LINE",
"466 933 LINE",
"407 853 LINE",
"348 933 LINE",
"141 933 LINE",
"306 742 LINE"
);
}
);
width = 814;
}
);
leftKerningGroup = A;
note = Acaron;
rightKerningGroup = A;
unicode = 01CD;
},
{
glyphname = Acircumflex;
lastChange = "2015-12-01 01:57:22 +0000";
layers = (
{
layerId = "A000C7A9-5E22-4BBF-9975-052AE6D21EBD";
name = Bold;
paths = (
{
closed = 1;
nodes = (
"258 0 LINE",
"303 122 LINE",
"511 122 LINE",
"556 0 LINE",
"799 0 LINE",
"519 699 LINE",
"295 699 LINE",
"15 0 LINE"
);
},
{
closed = 1;
nodes = (
"407 457 LINE",
"459 296 LINE",
"355 296 LINE"
);
},
{
closed = 1;
nodes = (
"348 742 LINE",
"407 822 LINE",
"466 742 LINE",
"673 742 LINE",
"508 933 LINE",
"306 933 LINE",
"141 742 LINE"
);
}
);
width = 814;
}
);
leftKerningGroup = A;
note = Acircumflex;
rightKerningGroup = A;
unicode = 00C2;
},
{
glyphname = Acircumflexacute;
lastChange = "2015-12-01 01:57:21 +0000";
layers = (
{
layerId = "A000C7A9-5E22-4BBF-9975-052AE6D21EBD";
name = Bold;
paths = (
{
closed = 1;
nodes = (
"258 0 LINE",
"303 122 LINE",
"511 122 LINE",
"556 0 LINE",
"799 0 LINE",
"519 699 LINE",
"295 699 LINE",
"15 0 LINE"
);
},
{
closed = 1;
nodes = (
"407 457 LINE",
"459 296 LINE",
"355 296 LINE"
);
},
{
closed = 1;
nodes = (
"352 742 LINE",
"396 792 LINE",
"440 742 LINE",
"632 742 LINE",
"467 903 LINE",
"325 903 LINE",
"160 742 LINE"
);
},
{
closed = 1;
nodes = (
"717 875 LINE",
"801 1024 LINE",
"594 1024 LINE",
"537 875 LINE"
);
}
);
width = 814;
}
);
leftKerningGroup = A;
note = Acircumflexacute;
rightKerningGroup = A;
unicode = 1EA4;
},
{
glyphname = Acircumflexdotbelow;
lastChange = "2015-12-01 01:57:22 +0000";
layers = (
{
layerId = "A000C7A9-5E22-4BBF-9975-052AE6D21EBD";
name = Bold;
paths = (
{
closed = 1;
nodes = (
"258 0 LINE",
"303 122 LINE",
"511 122 LINE",
"556 0 LINE",
"799 0 LINE",
"519 699 LINE",
"295 699 LINE",
"15 0 LINE"
);
},
{
closed = 1;
nodes = (
"457 -220 OFFCURVE",
"496 -182 OFFCURVE",
"496 -133 CURVE SMOOTH",
"496 -84 OFFCURVE",
"457 -45 OFFCURVE",
"409 -45 CURVE SMOOTH",
"362 -45 OFFCURVE",
"321 -84 OFFCURVE",
"321 -133 CURVE SMOOTH",
"321 -182 OFFCURVE",
"362 -220 OFFCURVE",
"409 -220 CURVE SMOOTH"
);
},
{
closed = 1;
nodes = (
"407 457 LINE",
"459 296 LINE",
"355 296 LINE"
);
},
{
closed = 1;
nodes = (
"348 742 LINE",
"407 822 LINE",
"466 742 LINE",
"673 742 LINE",
"508 933 LINE",
"306 933 LINE",
"141 742 LINE"
);
}
);
width = 814;
}
);
leftKerningGroup = A;
note = Acircumflexdotbelow;
rightKerningGroup = A;
unicode = 1EAC;
},
{
glyphname = Acircumflexgrave;
lastChange = "2015-12-01 01:57:21 +0000";
layers = (
{
layerId = "A000C7A9-5E22-4BBF-9975-052AE6D21EBD";
name = Bold;
paths = (
{
closed = 1;
nodes = (
"258 0 LINE",
"303 122 LINE",
"511 122 LINE",
"556 0 LINE",
"799 0 LINE",
"519 699 LINE",
"295 699 LINE",
"15 0 LINE"
);
},
{
closed = 1;
nodes = (
"407 457 LINE",
"459 296 LINE",
"355 296 LINE"
);
},
{
closed = 1;
nodes = (
"272 875 LINE",
"215 1024 LINE",
"8 1024 LINE",
"92 875 LINE"
);
},
{
closed = 1;
nodes = (
"369 742 LINE",
"413 792 LINE",
"457 742 LINE",
"649 742 LINE",
"484 903 LINE",
"342 903 LINE",
"177 742 LINE"
);
}
);
width = 814;
}
);
leftKerningGroup = A;
note = Acircumflexgrave;
rightKerningGroup = A;
unicode = 1EA6;
},
{
glyphname = Acircumflexhookabove;
lastChange = "2015-12-01 01:57:22 +0000";
layers = (
{
layerId = "A000C7A9-5E22-4BBF-9975-052AE6D21EBD";
name = Bold;
paths = (
{
closed = 1;
nodes = (
"258 0 LINE",
"303 122 LINE",
"511 122 LINE",
"556 0 LINE",
"799 0 LINE",
"519 699 LINE",
"295 699 LINE",
"15 0 LINE"
);
},
{
closed = 1;
nodes = (
"407 457 LINE",
"459 296 LINE",
"355 296 LINE"
);
},
{
closed = 1;
nodes = (
"360 742 LINE",
"404 792 LINE",
"448 742 LINE",
"640 742 LINE",
"475 903 LINE",
"333 903 LINE",
"168 742 LINE"
);
},
{
closed = 1;
nodes = (
"669 863 LINE",
"669 889 LINE",
"704 901 OFFCURVE",
"727 922 OFFCURVE",
"727 955 CURVE SMOOTH",
"727 1001 OFFCURVE",
"688 1032 OFFCURVE",
"607 1032 CURVE SMOOTH",
"577 1032 OFFCURVE",
"532 1026 OFFCURVE",
"508 1019 CURVE",
"508 950 LINE",
"516 954 OFFCURVE",
"530 956 OFFCURVE",
"540 956 CURVE SMOOTH",
"566 956 OFFCURVE",
"578 948 OFFCURVE",
"578 936 CURVE SMOOTH",
"578 920 OFFCURVE",
"559 915 OFFCURVE",
"532 915 CURVE",
"532 863 LINE"
);
}
);
width = 814;
}
);
leftKerningGroup = A;
note = Acircumflexhookabove;
rightKerningGroup = A;
unicode = 1EA8;
},
{
glyphname = Acircumflextilde;
lastChange = "2015-12-01 01:57:22 +0000";
layers = (
{
layerId = "A000C7A9-5E22-4BBF-9975-052AE6D21EBD";
name = Bold;
paths = (
{
closed = 1;
nodes = (
"258 0 LINE",
"303 122 LINE",
"511 122 LINE",
"556 0 LINE",
"799 0 LINE",
"519 699 LINE",
"295 699 LINE",
"15 0 LINE"
);
},
{
closed = 1;
nodes = (
"407 457 LINE",
"459 296 LINE",
"355 296 LINE"
);
},
{
closed = 1;
nodes = (
"364 742 LINE",
"408 792 LINE",
"452 742 LINE",
"644 742 LINE",
"479 903 LINE",
"337 903 LINE",
"172 742 LINE"
);
},
{
closed = 1;
nodes = (
"539 914 OFFCURVE",
"569 923 OFFCURVE",
"590 946 CURVE",
"590 1059 LINE",
"565 1032 OFFCURVE",
"535 1020 OFFCURVE",
"502 1020 CURVE SMOOTH",
"449 1020 OFFCURVE",
"392 1060 OFFCURVE",
"337 1060 CURVE SMOOTH",
"300 1060 OFFCURVE",
"270 1051 OFFCURVE",
"249 1028 CURVE",
"249 915 LINE",
"274 942 OFFCURVE",
"304 954 OFFCURVE",
"337 954 CURVE SMOOTH",
"389 954 OFFCURVE",
"443 914 OFFCURVE",
"502 914 CURVE SMOOTH"
);
}
);
width = 814;
}
);
leftKerningGroup = A;
note = Acircumflextilde;
rightKerningGroup = A;
unicode = 1EAA;
},
{
glyphname = Adieresis;
lastChange = "2015-12-01 01:57:21 +0000";
layers = (
{
layerId = "A000C7A9-5E22-4BBF-9975-052AE6D21EBD";
name = Bold;
paths = (
{
closed = 1;
nodes = (
"258 0 LINE",
"303 122 LINE",
"511 122 LINE",
"556 0 LINE",
"799 0 LINE",
"519 699 LINE",
"295 699 LINE",
"15 0 LINE"
);
},
{
closed = 1;
nodes = (
"407 457 LINE",
"459 296 LINE",
"355 296 LINE"
);
},
{
closed = 1;
nodes = (
"339 742 OFFCURVE",
"378 780 OFFCURVE",
"378 829 CURVE SMOOTH",
"378 878 OFFCURVE",
"339 917 OFFCURVE",
"291 917 CURVE SMOOTH",
"244 917 OFFCURVE",
"203 878 OFFCURVE",
"203 829 CURVE SMOOTH",
"203 780 OFFCURVE",
"244 742 OFFCURVE",
"291 742 CURVE SMOOTH"
);
},
{
closed = 1;
nodes = (
"573 742 OFFCURVE",
"612 780 OFFCURVE",
"612 829 CURVE SMOOTH",
"612 878 OFFCURVE",
"573 917 OFFCURVE",
"526 917 CURVE SMOOTH",
"478 917 OFFCURVE",
"438 878 OFFCURVE",
"438 829 CURVE SMOOTH",
"438 780 OFFCURVE",
"478 742 OFFCURVE",
"526 742 CURVE SMOOTH"
);
}
);
width = 814;
}
);
leftKerningGroup = A;
note = Adieresis;
rightKerningGroup = A;
unicode = 00C4;
},
{
glyphname = Adotbelow;
lastChange = "2015-12-01 01:57:21 +0000";
layers = (
{
layerId = "A000C7A9-5E22-4BBF-9975-052AE6D21EBD";
name = Bold;
paths = (
{
closed = 1;
nodes = (
"258 0 LINE",
"303 122 LINE",
"511 122 LINE",
"556 0 LINE",
"799 0 LINE",
"519 699 LINE",
"295 699 LINE",
"15 0 LINE"
);
},
{
closed = 1;
nodes = (
"456 -220 OFFCURVE",
"495 -182 OFFCURVE",
"495 -133 CURVE SMOOTH",
"495 -84 OFFCURVE",
"456 -45 OFFCURVE",
"408 -45 CURVE SMOOTH",
"361 -45 OFFCURVE",
"320 -84 OFFCURVE",
"320 -133 CURVE SMOOTH",
"320 -182 OFFCURVE",
"361 -220 OFFCURVE",
"408 -220 CURVE SMOOTH"
);
},
{
closed = 1;
nodes = (
"407 457 LINE",
"459 296 LINE",
"355 296 LINE"
);
}
);
width = 814;
}
);
leftKerningGroup = A;
note = Adotbelow;
rightKerningGroup = A;
unicode = 1EA0;
},
{
glyphname = Agrave;
lastChange = "2015-12-01 01:57:21 +0000";
layers = (
{
layerId = "A000C7A9-5E22-4BBF-9975-052AE6D21EBD";
name = Bold;
paths = (
{
closed = 1;
nodes = (
"258 0 LINE",
"303 122 LINE",
"511 122 LINE",
"556 0 LINE",
"799 0 LINE",
"519 699 LINE",
"295 699 LINE",
"15 0 LINE"
);
},
{
closed = 1;
nodes = (
"407 457 LINE",
"459 296 LINE",
"355 296 LINE"
);
},
{
closed = 1;
nodes = (
"500 742 LINE",
"432 923 LINE",
"215 923 LINE",
"310 742 LINE"
);
}
);
width = 814;
}
);
leftKerningGroup = A;
note = Agrave;
rightKerningGroup = A;
unicode = 00C0;
},
{
glyphname = Ahookabove;
lastChange = "2015-12-01 01:57:21 +0000";
layers = (
{
layerId = "A000C7A9-5E22-4BBF-9975-052AE6D21EBD";
name = Bold;
paths = (
{
closed = 1;
nodes = (
"258 0 LINE",
"303 122 LINE",
"511 122 LINE",
"556 0 LINE",
"799 0 LINE",
"519 699 LINE",
"295 699 LINE",
"15 0 LINE"
);
},
{
closed = 1;
nodes = (
"407 457 LINE",
"459 296 LINE",
"355 296 LINE"
);
},
{
closed = 1;
nodes = (
"501 742 LINE",
"501 782 LINE",
"554 798 OFFCURVE",
"592 825 OFFCURVE",
"592 877 CURVE SMOOTH",
"592 940 OFFCURVE",
"534 981 OFFCURVE",
"415 981 CURVE SMOOTH",
"371 981 OFFCURVE",
"308 972 OFFCURVE",
"274 962 CURVE",
"274 877 LINE",
"287 881 OFFCURVE",
"311 886 OFFCURVE",
"331 886 CURVE SMOOTH",
"372 886 OFFCURVE",
"390 876 OFFCURVE",
"390 854 CURVE SMOOTH",
"390 827 OFFCURVE",
"370 816 OFFCURVE",
"314 816 CURVE",
"314 742 LINE"
);
}
);
width = 814;
}
);
leftKerningGroup = A;
note = Ahookabove;
rightKerningGroup = A;
unicode = 1EA2;
},
{
glyphname = Amacron;
lastChange = "2015-12-01 01:57:21 +0000";
layers = (
{
layerId = "A000C7A9-5E22-4BBF-9975-052AE6D21EBD";
name = Bold;
paths = (
{
closed = 1;
nodes = (
"258 0 LINE",
"303 122 LINE",
"511 122 LINE",
"556 0 LINE",
"799 0 LINE",
"519 699 LINE",
"295 699 LINE",
"15 0 LINE"
);
},
{
closed = 1;
nodes = (
"407 457 LINE",
"459 296 LINE",
"355 296 LINE"
);
},
{
closed = 1;
nodes = (
"591 742 LINE",
"591 885 LINE",
"224 885 LINE",
"224 742 LINE"
);
}
);
width = 814;
}
);
leftKerningGroup = A;
note = Amacron;
rightKerningGroup = A;
unicode = 0100;
},
{
glyphname = Aogonek;
lastChange = "2015-12-01 01:57:21 +0000";
layers = (
{
layerId = "A000C7A9-5E22-4BBF-9975-052AE6D21EBD";
name = Bold;
paths = (
{
closed = 1;
nodes = (
"258 0 LINE",
"303 122 LINE",
"511 122 LINE",
"556 0 LINE",
"799 0 LINE",
"519 699 LINE",
"295 699 LINE",
"15 0 LINE"
);
},
{
closed = 1;
nodes = (
"676 -219 OFFCURVE",
"727 -212 OFFCURVE",
"758 -202 CURVE",
"758 -82 LINE",
"742 -90 OFFCURVE",
"725 -95 OFFCURVE",
"709 -95 CURVE SMOOTH",
"692 -95 OFFCURVE",
"683 -86 OFFCURVE",
"683 -72 CURVE SMOOTH",
"683 -45 OFFCURVE",
"705 -26 OFFCURVE",
"762 0 CURVE",
"557 0 LINE",
"515 -24 OFFCURVE",
"488 -63 OFFCURVE",
"488 -116 CURVE SMOOTH",
"488 -189 OFFCURVE",
"548 -219 OFFCURVE",
"630 -219 CURVE SMOOTH"
);
},
{
closed = 1;
nodes = (
"407 457 LINE",
"459 296 LINE",
"355 296 LINE"
);
}
);
width = 814;
}
);
leftKerningGroup = A;
note = Aogonek;
rightKerningGroup = A;
unicode = 0104;
},
{
glyphname = Aring;
lastChange = "2015-12-01 01:57:22 +0000";
layers = (
{
layerId = "A000C7A9-5E22-4BBF-9975-052AE6D21EBD";
name = Bold;
paths = (
{
closed = 1;
nodes = (
"258 0 LINE",
"303 122 LINE",
"511 122 LINE",
"556 0 LINE",
"799 0 LINE",
"519 699 LINE",
"295 699 LINE",
"15 0 LINE"
);
},
{
closed = 1;
nodes = (
"407 457 LINE",
"459 296 LINE",
"355 296 LINE"
);
},
{
closed = 1;
nodes = (
"494 618 OFFCURVE",
"565 685 OFFCURVE",
"565 772 CURVE SMOOTH",
"565 859 OFFCURVE",
"494 926 OFFCURVE",
"407 926 CURVE SMOOTH",
"320 926 OFFCURVE",
"249 859 OFFCURVE",
"249 772 CURVE SMOOTH",
"249 685 OFFCURVE",
"320 618 OFFCURVE",
"407 618 CURVE SMOOTH"
);
},
{
closed = 1;
nodes = (
"384 731 OFFCURVE",
"366 749 OFFCURVE",
"366 772 CURVE SMOOTH",
"366 795 OFFCURVE",
"384 813 OFFCURVE",
"407 813 CURVE SMOOTH",
"430 813 OFFCURVE",
"448 795 OFFCURVE",
"448 772 CURVE SMOOTH",
"448 749 OFFCURVE",
"430 731 OFFCURVE",
"407 731 CURVE SMOOTH"
);
}
);
width = 814;
}
);
leftKerningGroup = A;
note = Aring;
rightKerningGroup = A;
unicode = 00C5;
},
{
glyphname = Aringacute;
lastChange = "2015-12-01 01:57:21 +0000";
layers = (
{
layerId = "A000C7A9-5E22-4BBF-9975-052AE6D21EBD";
name = Bold;
paths = (
{
closed = 1;
nodes = (
"258 0 LINE",
"303 122 LINE",
"511 122 LINE",
"556 0 LINE",
"799 0 LINE",
"519 699 LINE",
"295 699 LINE",
"15 0 LINE"
);
},
{
closed = 1;
nodes = (
"407 457 LINE",
"459 296 LINE",
"355 296 LINE"
);
},
{
closed = 1;
nodes = (
"494 618 OFFCURVE",
"565 685 OFFCURVE",
"565 772 CURVE SMOOTH",
"565 859 OFFCURVE",
"494 926 OFFCURVE",
"407 926 CURVE SMOOTH",
"320 926 OFFCURVE",
"249 859 OFFCURVE",
"249 772 CURVE SMOOTH",
"249 685 OFFCURVE",
"320 618 OFFCURVE",
"407 618 CURVE SMOOTH"
);
},
{
closed = 1;
nodes = (
"384 731 OFFCURVE",
"366 749 OFFCURVE",
"366 772 CURVE SMOOTH",
"366 795 OFFCURVE",
"384 813 OFFCURVE",
"407 813 CURVE SMOOTH",
"430 813 OFFCURVE",
"448 795 OFFCURVE",
"448 772 CURVE SMOOTH",
"448 749 OFFCURVE",
"430 731 OFFCURVE",
"407 731 CURVE SMOOTH"
);
},
{
closed = 1;
nodes = (
"484 946 LINE",
"579 1091 LINE",
"362 1091 LINE",
"294 946 LINE"
);
}
);
width = 814;
}
);
leftKerningGroup = A;
note = Aringacute;
rightKerningGroup = A;
unicode = 01FA;
},
{
glyphname = Atilde;
lastChange = "2015-12-01 01:57:21 +0000";
layers = (
{
layerId = "A000C7A9-5E22-4BBF-9975-052AE6D21EBD";
name = Bold;
paths = (
{
closed = 1;
nodes = (
"258 0 LINE",
"303 122 LINE",
"511 122 LINE",
"556 0 LINE",
"799 0 LINE",
"519 699 LINE",
"295 699 LINE",
"15 0 LINE"
);
},
{
closed = 1;
nodes = (
"407 457 LINE",
"459 296 LINE",
"355 296 LINE"
);
},
{
closed = 1;
nodes = (
"555 742 OFFCURVE",
"593 753 OFFCURVE",
"619 782 CURVE",
"619 935 LINE",
"588 901 OFFCURVE",
"551 886 OFFCURVE",
"509 886 CURVE SMOOTH",
"444 886 OFFCURVE",
"373 936 OFFCURVE",
"305 936 CURVE SMOOTH",
"259 936 OFFCURVE",
"221 925 OFFCURVE",
"195 896 CURVE",
"195 743 LINE",
"226 777 OFFCURVE",
"263 792 OFFCURVE",
"305 792 CURVE SMOOTH",
"369 792 OFFCURVE",
"436 742 OFFCURVE",
"509 742 CURVE SMOOTH"
);
}
);
width = 814;
}
);
leftKerningGroup = A;
note = Atilde;
rightKerningGroup = A;
unicode = 00C3;
},
{
glyphname = AE;
lastChange = "2015-12-01 01:57:21 +0000";
layers = (
{
layerId = "A000C7A9-5E22-4BBF-9975-052AE6D21EBD";
name = Bold;
paths = (
{
closed = 1;
nodes = (
"258 0 LINE",
"300 122 LINE",
"412 122 LINE",
"412 0 LINE",
"905 0 LINE",
"905 199 LINE",
"634 199 LINE",
"634 260 LINE",
"823 260 LINE",
"823 439 LINE",
"634 439 LINE",
"634 500 LINE",
"905 500 LINE",
"905 699 LINE",
"295 699 LINE",
"15 0 LINE"
);
},
{
closed = 1;
nodes = (
"412 500 LINE",
"412 300 LINE",
"356 300 LINE"
);
}
);
width = 920;
}
);
leftKerningGroup = A;
note = AE;
rightKerningGroup = E;
unicode = 00C6;
},
{
glyphname = AEacute;
lastChange = "2015-12-01 01:57:21 +0000";
layers = (
{
layerId = "A000C7A9-5E22-4BBF-9975-052AE6D21EBD";
name = Bold;
paths = (
{
closed = 1;
nodes = (
"258 0 LINE",
"300 122 LINE",
"412 122 LINE",
"412 0 LINE",
"905 0 LINE",
"905 199 LINE",
"634 199 LINE",
"634 260 LINE",
"823 260 LINE",
"823 439 LINE",
"634 439 LINE",
"634 500 LINE",
"905 500 LINE",
"905 699 LINE",
"295 699 LINE",
"15 0 LINE"
);
},
{
closed = 1;
nodes = (
"412 500 LINE",
"412 300 LINE",
"356 300 LINE"
);
},
{
closed = 1;
nodes = (
"632 742 LINE",
"727 923 LINE",
"510 923 LINE",
"442 742 LINE"
);
}
);
width = 920;
}
);
leftKerningGroup = A;
note = AEacute;
rightKerningGroup = E;
unicode = 01FC;
},
{
glyphname = B;
lastChange = "2015-12-01 01:57:22 +0000";
layers = (
{
layerId = "A000C7A9-5E22-4BBF-9975-052AE6D21EBD";
name = Bold;
paths = (
{
closed = 1;
nodes = (
"427 0 LINE SMOOTH",
"557 0 OFFCURVE",
"665 81 OFFCURVE",
"665 218 CURVE SMOOTH",
"665 292 OFFCURVE",
"640 336 OFFCURVE",
"576 367 CURVE",
"622 399 OFFCURVE",
"644 451 OFFCURVE",
"644 502 CURVE SMOOTH",
"644 631 OFFCURVE",
"547 699 OFFCURVE",
"411 699 CURVE SMOOTH",
"35 699 LINE",
"35 0 LINE"
);
},
{
closed = 1;
nodes = (
"265 279 LINE",
"356 279 LINE SMOOTH",
"405 279 OFFCURVE",
"424 259 OFFCURVE",
"424 219 CURVE SMOOTH",
"424 178 OFFCURVE",
"405 160 OFFCURVE",
"356 160 CURVE SMOOTH",
"265 160 LINE"
);
},
{
closed = 1;
nodes = (
"265 539 LINE",
"343 539 LINE SMOOTH",
"383 539 OFFCURVE",
"403 525 OFFCURVE",
"403 488 CURVE SMOOTH",
"403 449 OFFCURVE",
"383 434 OFFCURVE",
"343 434 CURVE SMOOTH",
"265 434 LINE"
);
}
);
width = 680;
}
);
note = B;
unicode = 0042;
},
{
glyphname = C;
lastChange = "2015-12-01 01:57:18 +0000";
layers = (
{
layerId = "A000C7A9-5E22-4BBF-9975-052AE6D21EBD";
name = Bold;
paths = (
{
closed = 1;
nodes = (
"503 -15 OFFCURVE",
"587 4 OFFCURVE",
"655 43 CURVE",
"655 266 LINE",
"589 223 OFFCURVE",
"517 203 OFFCURVE",
"423 203 CURVE SMOOTH",
"324 203 OFFCURVE",
"256 251 OFFCURVE",
"256 349 CURVE SMOOTH",
"256 446 OFFCURVE",
"322 495 OFFCURVE",
"423 495 CURVE SMOOTH",
"517 495 OFFCURVE",
"588 478 OFFCURVE",
"647 435 CURVE",
"647 659 LINE",
"579 698 OFFCURVE",
"503 714 OFFCURVE",
"402 714 CURVE SMOOTH",
"164 714 OFFCURVE",
"15 577 OFFCURVE",
"15 349 CURVE SMOOTH",
"15 122 OFFCURVE",
"164 -15 OFFCURVE",
"402 -15 CURVE SMOOTH"
);
}
);
width = 670;
}
);
leftKerningGroup = C;
note = C;
rightKerningGroup = C;
unicode = 0043;
},
{
glyphname = Cacute;
lastChange = "2015-12-01 01:57:22 +0000";
layers = (
{
layerId = "A000C7A9-5E22-4BBF-9975-052AE6D21EBD";
name = Bold;
paths = (
{
closed = 1;
nodes = (
"503 -15 OFFCURVE",
"587 4 OFFCURVE",
"655 43 CURVE",
"655 266 LINE",
"589 223 OFFCURVE",
"517 203 OFFCURVE",
"423 203 CURVE SMOOTH",
"324 203 OFFCURVE",
"256 251 OFFCURVE",
"256 349 CURVE SMOOTH",
"256 446 OFFCURVE",
"322 495 OFFCURVE",
"423 495 CURVE SMOOTH",
"517 495 OFFCURVE",
"588 478 OFFCURVE",
"647 435 CURVE",
"647 659 LINE",
"579 698 OFFCURVE",
"503 714 OFFCURVE",
"402 714 CURVE SMOOTH",
"164 714 OFFCURVE",
"15 577 OFFCURVE",
"15 349 CURVE SMOOTH",
"15 122 OFFCURVE",
"164 -15 OFFCURVE",
"402 -15 CURVE SMOOTH"
);
},
{
closed = 1;
nodes = (
"494 742 LINE",
"589 923 LINE",
"372 923 LINE",
"304 742 LINE"
);
}
);
width = 670;
}
);
leftKerningGroup = C;
note = Cacute;
rightKerningGroup = C;
unicode = 0106;
},
{
glyphname = Ccaron;
lastChange = "2015-12-01 01:57:22 +0000";
layers = (
{
layerId = "A000C7A9-5E22-4BBF-9975-052AE6D21EBD";
name = Bold;
paths = (
{
closed = 1;
nodes = (
"503 -15 OFFCURVE",
"587 4 OFFCURVE",
"655 43 CURVE",
"655 266 LINE",
"589 223 OFFCURVE",
"517 203 OFFCURVE",
"423 203 CURVE SMOOTH",
"324 203 OFFCURVE",
"256 251 OFFCURVE",
"256 349 CURVE SMOOTH",
"256 446 OFFCURVE",
"322 495 OFFCURVE",
"423 495 CURVE SMOOTH",
"517 495 OFFCURVE",
"588 478 OFFCURVE",
"647 435 CURVE",
"647 659 LINE",
"579 698 OFFCURVE",
"503 714 OFFCURVE",
"402 714 CURVE SMOOTH",
"164 714 OFFCURVE",
"15 577 OFFCURVE",
"15 349 CURVE SMOOTH",
"15 122 OFFCURVE",
"164 -15 OFFCURVE",
"402 -15 CURVE SMOOTH"
);
},
{
closed = 1;
nodes = (
"503 742 LINE",
"668 933 LINE",
"461 933 LINE",
"402 853 LINE",
"343 933 LINE",
"136 933 LINE",
"301 742 LINE"
);
}
);
width = 670;
}
);
leftKerningGroup = C;
note = Ccaron;
rightKerningGroup = C;
unicode = 010C;
},
{
glyphname = Ccedilla;
lastChange = "2015-12-01 01:57:21 +0000";
layers = (
{
layerId = "A000C7A9-5E22-4BBF-9975-052AE6D21EBD";
name = Bold;
paths = (
{
closed = 1;
nodes = (
"503 -15 OFFCURVE",
"587 4 OFFCURVE",
"655 43 CURVE",
"655 266 LINE",
"589 223 OFFCURVE",
"517 203 OFFCURVE",
"423 203 CURVE SMOOTH",
"324 203 OFFCURVE",
"256 251 OFFCURVE",
"256 349 CURVE SMOOTH",
"256 446 OFFCURVE",
"322 495 OFFCURVE",
"423 495 CURVE SMOOTH",
"517 495 OFFCURVE",
"588 478 OFFCURVE",
"647 435 CURVE",
"647 659 LINE",
"579 698 OFFCURVE",
"503 714 OFFCURVE",
"402 714 CURVE SMOOTH",
"164 714 OFFCURVE",
"15 577 OFFCURVE",
"15 349 CURVE SMOOTH",
"15 122 OFFCURVE",
"164 -15 OFFCURVE",
"402 -15 CURVE SMOOTH"
);
},
{
closed = 1;
nodes = (
"510 -248 OFFCURVE",
"554 -195 OFFCURVE",
"554 -137 CURVE SMOOTH",
"554 -88 OFFCURVE",
"518 -57 OFFCURVE",
"460 -49 CURVE",
"480 0 LINE",
"321 0 LINE",
"298 -76 LINE",
"365 -76 OFFCURVE",
"384 -97 OFFCURVE",
"384 -126 CURVE SMOOTH",
"384 -147 OFFCURVE",
"370 -165 OFFCURVE",
"332 -165 CURVE SMOOTH",
"309 -165 OFFCURVE",
"287 -158 OFFCURVE",
"271 -149 CURVE",
"269 -232 LINE",
"293 -241 OFFCURVE",
"333 -248 OFFCURVE",
"387 -248 CURVE SMOOTH"
);
}
);
width = 670;
}
);
leftKerningGroup = C;
note = Ccedilla;
rightKerningGroup = C;
unicode = 00C7;
},
{
glyphname = Ccircumflex;
lastChange = "2015-12-01 01:57:22 +0000";
layers = (
{
layerId = "A000C7A9-5E22-4BBF-9975-052AE6D21EBD";
name = Bold;
paths = (
{
closed = 1;
nodes = (
"503 -15 OFFCURVE",
"587 4 OFFCURVE",
"655 43 CURVE",
"655 266 LINE",
"589 223 OFFCURVE",
"517 203 OFFCURVE",
"423 203 CURVE SMOOTH",
"324 203 OFFCURVE",
"256 251 OFFCURVE",
"256 349 CURVE SMOOTH",
"256 446 OFFCURVE",
"322 495 OFFCURVE",
"423 495 CURVE SMOOTH",
"517 495 OFFCURVE",
"588 478 OFFCURVE",
"647 435 CURVE",
"647 659 LINE",
"579 698 OFFCURVE",
"503 714 OFFCURVE",
"402 714 CURVE SMOOTH",
"164 714 OFFCURVE",
"15 577 OFFCURVE",
"15 349 CURVE SMOOTH",
"15 122 OFFCURVE",
"164 -15 OFFCURVE",
"402 -15 CURVE SMOOTH"
);
},
{
closed = 1;
nodes = (
"320 742 LINE",
"379 822 LINE",
"438 742 LINE",
"645 742 LINE",
"480 933 LINE",
"278 933 LINE",
"113 742 LINE"
);
}
);
width = 670;
}
);
leftKerningGroup = C;
note = Ccircumflex;
rightKerningGroup = C;
unicode = 0108;
},
{
glyphname = Cdotaccent;
lastChange = "2015-12-01 01:57:22 +0000";
layers = (
{
layerId = "A000C7A9-5E22-4BBF-9975-052AE6D21EBD";
name = Bold;
paths = (
{
closed = 1;
nodes = (
"503 -15 OFFCURVE",
"587 4 OFFCURVE",
"655 43 CURVE",
"655 266 LINE",
"589 223 OFFCURVE",
"517 203 OFFCURVE",
"423 203 CURVE SMOOTH",
"324 203 OFFCURVE",
"256 251 OFFCURVE",
"256 349 CURVE SMOOTH",
"256 446 OFFCURVE",
"322 495 OFFCURVE",
"423 495 CURVE SMOOTH",
"517 495 OFFCURVE",
"588 478 OFFCURVE",
"647 435 CURVE",
"647 659 LINE",
"579 698 OFFCURVE",
"503 714 OFFCURVE",
"402 714 CURVE SMOOTH",
"164 714 OFFCURVE",
"15 577 OFFCURVE",
"15 349 CURVE SMOOTH",
"15 122 OFFCURVE",
"164 -15 OFFCURVE",
"402 -15 CURVE SMOOTH"
);
},
{
closed = 1;
nodes = (
"468 742 OFFCURVE",
"507 780 OFFCURVE",
"507 829 CURVE SMOOTH",
"507 878 OFFCURVE",
"468 917 OFFCURVE",
"420 917 CURVE SMOOTH",
"373 917 OFFCURVE",
"332 878 OFFCURVE",
"332 829 CURVE SMOOTH",
"332 780 OFFCURVE",
"373 742 OFFCURVE",
"420 742 CURVE SMOOTH"
);
}
);
width = 670;
}
);
leftKerningGroup = C;
note = Cdotaccent;
rightKerningGroup = C;
unicode = 010A;
},
{
glyphname = D;
lastChange = "2015-12-01 01:57:21 +0000";
layers = (
{
layerId = "A000C7A9-5E22-4BBF-9975-052AE6D21EBD";
name = Bold;
paths = (
{
closed = 1;
nodes = (
"303 0 LINE SMOOTH",
"537 0 OFFCURVE",
"690 116 OFFCURVE",
"690 353 CURVE SMOOTH",
"690 567 OFFCURVE",
"537 699 OFFCURVE",
"303 699 CURVE SMOOTH",
"35 699 LINE",
"35 0 LINE"
);
},
{
closed = 1;
nodes = (
"272 479 LINE",
"319 479 LINE SMOOTH",
"402 479 OFFCURVE",
"449 434 OFFCURVE",
"449 353 CURVE SMOOTH",
"449 261 OFFCURVE",
"403 220 OFFCURVE",
"319 220 CURVE SMOOTH",
"272 220 LINE"
);
}
);
width = 705;
}
);
note = D;
rightKerningGroup = D;
unicode = 0044;
},
{
glyphname = Eth;
lastChange = "2015-12-01 01:57:22 +0000";
layers = (
{
layerId = "A000C7A9-5E22-4BBF-9975-052AE6D21EBD";
name = Bold;
paths = (
{
closed = 1;
nodes = (
"334 0 LINE SMOOTH",
"568 0 OFFCURVE",
"721 116 OFFCURVE",
"721 353 CURVE SMOOTH",
"721 567 OFFCURVE",
"568 699 OFFCURVE",
"334 699 CURVE SMOOTH",
"66 699 LINE",
"66 0 LINE"
);
},
{
closed = 1;
nodes = (
"408 266 LINE",
"408 433 LINE",
"25 433 LINE",
"25 266 LINE"
);
},
{
closed = 1;
nodes = (
"303 479 LINE",
"350 479 LINE SMOOTH",
"433 479 OFFCURVE",
"480 434 OFFCURVE",
"480 353 CURVE SMOOTH",
"480 261 OFFCURVE",
"434 220 OFFCURVE",
"350 220 CURVE SMOOTH",
"303 220 LINE"
);
}
);
width = 736;
}
);
note = Eth;
rightKerningGroup = D;
unicode = 00D0;
},
{
glyphname = Dcaron;
lastChange = "2015-12-01 01:57:22 +0000";
layers = (
{
layerId = "A000C7A9-5E22-4BBF-9975-052AE6D21EBD";
name = Bold;
paths = (
{
closed = 1;
nodes = (
"303 0 LINE SMOOTH",
"537 0 OFFCURVE",
"690 116 OFFCURVE",
"690 353 CURVE SMOOTH",
"690 567 OFFCURVE",
"537 699 OFFCURVE",
"303 699 CURVE SMOOTH",
"35 699 LINE",
"35 0 LINE"
);
},
{
closed = 1;
nodes = (
"272 479 LINE",
"319 479 LINE SMOOTH",
"402 479 OFFCURVE",
"449 434 OFFCURVE",
"449 353 CURVE SMOOTH",
"449 261 OFFCURVE",
"403 220 OFFCURVE",
"319 220 CURVE SMOOTH",
"272 220 LINE"
);
},
{
closed = 1;
nodes = (
"420 742 LINE",
"585 933 LINE",
"378 933 LINE",
"319 853 LINE",
"260 933 LINE",
"53 933 LINE",
"218 742 LINE"
);
}
);
width = 705;
}
);
note = Dcaron;
rightKerningGroup = D;
unicode = 010E;
},
{
glyphname = Dcroat;
lastChange = "2015-12-01 01:57:22 +0000";
layers = (
{
layerId = "A000C7A9-5E22-4BBF-9975-052AE6D21EBD";
name = Bold;
paths = (
{
closed = 1;
nodes = (
"334 0 LINE SMOOTH",
"568 0 OFFCURVE",
"721 116 OFFCURVE",
"721 353 CURVE SMOOTH",
"721 567 OFFCURVE",
"568 699 OFFCURVE",
"334 699 CURVE SMOOTH",
"66 699 LINE",
"66 0 LINE"
);
},
{
closed = 1;
nodes = (
"408 266 LINE",
"408 433 LINE",
"25 433 LINE",
"25 266 LINE"
);
},
{
closed = 1;
nodes = (
"303 479 LINE",
"350 479 LINE SMOOTH",
"433 479 OFFCURVE",
"480 434 OFFCURVE",
"480 353 CURVE SMOOTH",
"480 261 OFFCURVE",
"434 220 OFFCURVE",
"350 220 CURVE SMOOTH",
"303 220 LINE"
);
}
);
width = 736;
}
);
note = Dcroat;
rightKerningGroup = D;
unicode = 0110;
},
{
glyphname = Ddotbelow;
lastChange = "2015-12-01 01:57:21 +0000";
layers = (
{
layerId = "A000C7A9-5E22-4BBF-9975-052AE6D21EBD";
name = Bold;
paths = (
{
closed = 1;
nodes = (
"303 0 LINE SMOOTH",
"537 0 OFFCURVE",
"690 116 OFFCURVE",
"690 353 CURVE SMOOTH",
"690 567 OFFCURVE",
"537 699 OFFCURVE",
"303 699 CURVE SMOOTH",
"35 699 LINE",
"35 0 LINE"
);
},
{
closed = 1;
nodes = (
"368 -220 OFFCURVE",
"407 -182 OFFCURVE",
"407 -133 CURVE SMOOTH",
"407 -84 OFFCURVE",
"368 -45 OFFCURVE",
"320 -45 CURVE SMOOTH",
"273 -45 OFFCURVE",
"232 -84 OFFCURVE",
"232 -133 CURVE SMOOTH",
"232 -182 OFFCURVE",
"273 -220 OFFCURVE",
"320 -220 CURVE SMOOTH"
);
},
{
closed = 1;
nodes = (
"272 479 LINE",
"319 479 LINE SMOOTH",
"402 479 OFFCURVE",
"449 434 OFFCURVE",
"449 353 CURVE SMOOTH",
"449 261 OFFCURVE",
"403 220 OFFCURVE",
"319 220 CURVE SMOOTH",
"272 220 LINE"
);
}
);
width = 705;
}
);
note = Ddotbelow;
rightKerningGroup = D;
unicode = 1E0C;
},
{
glyphname = Dlinebelow;
lastChange = "2015-12-01 01:57:31 +0000";
layers = (
{
layerId = "A000C7A9-5E22-4BBF-9975-052AE6D21EBD";
name = Bold;
paths = (
{
closed = 1;
nodes = (
"303 0 LINE SMOOTH",
"537 0 OFFCURVE",
"690 116 OFFCURVE",
"690 353 CURVE SMOOTH",
"690 567 OFFCURVE",
"537 699 OFFCURVE",
"303 699 CURVE SMOOTH",
"35 699 LINE",
"35 0 LINE"
);
},
{
closed = 1;
nodes = (
"272 479 LINE",
"319 479 LINE SMOOTH",
"402 479 OFFCURVE",
"449 434 OFFCURVE",
"449 353 CURVE SMOOTH",
"449 261 OFFCURVE",
"403 220 OFFCURVE",
"319 220 CURVE SMOOTH",
"272 220 LINE"
);
},
{
closed = 1;
nodes = (
"496 -192 LINE",
"496 -49 LINE",
"129 -49 LINE",
"129 -192 LINE"
);
}
);
width = 705;
}
);
note = Dlinebelow;
rightKerningGroup = D;
unicode = 1E0E;
},
{
glyphname = E;
lastChange = "2015-12-01 01:57:44 +0000";
layers = (
{
layerId = "A000C7A9-5E22-4BBF-9975-052AE6D21EBD";
name = Bold;
paths = (
{
closed = 1;
nodes = (
"553 0 LINE",
"553 199 LINE",
"272 199 LINE",
"272 260 LINE",
"471 260 LINE",
"471 439 LINE",
"272 439 LINE",
"272 500 LINE",
"553 500 LINE",
"553 699 LINE",
"35 699 LINE",
"35 0 LINE"
);
}
);
width = 568;
}
);
leftKerningGroup = E;
note = E;
rightKerningGroup = E;
unicode = 0045;
},
{
glyphname = Eacute;
lastChange = "2015-12-01 01:57:38 +0000";
layers = (
{
layerId = "A000C7A9-5E22-4BBF-9975-052AE6D21EBD";
name = Bold;
paths = (
{
closed = 1;
nodes = (
"553 0 LINE",
"553 199 LINE",
"272 199 LINE",
"272 260 LINE",
"471 260 LINE",
"471 439 LINE",
"272 439 LINE",
"272 500 LINE",
"553 500 LINE",
"553 699 LINE",
"35 699 LINE",
"35 0 LINE"
);
},
{
closed = 1;
nodes = (
"379 742 LINE",
"474 923 LINE",
"257 923 LINE",
"189 742 LINE"
);
}
);
width = 568;
}
);
leftKerningGroup = E;
note = Eacute;
rightKerningGroup = E;
unicode = 00C9;
},
{
glyphname = Ebreve;
lastChange = "2015-12-01 01:57:21 +0000";
layers = (
{
layerId = "A000C7A9-5E22-4BBF-9975-052AE6D21EBD";
name = Bold;
paths = (
{
closed = 1;
nodes = (
"553 0 LINE",
"553 199 LINE",
"272 199 LINE",
"272 260 LINE",
"471 260 LINE",
"471 439 LINE",
"272 439 LINE",
"272 500 LINE",
"553 500 LINE",
"553 699 LINE",
"35 699 LINE",
"35 0 LINE"
);
},
{
closed = 1;
nodes = (
"420 742 OFFCURVE",
"492 816 OFFCURVE",
"492 937 CURVE",
"325 937 LINE",
"325 898 OFFCURVE",
"312 879 OFFCURVE",
"287 879 CURVE SMOOTH",
"262 879 OFFCURVE",
"249 898 OFFCURVE",
"249 937 CURVE",
"82 937 LINE",
"82 816 OFFCURVE",
"154 742 OFFCURVE",
"287 742 CURVE SMOOTH"
);
}
);
width = 568;
}
);
leftKerningGroup = E;
note = Ebreve;
rightKerningGroup = E;
unicode = 0114;
},
{
glyphname = Ecaron;
lastChange = "2015-12-01 01:57:58 +0000";
layers = (
{
layerId = "A000C7A9-5E22-4BBF-9975-052AE6D21EBD";
name = Bold;
paths = (
{
closed = 1;
nodes = (
"553 0 LINE",
"553 199 LINE",
"272 199 LINE",
"272 260 LINE",
"471 260 LINE",
"471 439 LINE",
"272 439 LINE",
"272 500 LINE",
"553 500 LINE",
"553 699 LINE",
"35 699 LINE",
"35 0 LINE"
);
},
{
closed = 1;
nodes = (
"402 742 LINE",
"567 933 LINE",
"360 933 LINE",
"301 853 LINE",
"242 933 LINE",
"35 933 LINE",
"200 742 LINE"
);
}
);
width = 568;
}
);
leftKerningGroup = E;
note = Ecaron;
rightKerningGroup = E;
unicode = 011A;
},
{
glyphname = Ecircumflex;
lastChange = "2015-12-01 01:58:24 +0000";
layers = (
{
layerId = "A000C7A9-5E22-4BBF-9975-052AE6D21EBD";
name = Bold;
paths = (
{
closed = 1;
nodes = (
"553 0 LINE",
"553 199 LINE",
"272 199 LINE",
"272 260 LINE",
"471 260 LINE",
"471 439 LINE",
"272 439 LINE",
"272 500 LINE",
"553 500 LINE",
"553 699 LINE",
"35 699 LINE",
"35 0 LINE"
);
},
{
closed = 1;
nodes = (
"242 732 LINE",
"301 812 LINE",
"360 732 LINE",
"567 732 LINE",
"402 923 LINE",
"200 923 LINE",
"35 732 LINE"
);
}
);
width = 568;
}
);
leftKerningGroup = E;
note = Ecircumflex;
rightKerningGroup = E;
unicode = 00CA;
},
{
glyphname = Ecircumflexacute;
lastChange = "2015-12-01 01:58:29 +0000";
layers = (
{
layerId = "A000C7A9-5E22-4BBF-9975-052AE6D21EBD";
name = Bold;
paths = (
{
closed = 1;
nodes = (
"553 0 LINE",
"553 199 LINE",
"272 199 LINE",
"272 260 LINE",
"471 260 LINE",
"471 439 LINE",
"272 439 LINE",
"272 500 LINE",
"553 500 LINE",
"553 699 LINE",
"35 699 LINE",
"35 0 LINE"
);
},
{
closed = 1;
nodes = (
"253 742 LINE",
"297 792 LINE",
"341 742 LINE",
"533 742 LINE",
"368 903 LINE",
"226 903 LINE",
"61 742 LINE"
);
},
{
closed = 1;
nodes = (
"618 875 LINE",
"702 1024 LINE",
"495 1024 LINE",
"438 875 LINE"
);
}
);
width = 568;
}
);
leftKerningGroup = E;
note = Ecircumflexacute;
rightKerningGroup = E;
unicode = 1EBE;
},
{
glyphname = Ecircumflexdotbelow;
lastChange = "2015-12-01 01:58:39 +0000";
layers = (
{
layerId = "A000C7A9-5E22-4BBF-9975-052AE6D21EBD";
name = Bold;
paths = (
{
closed = 1;
nodes = (
"553 0 LINE",
"553 199 LINE",
"272 199 LINE",
"272 260 LINE",
"471 260 LINE",
"471 439 LINE",
"272 439 LINE",
"272 500 LINE",
"553 500 LINE",
"553 699 LINE",
"35 699 LINE",
"35 0 LINE"
);
},
{
closed = 1;
nodes = (
"347 -220 OFFCURVE",
"386 -182 OFFCURVE",
"386 -133 CURVE SMOOTH",
"386 -84 OFFCURVE",
"347 -45 OFFCURVE",
"299 -45 CURVE SMOOTH",
"252 -45 OFFCURVE",
"211 -84 OFFCURVE",
"211 -133 CURVE SMOOTH",
"211 -182 OFFCURVE",
"252 -220 OFFCURVE",
"299 -220 CURVE SMOOTH"
);
},
{
closed = 1;
nodes = (
"242 742 LINE",
"301 822 LINE",
"360 742 LINE",
"567 742 LINE",
"402 933 LINE",
"200 933 LINE",
"35 742 LINE"
);
}
);
width = 568;
}
);
leftKerningGroup = E;
note = Ecircumflexdotbelow;
rightKerningGroup = E;
unicode = 1EC6;
},
{
glyphname = Ecircumflexgrave;
lastChange = "2015-12-01 01:58:45 +0000";
layers = (
{
layerId = "A000C7A9-5E22-4BBF-9975-052AE6D21EBD";
name = Bold;
paths = (
{
closed = 1;
nodes = (
"553 0 LINE",
"553 199 LINE",
"272 199 LINE",
"272 260 LINE",
"471 260 LINE",
"471 439 LINE",
"272 439 LINE",
"272 500 LINE",
"553 500 LINE",
"553 699 LINE",
"35 699 LINE",
"35 0 LINE"
);
},
{
closed = 1;
nodes = (
"156 875 LINE",
"99 1024 LINE",
"-108 1024 LINE",
"-24 875 LINE"
);
},
{
closed = 1;
nodes = (
"253 742 LINE",
"297 792 LINE",
"341 742 LINE",
"533 742 LINE",
"368 903 LINE",
"226 903 LINE",
"61 742 LINE"
);
}
);
width = 568;
}
);
leftKerningGroup = E;
note = Ecircumflexgrave;
rightKerningGroup = E;
unicode = 1EC0;
},
{
glyphname = Ecircumflexhookabove;
lastChange = "2015-12-01 01:58:52 +0000";
layers = (
{
layerId = "A000C7A9-5E22-4BBF-9975-052AE6D21EBD";
name = Bold;
paths = (
{
closed = 1;
nodes = (
"553 0 LINE",
"553 199 LINE",
"272 199 LINE",
"272 260 LINE",
"471 260 LINE",
"471 439 LINE",
"272 439 LINE",
"272 500 LINE",
"553 500 LINE",
"553 699 LINE",
"35 699 LINE",
"35 0 LINE"
);
},
{
closed = 1;
nodes = (
"237 742 LINE",
"281 792 LINE",
"325 742 LINE",
"517 742 LINE",
"352 903 LINE",
"210 903 LINE",
"45 742 LINE"
);
},
{
closed = 1;
nodes = (
"546 863 LINE",
"546 889 LINE",
"581 901 OFFCURVE",
"604 922 OFFCURVE",
"604 955 CURVE SMOOTH",
"604 1001 OFFCURVE",
"565 1032 OFFCURVE",
"484 1032 CURVE SMOOTH",
"454 1032 OFFCURVE",
"409 1026 OFFCURVE",
"385 1019 CURVE",
"385 950 LINE",
"393 954 OFFCURVE",
"407 956 OFFCURVE",
"417 956 CURVE SMOOTH",
"443 956 OFFCURVE",
"455 948 OFFCURVE",
"455 936 CURVE SMOOTH",
"455 920 OFFCURVE",
"436 915 OFFCURVE",
"409 915 CURVE",
"409 863 LINE"
);
}
);
width = 568;
}
);
leftKerningGroup = E;
note = Ecircumflexhookabove;
rightKerningGroup = E;
unicode = 1EC2;
},
{
glyphname = Ecircumflextilde;
lastChange = "2015-12-01 01:58:57 +0000";
layers = (
{
layerId = "A000C7A9-5E22-4BBF-9975-052AE6D21EBD";
name = Bold;
paths = (
{
closed = 1;
nodes = (
"553 0 LINE",
"553 199 LINE",
"272 199 LINE",
"272 260 LINE",
"471 260 LINE",
"471 439 LINE",
"272 439 LINE",
"272 500 LINE",
"553 500 LINE",
"553 699 LINE",
"35 699 LINE",
"35 0 LINE"
);
},
{
closed = 1;
nodes = (
"244 742 LINE",
"288 792 LINE",
"332 742 LINE",
"524 742 LINE",
"359 903 LINE",
"217 903 LINE",
"52 742 LINE"
);
},
{
closed = 1;
nodes = (
"419 914 OFFCURVE",
"449 923 OFFCURVE",
"470 946 CURVE",
"470 1059 LINE",
"445 1032 OFFCURVE",
"415 1020 OFFCURVE",
"382 1020 CURVE SMOOTH",
"329 1020 OFFCURVE",
"272 1060 OFFCURVE",
"217 1060 CURVE SMOOTH",
"180 1060 OFFCURVE",
"150 1051 OFFCURVE",
"129 1028 CURVE",
"129 915 LINE",
"154 942 OFFCURVE",
"184 954 OFFCURVE",
"217 954 CURVE SMOOTH",
"269 954 OFFCURVE",
"323 914 OFFCURVE",
"382 914 CURVE SMOOTH"
);
}
);
width = 568;
}
);
leftKerningGroup = E;
note = Ecircumflextilde;
rightKerningGroup = E;
unicode = 1EC4;
},
{
glyphname = Edieresis;
lastChange = "2015-12-01 01:57:21 +0000";
layers = (
{
layerId = "A000C7A9-5E22-4BBF-9975-052AE6D21EBD";
name = Bold;
paths = (
{
closed = 1;
nodes = (
"553 0 LINE",
"553 199 LINE",
"272 199 LINE",
"272 260 LINE",
"471 260 LINE",
"471 439 LINE",
"272 439 LINE",
"272 500 LINE",
"553 500 LINE",
"553 699 LINE",
"35 699 LINE",
"35 0 LINE"
);
},
{
closed = 1;
nodes = (
"237 742 OFFCURVE",
"276 780 OFFCURVE",
"276 829 CURVE SMOOTH",
"276 878 OFFCURVE",
"237 917 OFFCURVE",
"189 917 CURVE SMOOTH",
"142 917 OFFCURVE",
"101 878 OFFCURVE",
"101 829 CURVE SMOOTH",
"101 780 OFFCURVE",
"142 742 OFFCURVE",
"189 742 CURVE SMOOTH"
);
},
{
closed = 1;
nodes = (
"471 742 OFFCURVE",
"510 780 OFFCURVE",
"510 829 CURVE SMOOTH",
"510 878 OFFCURVE",
"471 917 OFFCURVE",
"424 917 CURVE SMOOTH",
"376 917 OFFCURVE",
"336 878 OFFCURVE",
"336 829 CURVE SMOOTH",
"336 780 OFFCURVE",
"376 742 OFFCURVE",
"424 742 CURVE SMOOTH"
);
}
);
width = 568;
}
);
leftKerningGroup = E;
note = Edieresis;
rightKerningGroup = E;
unicode = 00CB;
},
{
glyphname = Edotaccent;
lastChange = "2015-12-01 01:57:21 +0000";
layers = (
{
layerId = "A000C7A9-5E22-4BBF-9975-052AE6D21EBD";
name = Bold;
paths = (
{
closed = 1;
nodes = (
"553 0 LINE",
"553 199 LINE",
"272 199 LINE",
"272 260 LINE",
"471 260 LINE",
"471 439 LINE",
"272 439 LINE",
"272 500 LINE",
"553 500 LINE",
"553 699 LINE",
"35 699 LINE",
"35 0 LINE"
);
},
{
closed = 1;
nodes = (
"335 742 OFFCURVE",
"374 780 OFFCURVE",
"374 829 CURVE SMOOTH",
"374 878 OFFCURVE",
"335 917 OFFCURVE",
"287 917 CURVE SMOOTH",
"240 917 OFFCURVE",
"199 878 OFFCURVE",
"199 829 CURVE SMOOTH",
"199 780 OFFCURVE",
"240 742 OFFCURVE",
"287 742 CURVE SMOOTH"
);
}
);
width = 568;
}
);
leftKerningGroup = E;
note = Edotaccent;
rightKerningGroup = E;
unicode = 0116;
},
{
glyphname = Edotbelow;
lastChange = "2015-12-01 01:57:22 +0000";
layers = (
{
layerId = "A000C7A9-5E22-4BBF-9975-052AE6D21EBD";
name = Bold;
paths = (
{
closed = 1;
nodes = (
"553 0 LINE",
"553 199 LINE",
"272 199 LINE",
"272 260 LINE",
"471 260 LINE",
"471 439 LINE",
"272 439 LINE",
"272 500 LINE",
"553 500 LINE",
"553 699 LINE",
"35 699 LINE",
"35 0 LINE"
);
},
{
closed = 1;
nodes = (
"327 -220 OFFCURVE",
"366 -182 OFFCURVE",
"366 -133 CURVE SMOOTH",
"366 -84 OFFCURVE",
"327 -45 OFFCURVE",
"279 -45 CURVE SMOOTH",
"232 -45 OFFCURVE",
"191 -84 OFFCURVE",
"191 -133 CURVE SMOOTH",
"191 -182 OFFCURVE",
"232 -220 OFFCURVE",
"279 -220 CURVE SMOOTH"
);
}
);
width = 568;
}
);
leftKerningGroup = E;
note = Edotbelow;
rightKerningGroup = E;
unicode = 1EB8;
},
{
glyphname = Egrave;
lastChange = "2015-12-01 01:57:22 +0000";
layers = (
{
layerId = "A000C7A9-5E22-4BBF-9975-052AE6D21EBD";
name = Bold;
paths = (
{
closed = 1;
nodes = (
"553 0 LINE",
"553 199 LINE",
"272 199 LINE",
"272 260 LINE",
"471 260 LINE",
"471 439 LINE",
"272 439 LINE",
"272 500 LINE",
"553 500 LINE",
"553 699 LINE",
"35 699 LINE",
"35 0 LINE"
);
},
{
closed = 1;
nodes = (
"400 742 LINE",
"332 923 LINE",
"115 923 LINE",
"210 742 LINE"
);
}
);
width = 568;
}
);
leftKerningGroup = E;
note = Egrave;
rightKerningGroup = E;
unicode = 00C8;
},
{
glyphname = Ehookabove;
lastChange = "2015-12-01 01:57:22 +0000";
layers = (
{
layerId = "A000C7A9-5E22-4BBF-9975-052AE6D21EBD";
name = Bold;
paths = (
{
closed = 1;
nodes = (
"553 0 LINE",
"553 199 LINE",
"272 199 LINE",
"272 260 LINE",
"471 260 LINE",
"471 439 LINE",
"272 439 LINE",
"272 500 LINE",
"553 500 LINE",
"553 699 LINE",
"35 699 LINE",
"35 0 LINE"
);
},
{
closed = 1;
nodes = (
"369 742 LINE",
"369 782 LINE",
"422 798 OFFCURVE",
"460 825 OFFCURVE",
"460 877 CURVE SMOOTH",
"460 940 OFFCURVE",
"402 981 OFFCURVE",
"283 981 CURVE SMOOTH",
"239 981 OFFCURVE",
"176 972 OFFCURVE",
"142 962 CURVE",
"142 877 LINE",
"155 881 OFFCURVE",
"179 886 OFFCURVE",
"199 886 CURVE SMOOTH",
"240 886 OFFCURVE",
"258 876 OFFCURVE",
"258 854 CURVE SMOOTH",
"258 827 OFFCURVE",
"238 816 OFFCURVE",
"182 816 CURVE",
"182 742 LINE"
);
}
);
width = 568;
}
);
leftKerningGroup = E;
note = Ehookabove;
rightKerningGroup = E;
unicode = 1EBA;
},
{
glyphname = Emacron;
lastChange = "2015-12-01 01:57:21 +0000";
layers = (
{
layerId = "A000C7A9-5E22-4BBF-9975-052AE6D21EBD";
name = Bold;
paths = (
{
closed = 1;
nodes = (
"553 0 LINE",
"553 199 LINE",
"272 199 LINE",
"272 260 LINE",
"471 260 LINE",
"471 439 LINE",
"272 439 LINE",
"272 500 LINE",
"553 500 LINE",
"553 699 LINE",
"35 699 LINE",
"35 0 LINE"
);
},
{
closed = 1;
nodes = (
"482 742 LINE",
"482 885 LINE",
"115 885 LINE",
"115 742 LINE"
);
}
);
width = 568;
}
);
leftKerningGroup = E;
note = Emacron;
rightKerningGroup = E;
unicode = 0112;
},
{
glyphname = Eogonek;
lastChange = "2015-12-01 01:57:21 +0000";
layers = (
{
layerId = "A000C7A9-5E22-4BBF-9975-052AE6D21EBD";
name = Bold;
paths = (
{
closed = 1;
nodes = (
"553 0 LINE",
"553 199 LINE",
"272 199 LINE",
"272 260 LINE",
"471 260 LINE",
"471 439 LINE",
"272 439 LINE",
"272 500 LINE",
"553 500 LINE",
"553 699 LINE",
"35 699 LINE",
"35 0 LINE"
);
},
{
closed = 1;
nodes = (
"467 -219 OFFCURVE",
"518 -212 OFFCURVE",
"549 -202 CURVE",
"549 -82 LINE",
"533 -90 OFFCURVE",
"516 -95 OFFCURVE",
"500 -95 CURVE SMOOTH",
"483 -95 OFFCURVE",
"474 -86 OFFCURVE",
"474 -72 CURVE SMOOTH",
"474 -45 OFFCURVE",
"496 -26 OFFCURVE",
"553 0 CURVE",
"348 0 LINE",
"306 -24 OFFCURVE",
"279 -63 OFFCURVE",
"279 -116 CURVE SMOOTH",
"279 -189 OFFCURVE",
"339 -219 OFFCURVE",
"421 -219 CURVE SMOOTH"
);
}
);
width = 568;
}
);
leftKerningGroup = E;
note = Eogonek;
rightKerningGroup = E;
unicode = 0118;
},
{
glyphname = Etilde;
lastChange = "2015-12-01 01:57:21 +0000";
layers = (
{
layerId = "A000C7A9-5E22-4BBF-9975-052AE6D21EBD";
name = Bold;
paths = (
{
closed = 1;
nodes = (
"553 0 LINE",
"553 199 LINE",
"272 199 LINE",
"272 260 LINE",
"471 260 LINE",
"471 439 LINE",
"272 439 LINE",
"272 500 LINE",
"553 500 LINE",
"553 699 LINE",
"35 699 LINE",
"35 0 LINE"
);
},
{
closed = 1;
nodes = (
"454 742 OFFCURVE",
"492 753 OFFCURVE",
"518 782 CURVE",
"518 935 LINE",
"487 901 OFFCURVE",
"450 886 OFFCURVE",
"408 886 CURVE SMOOTH",
"343 886 OFFCURVE",
"272 936 OFFCURVE",
"204 936 CURVE SMOOTH",
"158 936 OFFCURVE",
"120 925 OFFCURVE",
"94 896 CURVE",
"94 743 LINE",
"125 777 OFFCURVE",
"162 792 OFFCURVE",
"204 792 CURVE SMOOTH",
"268 792 OFFCURVE",
"335 742 OFFCURVE",
"408 742 CURVE SMOOTH"
);
}
);
width = 568;
}
);
leftKerningGroup = E;
note = Etilde;
rightKerningGroup = E;
unicode = 1EBC;
},
{
glyphname = F;
lastChange = "2015-12-01 01:57:19 +0000";
layers = (
{
layerId = "A000C7A9-5E22-4BBF-9975-052AE6D21EBD";
name = Bold;
paths = (
{
closed = 1;
nodes = (
"272 0 LINE",
"272 260 LINE",
"471 260 LINE",
"471 439 LINE",
"272 439 LINE",
"272 500 LINE",
"553 500 LINE",
"553 699 LINE",
"35 699 LINE",
"35 0 LINE"
);
}
);
width = 548;
}
);
note = F;
unicode = 0046;
},
{
glyphname = G;
lastChange = "2015-12-01 01:57:19 +0000";
layers = (
{
layerId = "A000C7A9-5E22-4BBF-9975-052AE6D21EBD";
name = Bold;
paths = (
{
closed = 1;
nodes = (
"516 -15 OFFCURVE",
"604 5 OFFCURVE",
"672 44 CURVE",
"672 403 LINE",
"387 403 LINE",
"387 267 LINE",
"464 267 LINE",
"464 201 LINE",
"453 197 OFFCURVE",
"431 193 OFFCURVE",
"412 193 CURVE SMOOTH",
"297 193 OFFCURVE",
"255 251 OFFCURVE",
"255 349 CURVE SMOOTH",
"255 446 OFFCURVE",
"322 497 OFFCURVE",
"423 497 CURVE SMOOTH",
"517 497 OFFCURVE",
"588 480 OFFCURVE",
"647 437 CURVE",
"647 659 LINE",
"579 698 OFFCURVE",
"506 714 OFFCURVE",
"402 714 CURVE SMOOTH",
"164 714 OFFCURVE",
"15 577 OFFCURVE",
"15 349 CURVE SMOOTH",
"15 122 OFFCURVE",
"164 -15 OFFCURVE",
"402 -15 CURVE SMOOTH"
);
}
);
width = 687;
}
);
leftKerningGroup = C;
note = G;
unicode = 0047;
},
{
glyphname = Gbreve;
lastChange = "2015-12-01 01:57:22 +0000";
layers = (
{
layerId = "A000C7A9-5E22-4BBF-9975-052AE6D21EBD";
name = Bold;
paths = (
{
closed = 1;
nodes = (
"516 -15 OFFCURVE",
"604 5 OFFCURVE",
"672 44 CURVE",
"672 403 LINE",
"387 403 LINE",
"387 267 LINE",
"464 267 LINE",
"464 201 LINE",
"453 197 OFFCURVE",
"431 193 OFFCURVE",
"412 193 CURVE SMOOTH",
"297 193 OFFCURVE",
"255 251 OFFCURVE",
"255 349 CURVE SMOOTH",
"255 446 OFFCURVE",
"322 497 OFFCURVE",
"423 497 CURVE SMOOTH",
"517 497 OFFCURVE",
"588 480 OFFCURVE",
"647 437 CURVE",
"647 659 LINE",
"579 698 OFFCURVE",
"506 714 OFFCURVE",
"402 714 CURVE SMOOTH",
"164 714 OFFCURVE",
"15 577 OFFCURVE",
"15 349 CURVE SMOOTH",
"15 122 OFFCURVE",
"164 -15 OFFCURVE",
"402 -15 CURVE SMOOTH"
);
},
{
closed = 1;
nodes = (
"544 742 OFFCURVE",
"616 816 OFFCURVE",
"616 937 CURVE",
"449 937 LINE",
"449 898 OFFCURVE",
"436 879 OFFCURVE",
"411 879 CURVE SMOOTH",
"386 879 OFFCURVE",
"373 898 OFFCURVE",
"373 937 CURVE",
"206 937 LINE",
"206 816 OFFCURVE",
"278 742 OFFCURVE",
"411 742 CURVE SMOOTH"
);
}
);
width = 687;
}
);
leftKerningGroup = C;
note = Gbreve;
unicode = 011E;
},
{
glyphname = Gcaron;
lastChange = "2015-12-01 01:59:06 +0000";
layers = (
{
layerId = "A000C7A9-5E22-4BBF-9975-052AE6D21EBD";
name = Bold;
paths = (
{
closed = 1;
nodes = (
"516 -15 OFFCURVE",
"604 5 OFFCURVE",
"672 44 CURVE",
"672 403 LINE",
"387 403 LINE",
"387 267 LINE",
"464 267 LINE",
"464 201 LINE",
"453 197 OFFCURVE",
"431 193 OFFCURVE",
"412 193 CURVE SMOOTH",
"297 193 OFFCURVE",
"255 251 OFFCURVE",
"255 349 CURVE SMOOTH",
"255 446 OFFCURVE",
"322 497 OFFCURVE",
"423 497 CURVE SMOOTH",
"517 497 OFFCURVE",
"588 480 OFFCURVE",
"647 437 CURVE",
"647 659 LINE",
"579 698 OFFCURVE",
"506 714 OFFCURVE",
"402 714 CURVE SMOOTH",
"164 714 OFFCURVE",
"15 577 OFFCURVE",
"15 349 CURVE SMOOTH",
"15 122 OFFCURVE",
"164 -15 OFFCURVE",
"402 -15 CURVE SMOOTH"
);
},
{
closed = 1;
nodes = (
"482 742 LINE",
"647 933 LINE",
"440 933 LINE",
"381 853 LINE",
"322 933 LINE",
"115 933 LINE",
"280 742 LINE"
);
}
);
width = 687;
}
);
leftKerningGroup = C;
note = Gcaron;
unicode = 01E6;
},
{
glyphname = Gcircumflex;
lastChange = "2015-12-01 01:57:22 +0000";
layers = (
{
layerId = "A000C7A9-5E22-4BBF-9975-052AE6D21EBD";
name = Bold;
paths = (
{
closed = 1;
nodes = (
"516 -15 OFFCURVE",
"604 5 OFFCURVE",
"672 44 CURVE",
"672 403 LINE",
"387 403 LINE",
"387 267 LINE",
"464 267 LINE",
"464 201 LINE",
"453 197 OFFCURVE",
"431 193 OFFCURVE",
"412 193 CURVE SMOOTH",
"297 193 OFFCURVE",
"255 251 OFFCURVE",
"255 349 CURVE SMOOTH",
"255 446 OFFCURVE",
"322 497 OFFCURVE",
"423 497 CURVE SMOOTH",
"517 497 OFFCURVE",
"588 480 OFFCURVE",
"647 437 CURVE",
"647 659 LINE",
"579 698 OFFCURVE",
"506 714 OFFCURVE",
"402 714 CURVE SMOOTH",
"164 714 OFFCURVE",
"15 577 OFFCURVE",
"15 349 CURVE SMOOTH",
"15 122 OFFCURVE",
"164 -15 OFFCURVE",
"402 -15 CURVE SMOOTH"
);
},
{
closed = 1;
nodes = (
"325 742 LINE",
"384 822 LINE",
"443 742 LINE",
"650 742 LINE",
"485 933 LINE",
"283 933 LINE",
"118 742 LINE"
);
}
);
width = 687;
}
);
leftKerningGroup = C;
note = Gcircumflex;
unicode = 011C;
},
{
glyphname = Gcommaaccent;
lastChange = "2015-12-01 01:57:21 +0000";
layers = (
{
layerId = "A000C7A9-5E22-4BBF-9975-052AE6D21EBD";
name = Bold;
paths = (
{
closed = 1;
nodes = (
"516 -15 OFFCURVE",
"604 5 OFFCURVE",
"672 44 CURVE",
"672 403 LINE",
"387 403 LINE",
"387 267 LINE",
"464 267 LINE",
"464 201 LINE",
"453 197 OFFCURVE",
"431 193 OFFCURVE",
"412 193 CURVE SMOOTH",
"297 193 OFFCURVE",
"255 251 OFFCURVE",
"255 349 CURVE SMOOTH",
"255 446 OFFCURVE",
"322 497 OFFCURVE",
"423 497 CURVE SMOOTH",
"517 497 OFFCURVE",
"588 480 OFFCURVE",
"647 437 CURVE",
"647 659 LINE",
"579 698 OFFCURVE",
"506 714 OFFCURVE",
"402 714 CURVE SMOOTH",
"164 714 OFFCURVE",
"15 577 OFFCURVE",
"15 349 CURVE SMOOTH",
"15 122 OFFCURVE",
"164 -15 OFFCURVE",
"402 -15 CURVE SMOOTH"
);
},
{
closed = 1;
nodes = (
"409 -259 LINE",
"520 -41 LINE",
"308 -41 LINE",
"224 -259 LINE"
);
}
);
width = 687;
}
);
leftKerningGroup = C;
note = Gcommaaccent;
unicode = 0122;
},
{
glyphname = Gdotaccent;
lastChange = "2015-12-01 01:57:21 +0000";
layers = (
{
layerId = "A000C7A9-5E22-4BBF-9975-052AE6D21EBD";
name = Bold;
paths = (
{
closed = 1;
nodes = (
"516 -15 OFFCURVE",
"604 5 OFFCURVE",
"672 44 CURVE",
"672 403 LINE",
"387 403 LINE",
"387 267 LINE",
"464 267 LINE",
"464 201 LINE",
"453 197 OFFCURVE",
"431 193 OFFCURVE",
"412 193 CURVE SMOOTH",
"297 193 OFFCURVE",
"255 251 OFFCURVE",
"255 349 CURVE SMOOTH",
"255 446 OFFCURVE",
"322 497 OFFCURVE",
"423 497 CURVE SMOOTH",
"517 497 OFFCURVE",
"588 480 OFFCURVE",
"647 437 CURVE",
"647 659 LINE",
"579 698 OFFCURVE",
"506 714 OFFCURVE",
"402 714 CURVE SMOOTH",
"164 714 OFFCURVE",
"15 577 OFFCURVE",
"15 349 CURVE SMOOTH",
"15 122 OFFCURVE",
"164 -15 OFFCURVE",
"402 -15 CURVE SMOOTH"
);
},
{
closed = 1;
nodes = (
"460 742 OFFCURVE",
"499 780 OFFCURVE",
"499 829 CURVE SMOOTH",
"499 878 OFFCURVE",
"460 917 OFFCURVE",
"412 917 CURVE SMOOTH",
"365 917 OFFCURVE",
"324 878 OFFCURVE",
"324 829 CURVE SMOOTH",
"324 780 OFFCURVE",
"365 742 OFFCURVE",
"412 742 CURVE SMOOTH"
);
}
);
width = 687;
}
);
leftKerningGroup = C;
note = Gdotaccent;
unicode = 0120;
},
{
glyphname = Gmacron;
lastChange = "2015-12-01 01:57:21 +0000";
layers = (
{
layerId = "A000C7A9-5E22-4BBF-9975-052AE6D21EBD";
name = Bold;
paths = (
{
closed = 1;
nodes = (
"516 -15 OFFCURVE",
"604 5 OFFCURVE",
"672 44 CURVE",
"672 403 LINE",
"387 403 LINE",
"387 267 LINE",
"464 267 LINE",
"464 201 LINE",
"453 197 OFFCURVE",
"431 193 OFFCURVE",
"412 193 CURVE SMOOTH",
"297 193 OFFCURVE",
"255 251 OFFCURVE",
"255 349 CURVE SMOOTH",
"255 446 OFFCURVE",
"322 497 OFFCURVE",
"423 497 CURVE SMOOTH",
"517 497 OFFCURVE",
"588 480 OFFCURVE",
"647 437 CURVE",
"647 659 LINE",
"579 698 OFFCURVE",
"506 714 OFFCURVE",
"402 714 CURVE SMOOTH",
"164 714 OFFCURVE",
"15 577 OFFCURVE",
"15 349 CURVE SMOOTH",
"15 122 OFFCURVE",
"164 -15 OFFCURVE",
"402 -15 CURVE SMOOTH"
);
},
{
closed = 1;
nodes = (
"577 742 LINE",
"577 885 LINE",
"210 885 LINE",
"210 742 LINE"
);
}
);
width = 687;
}
);
leftKerningGroup = C;
note = Gmacron;
unicode = 1E20;
},
{
glyphname = H;
lastChange = "2015-12-01 01:57:19 +0000";
layers = (
{
layerId = "A000C7A9-5E22-4BBF-9975-052AE6D21EBD";
name = Bold;
paths = (
{
closed = 1;
nodes = (
"272 0 LINE",
"272 245 LINE",
"464 245 LINE",
"464 0 LINE",
"701 0 LINE",
"701 699 LINE",
"464 699 LINE",
"464 465 LINE",
"272 465 LINE",
"272 699 LINE",
"35 699 LINE",
"35 0 LINE"
);
}
);
width = 736;
}
);
note = H;
unicode = 0048;
},
{
glyphname = Hbar;
lastChange = "2015-12-01 01:57:21 +0000";
layers = (
{
layerId = "A000C7A9-5E22-4BBF-9975-052AE6D21EBD";
name = Bold;
paths = (
{
closed = 1;
nodes = (
"303 0 LINE",
"303 245 LINE",
"495 245 LINE",
"495 0 LINE",
"732 0 LINE",
"732 699 LINE",
"495 699 LINE",
"495 465 LINE",
"303 465 LINE",
"303 699 LINE",
"66 699 LINE",
"66 0 LINE"
);
},
{
closed = 1;
nodes = (
"773 514 LINE",
"773 645 LINE",
"25 645 LINE",
"25 514 LINE"
);
}
);
width = 798;
}
);
note = Hbar;
unicode = 0126;
},
{
glyphname = Hbrevebelow;
lastChange = "2015-12-01 01:57:22 +0000";
layers = (
{
layerId = "A000C7A9-5E22-4BBF-9975-052AE6D21EBD";
name = Bold;
paths = (
{
closed = 1;
nodes = (
"272 0 LINE",
"272 245 LINE",
"464 245 LINE",
"464 0 LINE",
"701 0 LINE",
"701 699 LINE",
"464 699 LINE",
"464 465 LINE",
"272 465 LINE",
"272 699 LINE",
"35 699 LINE",
"35 0 LINE"
);
},
{
closed = 1;
nodes = (
"501 -244 OFFCURVE",
"573 -170 OFFCURVE",
"573 -49 CURVE",
"406 -49 LINE",
"406 -88 OFFCURVE",
"393 -107 OFFCURVE",
"368 -107 CURVE SMOOTH",
"343 -107 OFFCURVE",
"330 -88 OFFCURVE",
"330 -49 CURVE",
"163 -49 LINE",
"163 -170 OFFCURVE",
"235 -244 OFFCURVE",
"368 -244 CURVE SMOOTH"
);
}
);
width = 736;
}
);
note = Hbrevebelow;
unicode = 1E2A;
},
{
glyphname = Hcircumflex;
lastChange = "2015-12-01 01:57:21 +0000";
layers = (
{
layerId = "A000C7A9-5E22-4BBF-9975-052AE6D21EBD";
name = Bold;
paths = (
{
closed = 1;
nodes = (
"272 0 LINE",
"272 245 LINE",
"464 245 LINE",
"464 0 LINE",
"701 0 LINE",
"701 699 LINE",
"464 699 LINE",
"464 465 LINE",
"272 465 LINE",
"272 699 LINE",
"35 699 LINE",
"35 0 LINE"
);
},
{
closed = 1;
nodes = (
"309 742 LINE",
"368 822 LINE",
"427 742 LINE",
"634 742 LINE",
"469 933 LINE",
"267 933 LINE",
"102 742 LINE"
);
}
);
width = 736;
}
);
note = Hcircumflex;
unicode = 0124;
},
{
glyphname = Hdotbelow;
lastChange = "2015-12-01 01:57:21 +0000";
layers = (
{
layerId = "A000C7A9-5E22-4BBF-9975-052AE6D21EBD";
name = Bold;
paths = (
{
closed = 1;
nodes = (
"272 0 LINE",
"272 245 LINE",
"464 245 LINE",
"464 0 LINE",
"701 0 LINE",
"701 699 LINE",
"464 699 LINE",
"464 465 LINE",
"272 465 LINE",
"272 699 LINE",
"35 699 LINE",
"35 0 LINE"
);
},
{
closed = 1;
nodes = (
"417 -220 OFFCURVE",
"456 -182 OFFCURVE",
"456 -133 CURVE SMOOTH",
"456 -84 OFFCURVE",
"417 -45 OFFCURVE",
"369 -45 CURVE SMOOTH",
"322 -45 OFFCURVE",
"281 -84 OFFCURVE",
"281 -133 CURVE SMOOTH",
"281 -182 OFFCURVE",
"322 -220 OFFCURVE",
"369 -220 CURVE SMOOTH"
);
}
);
width = 736;
}
);
note = Hdotbelow;
unicode = 1E24;
},
{
glyphname = I;
lastChange = "2015-12-01 01:57:19 +0000";
layers = (
{
layerId = "A000C7A9-5E22-4BBF-9975-052AE6D21EBD";
name = Bold;
paths = (
{
closed = 1;
nodes = (
"272 0 LINE",
"272 699 LINE",
"35 699 LINE",
"35 0 LINE"
);
}
);
width = 307;
}
);
note = I;
unicode = 0049;
},
{
glyphname = IJ;
lastChange = "2015-12-01 01:57:21 +0000";
layers = (
{
layerId = "A000C7A9-5E22-4BBF-9975-052AE6D21EBD";
name = Bold;
paths = (
{
closed = 1;
nodes = (
"592 -15 OFFCURVE",
"672 93 OFFCURVE",
"672 236 CURVE SMOOTH",
"672 699 LINE",
"435 699 LINE",
"435 263 LINE SMOOTH",
"435 215 OFFCURVE",
"411 196 OFFCURVE",
"367 196 CURVE SMOOTH",
"335 196 OFFCURVE",
"309 202 OFFCURVE",
"288 213 CURVE",
"288 13 LINE",
"313 -3 OFFCURVE",
"377 -15 OFFCURVE",
"423 -15 CURVE SMOOTH"
);
},
{
closed = 1;
nodes = (
"272 0 LINE",
"272 699 LINE",
"35 699 LINE",
"35 0 LINE"
);
}
);
width = 702;
}
);
note = IJ;
rightKerningGroup = J;
unicode = 0132;
},
{
glyphname = Iacute;
lastChange = "2015-12-01 01:57:21 +0000";
layers = (
{
layerId = "A000C7A9-5E22-4BBF-9975-052AE6D21EBD";
name = Bold;
paths = (
{
closed = 1;
nodes = (
"272 0 LINE",
"272 699 LINE",
"35 699 LINE",
"35 0 LINE"
);
},
{
closed = 1;
nodes = (
"250 742 LINE",
"345 923 LINE",
"128 923 LINE",
"60 742 LINE"
);
}
);
width = 307;
}
);
note = Iacute;
unicode = 00CD;
},
{
glyphname = Ibreve;
lastChange = "2015-12-01 01:57:22 +0000";
layers = (
{
layerId = "A000C7A9-5E22-4BBF-9975-052AE6D21EBD";
name = Bold;
paths = (
{
closed = 1;
nodes = (
"272 0 LINE",
"272 699 LINE",
"35 699 LINE",
"35 0 LINE"
);
},
{
closed = 1;
nodes = (
"286 742 OFFCURVE",
"358 816 OFFCURVE",
"358 937 CURVE",
"191 937 LINE",
"191 898 OFFCURVE",
"178 879 OFFCURVE",
"153 879 CURVE SMOOTH",
"128 879 OFFCURVE",
"115 898 OFFCURVE",
"115 937 CURVE",
"-52 937 LINE",
"-52 816 OFFCURVE",
"20 742 OFFCURVE",
"153 742 CURVE SMOOTH"
);
}
);
width = 307;
}
);
note = Ibreve;
unicode = 012C;
},
{
glyphname = Icaron;
lastChange = "2015-12-01 01:57:21 +0000";
layers = (
{
layerId = "A000C7A9-5E22-4BBF-9975-052AE6D21EBD";
name = Bold;
paths = (
{
closed = 1;
nodes = (
"272 0 LINE",
"272 699 LINE",
"35 699 LINE",
"35 0 LINE"
);
},
{
closed = 1;
nodes = (
"254 742 LINE",
"419 933 LINE",
"212 933 LINE",
"153 853 LINE",
"94 933 LINE",
"-113 933 LINE",
"52 742 LINE"
);
}
);
width = 307;
}
);
note = Icaron;
unicode = 01CF;
},
{
glyphname = Icircumflex;
lastChange = "2015-12-01 01:57:22 +0000";
layers = (
{
layerId = "A000C7A9-5E22-4BBF-9975-052AE6D21EBD";
name = Bold;
paths = (
{
closed = 1;
nodes = (
"272 0 LINE",
"272 699 LINE",
"35 699 LINE",
"35 0 LINE"
);
},
{
closed = 1;
nodes = (
"94 732 LINE",
"153 812 LINE",
"212 732 LINE",
"419 732 LINE",
"254 923 LINE",
"52 923 LINE",
"-113 732 LINE"
);
}
);
width = 307;
}
);
note = Icircumflex;
unicode = 00CE;
},
{
glyphname = Idieresis;
lastChange = "2015-12-01 01:57:21 +0000";
layers = (
{
layerId = "A000C7A9-5E22-4BBF-9975-052AE6D21EBD";
name = Bold;
paths = (
{
closed = 1;
nodes = (
"272 0 LINE",
"272 699 LINE",
"35 699 LINE",
"35 0 LINE"
);
},
{
closed = 1;
nodes = (
"85 742 OFFCURVE",
"124 780 OFFCURVE",
"124 829 CURVE SMOOTH",
"124 878 OFFCURVE",
"85 917 OFFCURVE",
"37 917 CURVE SMOOTH",
"-10 917 OFFCURVE",
"-51 878 OFFCURVE",
"-51 829 CURVE SMOOTH",
"-51 780 OFFCURVE",
"-10 742 OFFCURVE",
"37 742 CURVE SMOOTH"
);
},
{
closed = 1;
nodes = (
"319 742 OFFCURVE",
"358 780 OFFCURVE",
"358 829 CURVE SMOOTH",
"358 878 OFFCURVE",
"319 917 OFFCURVE",
"272 917 CURVE SMOOTH",
"224 917 OFFCURVE",
"184 878 OFFCURVE",
"184 829 CURVE SMOOTH",
"184 780 OFFCURVE",
"224 742 OFFCURVE",
"272 742 CURVE SMOOTH"
);
}
);
width = 307;
}
);
note = Idieresis;
unicode = 00CF;
},
{
glyphname = Idotaccent;
lastChange = "2015-12-01 01:57:21 +0000";
layers = (
{
layerId = "A000C7A9-5E22-4BBF-9975-052AE6D21EBD";
name = Bold;
paths = (
{
closed = 1;
nodes = (
"272 0 LINE",
"272 699 LINE",
"35 699 LINE",
"35 0 LINE"
);
},
{
closed = 1;
nodes = (
"202 742 OFFCURVE",
"241 780 OFFCURVE",
"241 829 CURVE SMOOTH",
"241 878 OFFCURVE",
"202 917 OFFCURVE",
"154 917 CURVE SMOOTH",
"107 917 OFFCURVE",
"66 878 OFFCURVE",
"66 829 CURVE SMOOTH",
"66 780 OFFCURVE",
"107 742 OFFCURVE",
"154 742 CURVE SMOOTH"
);
}
);
width = 307;
}
);
note = Idotaccent;
unicode = 0130;
},
{
glyphname = Idotbelow;
lastChange = "2015-12-01 01:57:21 +0000";
layers = (
{
layerId = "A000C7A9-5E22-4BBF-9975-052AE6D21EBD";
name = Bold;
paths = (
{
closed = 1;
nodes = (
"272 0 LINE",
"272 699 LINE",
"35 699 LINE",
"35 0 LINE"
);
},
{
closed = 1;
nodes = (
"202 -220 OFFCURVE",
"241 -182 OFFCURVE",
"241 -133 CURVE SMOOTH",
"241 -84 OFFCURVE",
"202 -45 OFFCURVE",
"154 -45 CURVE SMOOTH",
"107 -45 OFFCURVE",
"66 -84 OFFCURVE",
"66 -133 CURVE SMOOTH",
"66 -182 OFFCURVE",
"107 -220 OFFCURVE",
"154 -220 CURVE SMOOTH"
);
}
);
width = 307;
}
);
note = Idotbelow;
unicode = 1ECA;
},
{
glyphname = Igrave;
lastChange = "2015-12-01 01:57:22 +0000";
layers = (
{
layerId = "A000C7A9-5E22-4BBF-9975-052AE6D21EBD";
name = Bold;
paths = (
{
closed = 1;
nodes = (
"272 0 LINE",
"272 699 LINE",
"35 699 LINE",
"35 0 LINE"
);
},
{
closed = 1;
nodes = (
"249 742 LINE",
"181 923 LINE",
"-36 923 LINE",
"59 742 LINE"
);
}
);
width = 307;
}
);
note = Igrave;
unicode = 00CC;
},
{
glyphname = Ihookabove;
lastChange = "2015-12-01 01:57:21 +0000";
layers = (
{
layerId = "A000C7A9-5E22-4BBF-9975-052AE6D21EBD";
name = Bold;
paths = (
{
closed = 1;
nodes = (
"272 0 LINE",
"272 699 LINE",
"35 699 LINE",
"35 0 LINE"
);
},
{
closed = 1;
nodes = (
"247 742 LINE",
"247 782 LINE",
"300 798 OFFCURVE",
"338 825 OFFCURVE",
"338 877 CURVE SMOOTH",
"338 940 OFFCURVE",
"280 981 OFFCURVE",
"161 981 CURVE SMOOTH",
"117 981 OFFCURVE",
"54 972 OFFCURVE",
"20 962 CURVE",
"20 877 LINE",
"33 881 OFFCURVE",
"57 886 OFFCURVE",
"77 886 CURVE SMOOTH",
"118 886 OFFCURVE",
"136 876 OFFCURVE",
"136 854 CURVE SMOOTH",
"136 827 OFFCURVE",
"116 816 OFFCURVE",
"60 816 CURVE",
"60 742 LINE"
);
}
);
width = 307;
}
);
note = Ihookabove;
unicode = 1EC8;
},
{
glyphname = Imacron;
lastChange = "2015-12-01 01:57:22 +0000";
layers = (
{
layerId = "A000C7A9-5E22-4BBF-9975-052AE6D21EBD";
name = Bold;
paths = (
{
closed = 1;
nodes = (
"272 0 LINE",
"272 699 LINE",
"35 699 LINE",
"35 0 LINE"
);
},
{
closed = 1;
nodes = (
"347 742 LINE",
"347 885 LINE",
"-40 885 LINE",
"-40 742 LINE"
);
}
);
width = 307;
}
);
note = Imacron;
unicode = 012A;
},
{
glyphname = Iogonek;
lastChange = "2015-12-01 01:57:22 +0000";
layers = (
{
layerId = "A000C7A9-5E22-4BBF-9975-052AE6D21EBD";
name = Bold;
paths = (
{
closed = 1;
nodes = (
"272 0 LINE",
"272 699 LINE",
"35 699 LINE",
"35 0 LINE"
);
},
{
closed = 1;
nodes = (
"173 -219 OFFCURVE",
"224 -212 OFFCURVE",
"255 -202 CURVE",
"255 -82 LINE",
"239 -90 OFFCURVE",
"222 -95 OFFCURVE",
"206 -95 CURVE SMOOTH",
"189 -95 OFFCURVE",
"180 -86 OFFCURVE",
"180 -72 CURVE SMOOTH",
"180 -45 OFFCURVE",
"202 -26 OFFCURVE",
"259 0 CURVE",
"54 0 LINE",
"12 -24 OFFCURVE",
"-15 -63 OFFCURVE",
"-15 -116 CURVE SMOOTH",
"-15 -189 OFFCURVE",
"45 -219 OFFCURVE",
"127 -219 CURVE SMOOTH"
);
}
);
width = 307;
}
);
note = Iogonek;
unicode = 012E;
},
{
glyphname = Itilde;
lastChange = "2015-12-01 01:57:21 +0000";
layers = (
{
layerId = "A000C7A9-5E22-4BBF-9975-052AE6D21EBD";
name = Bold;
paths = (
{
closed = 1;
nodes = (
"272 0 LINE",
"272 699 LINE",
"35 699 LINE",
"35 0 LINE"
);
},
{
closed = 1;
nodes = (
"301 742 OFFCURVE",
"339 753 OFFCURVE",
"365 782 CURVE",
"365 935 LINE",
"334 901 OFFCURVE",
"297 886 OFFCURVE",
"255 886 CURVE SMOOTH",
"190 886 OFFCURVE",
"119 936 OFFCURVE",
"51 936 CURVE SMOOTH",
"5 936 OFFCURVE",
"-33 925 OFFCURVE",
"-59 896 CURVE",
"-59 743 LINE",
"-28 777 OFFCURVE",
"9 792 OFFCURVE",
"51 792 CURVE SMOOTH",
"115 792 OFFCURVE",
"182 742 OFFCURVE",
"255 742 CURVE SMOOTH"
);
}
);
width = 307;
}
);
note = Itilde;
unicode = 0128;
},
{
glyphname = J;
lastChange = "2015-12-01 01:57:19 +0000";
layers = (
{
layerId = "A000C7A9-5E22-4BBF-9975-052AE6D21EBD";
name = Bold;
paths = (
{
closed = 1;
nodes = (
"299 -15 OFFCURVE",
"379 93 OFFCURVE",
"379 236 CURVE SMOOTH",
"379 699 LINE",
"142 699 LINE",
"142 263 LINE SMOOTH",
"142 215 OFFCURVE",
"118 196 OFFCURVE",
"74 196 CURVE SMOOTH",
"42 196 OFFCURVE",
"16 202 OFFCURVE",
"-5 213 CURVE",
"-5 13 LINE",
"20 -3 OFFCURVE",
"84 -15 OFFCURVE",
"130 -15 CURVE SMOOTH"
);
}
);
width = 409;
}
);
note = J;
rightKerningGroup = J;
unicode = 004A;
},
{
glyphname = Jcircumflex;
lastChange = "2015-12-01 01:57:21 +0000";
layers = (
{
layerId = "A000C7A9-5E22-4BBF-9975-052AE6D21EBD";
name = Bold;
paths = (
{
closed = 1;
nodes = (
"299 -15 OFFCURVE",
"379 93 OFFCURVE",
"379 236 CURVE SMOOTH",
"379 699 LINE",
"142 699 LINE",
"142 263 LINE SMOOTH",
"142 215 OFFCURVE",
"118 196 OFFCURVE",
"74 196 CURVE SMOOTH",
"42 196 OFFCURVE",
"16 202 OFFCURVE",
"-5 213 CURVE",
"-5 13 LINE",
"20 -3 OFFCURVE",
"84 -15 OFFCURVE",
"130 -15 CURVE SMOOTH"
);
},
{
closed = 1;
nodes = (
"191 732 LINE",
"250 812 LINE",
"309 732 LINE",
"516 732 LINE",
"351 923 LINE",
"149 923 LINE",
"-16 732 LINE"
);
}
);
width = 409;
}
);
note = Jcircumflex;
rightKerningGroup = J;
unicode = 0134;
},
{
glyphname = K;
lastChange = "2015-12-01 01:57:19 +0000";
layers = (
{
layerId = "A000C7A9-5E22-4BBF-9975-052AE6D21EBD";
name = Bold;
paths = (
{
closed = 1;
nodes = (
"272 0 LINE",
"272 274 LINE",
"480 0 LINE",
"758 0 LINE",
"478 361 LINE",
"740 699 LINE",
"468 699 LINE",
"272 446 LINE",
"272 699 LINE",
"35 699 LINE",
"35 0 LINE"
);
}
);
width = 773;
}
);
leftKerningGroup = K;
note = K;
rightKerningGroup = K;
unicode = 004B;
},
{
glyphname = Kcommaaccent;
lastChange = "2015-12-01 01:57:21 +0000";
layers = (
{
layerId = "A000C7A9-5E22-4BBF-9975-052AE6D21EBD";
name = Bold;
paths = (
{
closed = 1;
nodes = (
"272 0 LINE",
"272 274 LINE",
"480 0 LINE",
"758 0 LINE",
"478 361 LINE",
"740 699 LINE",
"468 699 LINE",
"272 446 LINE",
"272 699 LINE",
"35 699 LINE",
"35 0 LINE"
);
},
{
closed = 1;
nodes = (
"369 -259 LINE",
"480 -41 LINE",
"268 -41 LINE",
"184 -259 LINE"
);
}
);
width = 773;
}
);
leftKerningGroup = K;
note = Kcommaaccent;
rightKerningGroup = K;
unicode = 0136;
},
{
glyphname = L;
lastChange = "2015-12-01 01:57:19 +0000";
layers = (
{
layerId = "A000C7A9-5E22-4BBF-9975-052AE6D21EBD";
name = Bold;
paths = (
{
closed = 1;
nodes = (
"533 0 LINE",
"533 199 LINE",
"272 199 LINE",
"272 699 LINE",
"35 699 LINE",
"35 0 LINE"
);
}
);
width = 528;
}
);
note = L;
rightKerningGroup = L;
unicode = 004C;
},
{
glyphname = Lacute;
lastChange = "2015-12-01 01:57:21 +0000";
layers = (
{
layerId = "A000C7A9-5E22-4BBF-9975-052AE6D21EBD";
name = Bold;
paths = (
{
closed = 1;
nodes = (
"533 0 LINE",
"533 199 LINE",
"272 199 LINE",
"272 699 LINE",
"35 699 LINE",
"35 0 LINE"
);
},
{
closed = 1;
nodes = (
"245 742 LINE",
"340 923 LINE",
"123 923 LINE",
"55 742 LINE"
);
}
);
width = 528;
}
);
note = Lacute;
rightKerningGroup = L;
unicode = 0139;
},
{
glyphname = Lcaron;
lastChange = "2015-12-01 01:57:21 +0000";
layers = (
{
layerId = "A000C7A9-5E22-4BBF-9975-052AE6D21EBD";
name = Bold;
paths = (
{
closed = 1;
nodes = (
"533 0 LINE",
"533 199 LINE",
"272 199 LINE",
"272 699 LINE",
"35 699 LINE",
"35 0 LINE"
);
},
{
closed = 1;
nodes = (
"523 504 LINE",
"634 722 LINE",
"422 722 LINE",
"338 504 LINE"
);
}
);
width = 576;
}
);
note = Lcaron;
rightKerningGroup = L;
unicode = 013D;
},
{
glyphname = Lcommaaccent;
lastChange = "2015-12-01 01:57:21 +0000";
layers = (
{
layerId = "A000C7A9-5E22-4BBF-9975-052AE6D21EBD";
name = Bold;
paths = (
{
closed = 1;
nodes = (
"533 0 LINE",
"533 199 LINE",
"272 199 LINE",
"272 699 LINE",
"35 699 LINE",
"35 0 LINE"
);
},
{
closed = 1;
nodes = (
"314 -259 LINE",
"425 -41 LINE",
"213 -41 LINE",
"129 -259 LINE"
);
}
);
width = 528;
}
);
note = Lcommaaccent;
rightKerningGroup = L;
unicode = 013B;
},
{
glyphname = Ldot;
lastChange = "2015-12-01 01:57:21 +0000";
layers = (
{
layerId = "A000C7A9-5E22-4BBF-9975-052AE6D21EBD";
name = Bold;
paths = (
{
closed = 1;
nodes = (
"533 0 LINE",
"533 199 LINE",
"272 199 LINE",
"272 699 LINE",
"35 699 LINE",
"35 0 LINE"
);
},
{
closed = 1;
nodes = (
"465 316 OFFCURVE",
"504 354 OFFCURVE",
"504 403 CURVE SMOOTH",
"504 452 OFFCURVE",
"465 491 OFFCURVE",
"417 491 CURVE SMOOTH",
"370 491 OFFCURVE",
"329 452 OFFCURVE",
"329 403 CURVE SMOOTH",
"329 354 OFFCURVE",
"370 316 OFFCURVE",
"417 316 CURVE SMOOTH"
);
}
);
width = 528;
}
);
note = Ldot;
rightKerningGroup = L;
unicode = 013F;
},
{
glyphname = Ldotbelow;
lastChange = "2015-12-01 01:57:22 +0000";
layers = (
{
layerId = "A000C7A9-5E22-4BBF-9975-052AE6D21EBD";
name = Bold;
paths = (
{
closed = 1;
nodes = (
"533 0 LINE",
"533 199 LINE",
"272 199 LINE",
"272 699 LINE",
"35 699 LINE",
"35 0 LINE"
);
},
{
closed = 1;
nodes = (
"323 -220 OFFCURVE",
"362 -182 OFFCURVE",
"362 -133 CURVE SMOOTH",
"362 -84 OFFCURVE",
"323 -45 OFFCURVE",
"275 -45 CURVE SMOOTH",
"228 -45 OFFCURVE",
"187 -84 OFFCURVE",
"187 -133 CURVE SMOOTH",
"187 -182 OFFCURVE",
"228 -220 OFFCURVE",
"275 -220 CURVE SMOOTH"
);
}
);
width = 528;
}
);
note = Ldotbelow;
rightKerningGroup = L;
unicode = 1E36;
},
{
glyphname = Ldotbelowmacron;
lastChange = "2015-12-01 01:57:21 +0000";
layers = (
{
layerId = "A000C7A9-5E22-4BBF-9975-052AE6D21EBD";
name = Bold;
paths = (
{
closed = 1;
nodes = (
"554 0 LINE",
"554 199 LINE",
"293 199 LINE",
"293 699 LINE",
"56 699 LINE",
"56 0 LINE"
);
},
{
closed = 1;
nodes = (
"342 -220 OFFCURVE",
"381 -182 OFFCURVE",
"381 -133 CURVE SMOOTH",
"381 -84 OFFCURVE",
"342 -45 OFFCURVE",
"294 -45 CURVE SMOOTH",
"247 -45 OFFCURVE",
"206 -84 OFFCURVE",
"206 -133 CURVE SMOOTH",
"206 -182 OFFCURVE",
"247 -220 OFFCURVE",
"294 -220 CURVE SMOOTH"
);
},
{
closed = 1;
nodes = (
"362 752 LINE",
"362 895 LINE",
"-5 895 LINE",
"-5 752 LINE"
);
}
);
width = 549;
}
);
note = Ldotbelowmacron;
rightKerningGroup = L;
unicode = 1E38;
},
{
glyphname = Llinebelow;
lastChange = "2015-12-01 01:57:22 +0000";
layers = (
{
layerId = "A000C7A9-5E22-4BBF-9975-052AE6D21EBD";
name = Bold;
paths = (
{
closed = 1;
nodes = (
"533 0 LINE",
"533 199 LINE",
"272 199 LINE",
"272 699 LINE",
"35 699 LINE",
"35 0 LINE"
);
},
{
closed = 1;
nodes = (
"466 -192 LINE",
"466 -49 LINE",
"99 -49 LINE",
"99 -192 LINE"
);
}
);
width = 528;
}
);
note = Llinebelow;
rightKerningGroup = L;
unicode = 1E3A;
},
{
glyphname = Lslash;
lastChange = "2015-12-01 01:57:21 +0000";
layers = (
{
layerId = "A000C7A9-5E22-4BBF-9975-052AE6D21EBD";
name = Bold;
paths = (
{
closed = 1;
nodes = (
"533 0 LINE",
"533 199 LINE",
"272 199 LINE",
"272 699 LINE",
"35 699 LINE",
"35 0 LINE"
);
},
{
closed = 1;
nodes = (
"391 389 LINE",
"391 607 LINE",
"-25 421 LINE",
"-25 203 LINE"
);
}
);
width = 528;
}
);
note = Lslash;
rightKerningGroup = L;
unicode = 0141;
},
{
glyphname = M;
lastChange = "2015-12-01 01:57:19 +0000";
layers = (
{
layerId = "A000C7A9-5E22-4BBF-9975-052AE6D21EBD";
name = Bold;
paths = (
{
closed = 1;
nodes = (
"254 0 LINE",
"254 259 LINE",
"383 0 LINE",
"459 0 LINE",
"588 259 LINE",
"588 0 LINE",
"807 0 LINE",
"807 699 LINE",
"598 699 LINE",
"421 329 LINE",
"244 699 LINE",
"35 699 LINE",
"35 0 LINE"
);
}
);
width = 842;
}
);
note = M;
unicode = 004D;
},
{
glyphname = Mdotbelow;
lastChange = "2015-12-01 01:57:21 +0000";
layers = (
{
layerId = "A000C7A9-5E22-4BBF-9975-052AE6D21EBD";
name = Bold;
paths = (
{
closed = 1;
nodes = (
"254 0 LINE",
"254 259 LINE",
"383 0 LINE",
"459 0 LINE",
"588 259 LINE",
"588 0 LINE",
"807 0 LINE",
"807 699 LINE",
"598 699 LINE",
"421 329 LINE",
"244 699 LINE",
"35 699 LINE",
"35 0 LINE"
);
},
{
closed = 1;
nodes = (
"470 -220 OFFCURVE",
"509 -182 OFFCURVE",
"509 -133 CURVE SMOOTH",
"509 -84 OFFCURVE",
"470 -45 OFFCURVE",
"422 -45 CURVE SMOOTH",
"375 -45 OFFCURVE",
"334 -84 OFFCURVE",
"334 -133 CURVE SMOOTH",
"334 -182 OFFCURVE",
"375 -220 OFFCURVE",
"422 -220 CURVE SMOOTH"
);
}
);
width = 842;
}
);
note = Mdotbelow;
unicode = 1E42;
},
{
glyphname = N;
lastChange = "2015-12-01 01:57:19 +0000";
layers = (
{
layerId = "A000C7A9-5E22-4BBF-9975-052AE6D21EBD";
name = Bold;
paths = (
{
closed = 1;
nodes = (
"262 0 LINE",
"262 326 LINE",
"470 0 LINE",
"679 0 LINE",
"679 699 LINE",
"452 699 LINE",
"452 374 LINE",
"244 699 LINE",
"35 699 LINE",
"35 0 LINE"
);
}
);
width = 714;
}
);
note = N;
unicode = 004E;
},
{
glyphname = Nacute;
lastChange = "2015-12-01 01:57:22 +0000";
layers = (
{
layerId = "A000C7A9-5E22-4BBF-9975-052AE6D21EBD";
name = Bold;
paths = (
{
closed = 1;
nodes = (
"262 0 LINE",
"262 326 LINE",
"470 0 LINE",
"679 0 LINE",
"679 699 LINE",
"452 699 LINE",
"452 374 LINE",
"244 699 LINE",
"35 699 LINE",
"35 0 LINE"
);
},
{
closed = 1;
nodes = (
"447 742 LINE",
"542 923 LINE",
"325 923 LINE",
"257 742 LINE"
);
}
);
width = 714;
}
);
note = Nacute;
unicode = 0143;
},
{
glyphname = Ncaron;
lastChange = "2015-12-01 01:57:22 +0000";
layers = (
{
layerId = "A000C7A9-5E22-4BBF-9975-052AE6D21EBD";
name = Bold;
paths = (
{
closed = 1;
nodes = (
"262 0 LINE",
"262 326 LINE",
"470 0 LINE",
"679 0 LINE",
"679 699 LINE",
"452 699 LINE",
"452 374 LINE",
"244 699 LINE",
"35 699 LINE",
"35 0 LINE"
);
},
{
closed = 1;
nodes = (
"461 742 LINE",
"626 933 LINE",
"419 933 LINE",
"360 853 LINE",
"301 933 LINE",
"94 933 LINE",
"259 742 LINE"
);
}
);
width = 714;
}
);
note = Ncaron;
unicode = 0147;
},
{
glyphname = Ncommaaccent;
lastChange = "2015-12-01 01:57:21 +0000";
layers = (
{
layerId = "A000C7A9-5E22-4BBF-9975-052AE6D21EBD";
name = Bold;
paths = (
{
closed = 1;
nodes = (
"262 0 LINE",
"262 326 LINE",
"470 0 LINE",
"679 0 LINE",
"679 699 LINE",
"452 699 LINE",
"452 374 LINE",
"244 699 LINE",
"35 699 LINE",
"35 0 LINE"
);
},
{
closed = 1;
nodes = (
"370 -259 LINE",
"481 -41 LINE",
"269 -41 LINE",
"185 -259 LINE"
);
}
);
width = 714;
}
);
note = Ncommaaccent;
unicode = 0145;
},
{
glyphname = Ndotaccent;
lastChange = "2015-12-01 01:57:21 +0000";
layers = (
{
layerId = "A000C7A9-5E22-4BBF-9975-052AE6D21EBD";
name = Bold;
paths = (
{
closed = 1;
nodes = (
"262 0 LINE",
"262 326 LINE",
"470 0 LINE",
"679 0 LINE",
"679 699 LINE",
"452 699 LINE",
"452 374 LINE",
"244 699 LINE",
"35 699 LINE",
"35 0 LINE"
);
},
{
closed = 1;
nodes = (
"406 742 OFFCURVE",
"445 780 OFFCURVE",
"445 829 CURVE SMOOTH",
"445 878 OFFCURVE",
"406 917 OFFCURVE",
"358 917 CURVE SMOOTH",
"311 917 OFFCURVE",
"270 878 OFFCURVE",
"270 829 CURVE SMOOTH",
"270 780 OFFCURVE",
"311 742 OFFCURVE",
"358 742 CURVE SMOOTH"
);
}
);
width = 714;
}
);
note = Ndotaccent;
unicode = 1E44;
},
{
glyphname = Ndotbelow;
lastChange = "2015-12-01 01:57:21 +0000";
layers = (
{
layerId = "A000C7A9-5E22-4BBF-9975-052AE6D21EBD";
name = Bold;
paths = (
{
closed = 1;
nodes = (
"262 0 LINE",
"262 326 LINE",
"470 0 LINE",
"679 0 LINE",
"679 699 LINE",
"452 699 LINE",
"452 374 LINE",
"244 699 LINE",
"35 699 LINE",
"35 0 LINE"
);
},
{
closed = 1;
nodes = (
"406 -220 OFFCURVE",
"445 -182 OFFCURVE",
"445 -133 CURVE SMOOTH",
"445 -84 OFFCURVE",
"406 -45 OFFCURVE",
"358 -45 CURVE SMOOTH",
"311 -45 OFFCURVE",
"270 -84 OFFCURVE",
"270 -133 CURVE SMOOTH",
"270 -182 OFFCURVE",
"311 -220 OFFCURVE",
"358 -220 CURVE SMOOTH"
);
}
);
width = 714;
}
);
note = Ndotbelow;
unicode = 1E46;
},
{
glyphname = Eng;
lastChange = "2015-12-01 01:57:22 +0000";
layers = (
{
layerId = "A000C7A9-5E22-4BBF-9975-052AE6D21EBD";
name = Bold;
paths = (
{
closed = 1;
nodes = (
"262 0 LINE",
"262 326 LINE",
"470 0 LINE",
"679 0 LINE",
"679 699 LINE",
"452 699 LINE",
"452 374 LINE",
"244 699 LINE",
"35 699 LINE",
"35 0 LINE"
);
},
{
closed = 1;
nodes = (
"568 -231 OFFCURVE",
"679 -163 OFFCURVE",
"679 -15 CURVE SMOOTH",
"679 480 LINE",
"454 480 LINE",
"454 13 LINE SMOOTH",
"454 -30 OFFCURVE",
"427 -48 OFFCURVE",
"392 -48 CURVE SMOOTH",
"360 -48 OFFCURVE",
"338 -42 OFFCURVE",
"317 -31 CURVE",
"317 -210 LINE",
"344 -223 OFFCURVE",
"380 -231 OFFCURVE",
"426 -231 CURVE SMOOTH"
);
}
);
width = 714;
}
);
note = Eng;
unicode = 014A;
},
{
glyphname = Nlinebelow;
lastChange = "2015-12-01 01:57:21 +0000";
layers = (
{
layerId = "A000C7A9-5E22-4BBF-9975-052AE6D21EBD";
name = Bold;
paths = (
{
closed = 1;
nodes = (
"262 0 LINE",
"262 326 LINE",
"470 0 LINE",
"679 0 LINE",
"679 699 LINE",
"452 699 LINE",
"452 374 LINE",
"244 699 LINE",
"35 699 LINE",
"35 0 LINE"
);
},
{
closed = 1;
nodes = (
"541 -192 LINE",
"541 -49 LINE",
"174 -49 LINE",
"174 -192 LINE"
);
}
);
width = 714;
}
);
note = Nlinebelow;
unicode = 1E48;
},
{
glyphname = Ntilde;
lastChange = "2015-12-01 01:57:21 +0000";
layers = (
{
layerId = "A000C7A9-5E22-4BBF-9975-052AE6D21EBD";
name = Bold;
paths = (
{
closed = 1;
nodes = (
"262 0 LINE",
"262 326 LINE",
"470 0 LINE",
"679 0 LINE",
"679 699 LINE",
"452 699 LINE",
"452 374 LINE",
"244 699 LINE",
"35 699 LINE",
"35 0 LINE"
);
},
{
closed = 1;
nodes = (
"511 742 OFFCURVE",
"549 753 OFFCURVE",
"575 782 CURVE",
"575 935 LINE",
"544 901 OFFCURVE",
"507 886 OFFCURVE",
"465 886 CURVE SMOOTH",
"400 886 OFFCURVE",
"329 936 OFFCURVE",
"261 936 CURVE SMOOTH",
"215 936 OFFCURVE",
"177 925 OFFCURVE",
"151 896 CURVE",
"151 743 LINE",
"182 777 OFFCURVE",
"219 792 OFFCURVE",
"261 792 CURVE SMOOTH",
"325 792 OFFCURVE",
"392 742 OFFCURVE",
"465 742 CURVE SMOOTH"
);
}
);
width = 714;
}
);
note = Ntilde;
unicode = 00D1;
},
{
glyphname = O;
lastChange = "2015-12-01 01:57:21 +0000";
layers = (
{
layerId = "A000C7A9-5E22-4BBF-9975-052AE6D21EBD";
name = Bold;
paths = (
{
closed = 1;
nodes = (
"608 -15 OFFCURVE",
"774 131 OFFCURVE",
"774 349 CURVE SMOOTH",
"774 568 OFFCURVE",
"608 714 OFFCURVE",
"395 714 CURVE SMOOTH",
"181 714 OFFCURVE",
"15 568 OFFCURVE",
"15 349 CURVE SMOOTH",
"15 131 OFFCURVE",
"181 -15 OFFCURVE",
"395 -15 CURVE SMOOTH"
);
},
{
closed = 1;
nodes = (
"317 208 OFFCURVE",
"256 260 OFFCURVE",
"256 349 CURVE SMOOTH",
"256 437 OFFCURVE",
"316 490 OFFCURVE",
"395 490 CURVE SMOOTH",
"473 490 OFFCURVE",
"533 437 OFFCURVE",
"533 349 CURVE SMOOTH",
"533 260 OFFCURVE",
"472 208 OFFCURVE",
"395 208 CURVE SMOOTH"
);
}
);
width = 789;
}
);
leftKerningGroup = O;
note = O;
rightKerningGroup = O;
unicode = 004F;
},
{
glyphname = Oacute;
lastChange = "2015-12-01 01:57:22 +0000";
layers = (
{
layerId = "A000C7A9-5E22-4BBF-9975-052AE6D21EBD";
name = Bold;
paths = (
{
closed = 1;
nodes = (
"608 -15 OFFCURVE",
"774 131 OFFCURVE",
"774 349 CURVE SMOOTH",
"774 568 OFFCURVE",
"608 714 OFFCURVE",
"395 714 CURVE SMOOTH",
"181 714 OFFCURVE",
"15 568 OFFCURVE",
"15 349 CURVE SMOOTH",
"15 131 OFFCURVE",
"181 -15 OFFCURVE",
"395 -15 CURVE SMOOTH"
);
},
{
closed = 1;
nodes = (
"317 208 OFFCURVE",
"256 260 OFFCURVE",
"256 349 CURVE SMOOTH",
"256 437 OFFCURVE",
"316 490 OFFCURVE",
"395 490 CURVE SMOOTH",
"473 490 OFFCURVE",
"533 437 OFFCURVE",
"533 349 CURVE SMOOTH",
"533 260 OFFCURVE",
"472 208 OFFCURVE",
"395 208 CURVE SMOOTH"
);
},
{
closed = 1;
nodes = (
"471 742 LINE",
"566 923 LINE",
"349 923 LINE",
"281 742 LINE"
);
}
);
width = 789;
}
);
leftKerningGroup = O;
note = Oacute;
rightKerningGroup = O;
unicode = 00D3;
},
{
glyphname = Obreve;
lastChange = "2015-12-01 01:57:22 +0000";
layers = (
{
layerId = "A000C7A9-5E22-4BBF-9975-052AE6D21EBD";
name = Bold;
paths = (
{
closed = 1;
nodes = (
"608 -15 OFFCURVE",
"774 131 OFFCURVE",
"774 349 CURVE SMOOTH",
"774 568 OFFCURVE",
"608 714 OFFCURVE",
"395 714 CURVE SMOOTH",
"181 714 OFFCURVE",
"15 568 OFFCURVE",
"15 349 CURVE SMOOTH",
"15 131 OFFCURVE",
"181 -15 OFFCURVE",
"395 -15 CURVE SMOOTH"
);
},
{
closed = 1;
nodes = (
"317 208 OFFCURVE",
"256 260 OFFCURVE",
"256 349 CURVE SMOOTH",
"256 437 OFFCURVE",
"316 490 OFFCURVE",
"395 490 CURVE SMOOTH",
"473 490 OFFCURVE",
"533 437 OFFCURVE",
"533 349 CURVE SMOOTH",
"533 260 OFFCURVE",
"472 208 OFFCURVE",
"395 208 CURVE SMOOTH"
);
},
{
closed = 1;
nodes = (
"527 742 OFFCURVE",
"599 816 OFFCURVE",
"599 937 CURVE",
"432 937 LINE",
"432 898 OFFCURVE",
"419 879 OFFCURVE",
"394 879 CURVE SMOOTH",
"369 879 OFFCURVE",
"356 898 OFFCURVE",
"356 937 CURVE",
"189 937 LINE",
"189 816 OFFCURVE",
"261 742 OFFCURVE",
"394 742 CURVE SMOOTH"
);
}
);
width = 789;
}
);
leftKerningGroup = O;
note = Obreve;
rightKerningGroup = O;
unicode = 014E;
},
{
glyphname = Ocaron;
lastChange = "2015-12-01 01:57:22 +0000";
layers = (
{
layerId = "A000C7A9-5E22-4BBF-9975-052AE6D21EBD";
name = Bold;
paths = (
{
closed = 1;
nodes = (
"608 -15 OFFCURVE",
"774 131 OFFCURVE",
"774 349 CURVE SMOOTH",
"774 568 OFFCURVE",
"608 714 OFFCURVE",
"395 714 CURVE SMOOTH",
"181 714 OFFCURVE",
"15 568 OFFCURVE",
"15 349 CURVE SMOOTH",
"15 131 OFFCURVE",
"181 -15 OFFCURVE",
"395 -15 CURVE SMOOTH"
);
},
{
closed = 1;
nodes = (
"317 208 OFFCURVE",
"256 260 OFFCURVE",
"256 349 CURVE SMOOTH",
"256 437 OFFCURVE",
"316 490 OFFCURVE",
"395 490 CURVE SMOOTH",
"473 490 OFFCURVE",
"533 437 OFFCURVE",
"533 349 CURVE SMOOTH",
"533 260 OFFCURVE",
"472 208 OFFCURVE",
"395 208 CURVE SMOOTH"
);
},
{
closed = 1;
nodes = (
"495 742 LINE",
"660 933 LINE",
"453 933 LINE",
"394 853 LINE",
"335 933 LINE",
"128 933 LINE",
"293 742 LINE"
);
}
);
width = 789;
}
);
leftKerningGroup = O;
note = Ocaron;
rightKerningGroup = O;
unicode = 01D1;
},
{
glyphname = Ocircumflex;
lastChange = "2015-12-01 01:57:21 +0000";
layers = (
{
layerId = "A000C7A9-5E22-4BBF-9975-052AE6D21EBD";
name = Bold;
paths = (
{
closed = 1;
nodes = (
"608 -15 OFFCURVE",
"774 131 OFFCURVE",
"774 349 CURVE SMOOTH",
"774 568 OFFCURVE",
"608 714 OFFCURVE",
"395 714 CURVE SMOOTH",
"181 714 OFFCURVE",
"15 568 OFFCURVE",
"15 349 CURVE SMOOTH",
"15 131 OFFCURVE",
"181 -15 OFFCURVE",
"395 -15 CURVE SMOOTH"
);
},
{
closed = 1;
nodes = (
"317 208 OFFCURVE",
"256 260 OFFCURVE",
"256 349 CURVE SMOOTH",
"256 437 OFFCURVE",
"316 490 OFFCURVE",
"395 490 CURVE SMOOTH",
"473 490 OFFCURVE",
"533 437 OFFCURVE",
"533 349 CURVE SMOOTH",
"533 260 OFFCURVE",
"472 208 OFFCURVE",
"395 208 CURVE SMOOTH"
);
},
{
closed = 1;
nodes = (
"335 756 LINE",
"394 836 LINE",
"453 756 LINE",
"660 756 LINE",
"495 947 LINE",
"293 947 LINE",
"128 756 LINE"
);
}
);
width = 789;
}
);
leftKerningGroup = O;
note = Ocircumflex;
rightKerningGroup = O;
unicode = 00D4;
},
{
glyphname = Ocircumflexacute;
lastChange = "2015-12-01 01:57:22 +0000";
layers = (
{
layerId = "A000C7A9-5E22-4BBF-9975-052AE6D21EBD";
name = Bold;
paths = (
{
closed = 1;
nodes = (
"608 -15 OFFCURVE",
"774 131 OFFCURVE",
"774 349 CURVE SMOOTH",
"774 568 OFFCURVE",
"608 714 OFFCURVE",
"395 714 CURVE SMOOTH",
"181 714 OFFCURVE",
"15 568 OFFCURVE",
"15 349 CURVE SMOOTH",
"15 131 OFFCURVE",
"181 -15 OFFCURVE",
"395 -15 CURVE SMOOTH"
);
},
{
closed = 1;
nodes = (
"317 208 OFFCURVE",
"256 260 OFFCURVE",
"256 349 CURVE SMOOTH",
"256 437 OFFCURVE",
"316 490 OFFCURVE",
"395 490 CURVE SMOOTH",
"473 490 OFFCURVE",
"533 437 OFFCURVE",
"533 349 CURVE SMOOTH",
"533 260 OFFCURVE",
"472 208 OFFCURVE",
"395 208 CURVE SMOOTH"
);
},
{
closed = 1;
nodes = (
"347 742 LINE",
"391 792 LINE",
"435 742 LINE",
"627 742 LINE",
"462 903 LINE",
"320 903 LINE",
"155 742 LINE"
);
},
{
closed = 1;
nodes = (
"712 875 LINE",
"796 1024 LINE",
"589 1024 LINE",
"532 875 LINE"
);
}
);
width = 789;
}
);
leftKerningGroup = O;
note = Ocircumflexacute;
rightKerningGroup = O;
unicode = 1ED0;
},
{
glyphname = Ocircumflexdotbelow;
lastChange = "2015-12-01 01:59:43 +0000";
layers = (
{
layerId = "A000C7A9-5E22-4BBF-9975-052AE6D21EBD";
name = Bold;
paths = (
{
closed = 1;
nodes = (
"608 -15 OFFCURVE",
"774 131 OFFCURVE",
"774 349 CURVE SMOOTH",
"774 568 OFFCURVE",
"608 714 OFFCURVE",
"395 714 CURVE SMOOTH",
"181 714 OFFCURVE",
"15 568 OFFCURVE",
"15 349 CURVE SMOOTH",
"15 131 OFFCURVE",
"181 -15 OFFCURVE",
"395 -15 CURVE SMOOTH"
);
},
{
closed = 1;
nodes = (
"317 208 OFFCURVE",
"256 260 OFFCURVE",
"256 349 CURVE SMOOTH",
"256 437 OFFCURVE",
"316 490 OFFCURVE",
"395 490 CURVE SMOOTH",
"473 490 OFFCURVE",
"533 437 OFFCURVE",
"533 349 CURVE SMOOTH",
"533 260 OFFCURVE",
"472 208 OFFCURVE",
"395 208 CURVE SMOOTH"
);
},
{
closed = 1;
nodes = (
"335 742 LINE",
"394 822 LINE",
"453 742 LINE",
"660 742 LINE",
"495 933 LINE",
"293 933 LINE",
"128 742 LINE"
);
},
{
closed = 1;
nodes = (
"443 -220 OFFCURVE",
"482 -182 OFFCURVE",
"482 -133 CURVE SMOOTH",
"482 -84 OFFCURVE",
"443 -45 OFFCURVE",
"395 -45 CURVE SMOOTH",
"348 -45 OFFCURVE",
"307 -84 OFFCURVE",
"307 -133 CURVE SMOOTH",
"307 -182 OFFCURVE",
"348 -220 OFFCURVE",
"395 -220 CURVE SMOOTH"
);
}
);
width = 789;
}
);
leftKerningGroup = O;
note = Ocircumflexdotbelow;
rightKerningGroup = O;
unicode = 1ED8;
},
{
glyphname = Ocircumflexgrave;
lastChange = "2015-12-01 01:59:56 +0000";
layers = (
{
layerId = "A000C7A9-5E22-4BBF-9975-052AE6D21EBD";
name = Bold;
paths = (
{
closed = 1;
nodes = (
"608 -15 OFFCURVE",
"774 131 OFFCURVE",
"774 349 CURVE SMOOTH",
"774 568 OFFCURVE",
"608 714 OFFCURVE",
"395 714 CURVE SMOOTH",
"181 714 OFFCURVE",
"15 568 OFFCURVE",
"15 349 CURVE SMOOTH",
"15 131 OFFCURVE",
"181 -15 OFFCURVE",
"395 -15 CURVE SMOOTH"
);
},
{
closed = 1;
nodes = (
"317 208 OFFCURVE",
"256 260 OFFCURVE",
"256 349 CURVE SMOOTH",
"256 437 OFFCURVE",
"316 490 OFFCURVE",
"395 490 CURVE SMOOTH",
"473 490 OFFCURVE",
"533 437 OFFCURVE",
"533 349 CURVE SMOOTH",
"533 260 OFFCURVE",
"472 208 OFFCURVE",
"395 208 CURVE SMOOTH"
);
},
{
closed = 1;
nodes = (
"350 742 LINE",
"394 792 LINE",
"438 742 LINE",
"630 742 LINE",
"465 903 LINE",
"323 903 LINE",
"158 742 LINE"
);
},
{
closed = 1;
nodes = (
"257 875 LINE",
"200 1024 LINE",
"-7 1024 LINE",
"77 875 LINE"
);
}
);
width = 789;
}
);
leftKerningGroup = O;
note = Ocircumflexgrave;
rightKerningGroup = O;
unicode = 1ED2;
},
{
glyphname = Ocircumflexhookabove;
lastChange = "2015-12-01 01:57:21 +0000";
layers = (
{
layerId = "A000C7A9-5E22-4BBF-9975-052AE6D21EBD";
name = Bold;
paths = (
{
closed = 1;
nodes = (
"608 -15 OFFCURVE",
"774 131 OFFCURVE",
"774 349 CURVE SMOOTH",
"774 568 OFFCURVE",
"608 714 OFFCURVE",
"395 714 CURVE SMOOTH",
"181 714 OFFCURVE",
"15 568 OFFCURVE",
"15 349 CURVE SMOOTH",
"15 131 OFFCURVE",
"181 -15 OFFCURVE",
"395 -15 CURVE SMOOTH"
);
},
{
closed = 1;
nodes = (
"317 208 OFFCURVE",
"256 260 OFFCURVE",
"256 349 CURVE SMOOTH",
"256 437 OFFCURVE",
"316 490 OFFCURVE",
"395 490 CURVE SMOOTH",
"473 490 OFFCURVE",
"533 437 OFFCURVE",
"533 349 CURVE SMOOTH",
"533 260 OFFCURVE",
"472 208 OFFCURVE",
"395 208 CURVE SMOOTH"
);
},
{
closed = 1;
nodes = (
"357 742 LINE",
"401 792 LINE",
"445 742 LINE",
"637 742 LINE",
"472 903 LINE",
"330 903 LINE",
"165 742 LINE"
);
},
{
closed = 1;
nodes = (
"666 863 LINE",
"666 889 LINE",
"701 901 OFFCURVE",
"724 922 OFFCURVE",
"724 955 CURVE SMOOTH",
"724 1001 OFFCURVE",
"685 1032 OFFCURVE",
"604 1032 CURVE SMOOTH",
"574 1032 OFFCURVE",
"529 1026 OFFCURVE",
"505 1019 CURVE",
"505 950 LINE",
"513 954 OFFCURVE",
"527 956 OFFCURVE",
"537 956 CURVE SMOOTH",
"563 956 OFFCURVE",
"575 948 OFFCURVE",
"575 936 CURVE SMOOTH",
"575 920 OFFCURVE",
"556 915 OFFCURVE",
"529 915 CURVE",
"529 863 LINE"
);
}
);
width = 789;
}
);
leftKerningGroup = O;
note = Ocircumflexhookabove;
rightKerningGroup = O;
unicode = 1ED4;
},
{
glyphname = Ocircumflextilde;
lastChange = "2015-12-01 01:57:22 +0000";
layers = (
{
layerId = "A000C7A9-5E22-4BBF-9975-052AE6D21EBD";
name = Bold;
paths = (
{
closed = 1;
nodes = (
"608 -15 OFFCURVE",
"774 131 OFFCURVE",
"774 349 CURVE SMOOTH",
"774 568 OFFCURVE",
"608 714 OFFCURVE",
"395 714 CURVE SMOOTH",
"181 714 OFFCURVE",
"15 568 OFFCURVE",
"15 349 CURVE SMOOTH",
"15 131 OFFCURVE",
"181 -15 OFFCURVE",
"395 -15 CURVE SMOOTH"
);
},
{
closed = 1;
nodes = (
"317 208 OFFCURVE",
"256 260 OFFCURVE",
"256 349 CURVE SMOOTH",
"256 437 OFFCURVE",
"316 490 OFFCURVE",
"395 490 CURVE SMOOTH",
"473 490 OFFCURVE",
"533 437 OFFCURVE",
"533 349 CURVE SMOOTH",
"533 260 OFFCURVE",
"472 208 OFFCURVE",
"395 208 CURVE SMOOTH"
);
},
{
closed = 1;
nodes = (
"504 742 OFFCURVE",
"584 804 OFFCURVE",
"584 904 CURVE",
"445 904 LINE",
"445 872 OFFCURVE",
"429 851 OFFCURVE",
"394 851 CURVE SMOOTH",
"359 851 OFFCURVE",
"343 872 OFFCURVE",
"343 904 CURVE",
"204 904 LINE",
"204 804 OFFCURVE",
"284 742 OFFCURVE",
"394 742 CURVE SMOOTH"
);
},
{
closed = 1;
nodes = (
"513 919 OFFCURVE",
"543 928 OFFCURVE",
"564 951 CURVE",
"564 1064 LINE",
"539 1037 OFFCURVE",
"509 1025 OFFCURVE",
"476 1025 CURVE SMOOTH",
"423 1025 OFFCURVE",
"366 1065 OFFCURVE",
"311 1065 CURVE SMOOTH",
"274 1065 OFFCURVE",
"244 1056 OFFCURVE",
"223 1033 CURVE",
"223 920 LINE",
"248 947 OFFCURVE",
"278 959 OFFCURVE",
"311 959 CURVE SMOOTH",
"363 959 OFFCURVE",
"417 919 OFFCURVE",
"476 919 CURVE SMOOTH"
);
}
);
width = 789;
}
);
leftKerningGroup = O;
note = Ocircumflextilde;
rightKerningGroup = O;
unicode = 1ED6;
},
{
glyphname = Odieresis;
lastChange = "2015-12-01 01:57:21 +0000";
layers = (
{
layerId = "A000C7A9-5E22-4BBF-9975-052AE6D21EBD";
name = Bold;
paths = (
{
closed = 1;
nodes = (
"608 -15 OFFCURVE",
"774 131 OFFCURVE",
"774 349 CURVE SMOOTH",
"774 568 OFFCURVE",
"608 714 OFFCURVE",
"395 714 CURVE SMOOTH",
"181 714 OFFCURVE",
"15 568 OFFCURVE",
"15 349 CURVE SMOOTH",
"15 131 OFFCURVE",
"181 -15 OFFCURVE",
"395 -15 CURVE SMOOTH"
);
},
{
closed = 1;
nodes = (
"317 208 OFFCURVE",
"256 260 OFFCURVE",
"256 349 CURVE SMOOTH",
"256 437 OFFCURVE",
"316 490 OFFCURVE",
"395 490 CURVE SMOOTH",
"473 490 OFFCURVE",
"533 437 OFFCURVE",
"533 349 CURVE SMOOTH",
"533 260 OFFCURVE",
"472 208 OFFCURVE",
"395 208 CURVE SMOOTH"
);
},
{
closed = 1;
nodes = (
"326 752 OFFCURVE",
"365 790 OFFCURVE",
"365 839 CURVE SMOOTH",
"365 888 OFFCURVE",
"326 927 OFFCURVE",
"278 927 CURVE SMOOTH",
"231 927 OFFCURVE",
"190 888 OFFCURVE",
"190 839 CURVE SMOOTH",
"190 790 OFFCURVE",
"231 752 OFFCURVE",
"278 752 CURVE SMOOTH"
);
},
{
closed = 1;
nodes = (
"560 752 OFFCURVE",
"599 790 OFFCURVE",
"599 839 CURVE SMOOTH",
"599 888 OFFCURVE",
"560 927 OFFCURVE",
"513 927 CURVE SMOOTH",
"465 927 OFFCURVE",
"425 888 OFFCURVE",
"425 839 CURVE SMOOTH",
"425 790 OFFCURVE",
"465 752 OFFCURVE",
"513 752 CURVE SMOOTH"
);
}
);
width = 789;
}
);
leftKerningGroup = O;
note = Odieresis;
rightKerningGroup = O;
unicode = 00D6;
},
{
glyphname = Odotbelow;
lastChange = "2015-12-01 02:00:01 +0000";
layers = (
{
layerId = "A000C7A9-5E22-4BBF-9975-052AE6D21EBD";
name = Bold;
paths = (
{
closed = 1;
nodes = (
"15 131 OFFCURVE",
"181 -15 OFFCURVE",
"395 -15 CURVE SMOOTH",
"608 -15 OFFCURVE",
"774 131 OFFCURVE",
"774 349 CURVE SMOOTH",
"774 568 OFFCURVE",
"608 714 OFFCURVE",
"395 714 CURVE SMOOTH",
"181 714 OFFCURVE",
"15 568 OFFCURVE",
"15 349 CURVE SMOOTH"
);
},
{
closed = 1;
nodes = (
"256 437 OFFCURVE",
"316 490 OFFCURVE",
"395 490 CURVE SMOOTH",
"473 490 OFFCURVE",
"533 437 OFFCURVE",
"533 349 CURVE SMOOTH",
"533 260 OFFCURVE",
"472 208 OFFCURVE",
"395 208 CURVE SMOOTH",
"317 208 OFFCURVE",
"256 260 OFFCURVE",
"256 349 CURVE SMOOTH"
);
},
{
closed = 1;
nodes = (
"307 -182 OFFCURVE",
"348 -220 OFFCURVE",
"395 -220 CURVE SMOOTH",
"443 -220 OFFCURVE",
"482 -182 OFFCURVE",
"482 -133 CURVE SMOOTH",
"482 -84 OFFCURVE",
"443 -45 OFFCURVE",
"395 -45 CURVE SMOOTH",
"348 -45 OFFCURVE",
"307 -84 OFFCURVE",
"307 -133 CURVE SMOOTH"
);
}
);
width = 789;
}
);
leftKerningGroup = O;
note = Odotbelow;
rightKerningGroup = O;
unicode = 1ECC;
},
{
glyphname = Ograve;
lastChange = "2015-12-01 01:57:21 +0000";
layers = (
{
layerId = "A000C7A9-5E22-4BBF-9975-052AE6D21EBD";
name = Bold;
paths = (
{
closed = 1;
nodes = (
"608 -15 OFFCURVE",
"774 131 OFFCURVE",
"774 349 CURVE SMOOTH",
"774 568 OFFCURVE",
"608 714 OFFCURVE",
"395 714 CURVE SMOOTH",
"181 714 OFFCURVE",
"15 568 OFFCURVE",
"15 349 CURVE SMOOTH",
"15 131 OFFCURVE",
"181 -15 OFFCURVE",
"395 -15 CURVE SMOOTH"
);
},
{
closed = 1;
nodes = (
"317 208 OFFCURVE",
"256 260 OFFCURVE",
"256 349 CURVE SMOOTH",
"256 437 OFFCURVE",
"316 490 OFFCURVE",
"395 490 CURVE SMOOTH",
"473 490 OFFCURVE",
"533 437 OFFCURVE",
"533 349 CURVE SMOOTH",
"533 260 OFFCURVE",
"472 208 OFFCURVE",
"395 208 CURVE SMOOTH"
);
},
{
closed = 1;
nodes = (
"493 742 LINE",
"425 923 LINE",
"208 923 LINE",
"303 742 LINE"
);
}
);
width = 789;
}
);
leftKerningGroup = O;
note = Ograve;
rightKerningGroup = O;
unicode = 00D2;
},
{
glyphname = Ohookabove;
lastChange = "2015-12-01 01:57:21 +0000";
layers = (
{
layerId = "A000C7A9-5E22-4BBF-9975-052AE6D21EBD";
name = Bold;
paths = (
{
closed = 1;
nodes = (
"608 -15 OFFCURVE",
"774 131 OFFCURVE",
"774 349 CURVE SMOOTH",
"774 568 OFFCURVE",
"608 714 OFFCURVE",
"395 714 CURVE SMOOTH",
"181 714 OFFCURVE",
"15 568 OFFCURVE",
"15 349 CURVE SMOOTH",
"15 131 OFFCURVE",
"181 -15 OFFCURVE",
"395 -15 CURVE SMOOTH"
);
},
{
closed = 1;
nodes = (
"317 208 OFFCURVE",
"256 260 OFFCURVE",
"256 349 CURVE SMOOTH",
"256 437 OFFCURVE",
"316 490 OFFCURVE",
"395 490 CURVE SMOOTH",
"473 490 OFFCURVE",
"533 437 OFFCURVE",
"533 349 CURVE SMOOTH",
"533 260 OFFCURVE",
"472 208 OFFCURVE",
"395 208 CURVE SMOOTH"
);
},
{
closed = 1;
nodes = (
"466 742 LINE",
"466 782 LINE",
"519 798 OFFCURVE",
"557 825 OFFCURVE",
"557 877 CURVE SMOOTH",
"557 940 OFFCURVE",
"499 981 OFFCURVE",
"380 981 CURVE SMOOTH",
"336 981 OFFCURVE",
"273 972 OFFCURVE",
"239 962 CURVE",
"239 877 LINE",
"252 881 OFFCURVE",
"276 886 OFFCURVE",
"296 886 CURVE SMOOTH",
"337 886 OFFCURVE",
"355 876 OFFCURVE",
"355 854 CURVE SMOOTH",
"355 827 OFFCURVE",
"335 816 OFFCURVE",
"279 816 CURVE",
"279 742 LINE"
);
}
);
width = 789;
}
);
leftKerningGroup = O;
note = Ohookabove;
rightKerningGroup = O;
unicode = 1ECE;
},
{
glyphname = Ohorn;
lastChange = "2015-12-01 01:57:21 +0000";
layers = (
{
layerId = "A000C7A9-5E22-4BBF-9975-052AE6D21EBD";
name = Bold;
paths = (
{
closed = 1;
nodes = (
"608 -15 OFFCURVE",
"774 131 OFFCURVE",
"774 349 CURVE SMOOTH",
"774 400 OFFCURVE",
"764 447 OFFCURVE",
"748 490 CURVE",
"865 508 OFFCURVE",
"924 592 OFFCURVE",
"924 700 CURVE SMOOTH",
"924 747 LINE",
"745 747 LINE",
"745 715 LINE SMOOTH",
"745 666 OFFCURVE",
"721 633 OFFCURVE",
"641 633 CURVE",
"575 685 OFFCURVE",
"490 714 OFFCURVE",
"395 714 CURVE SMOOTH",
"181 714 OFFCURVE",
"15 568 OFFCURVE",
"15 349 CURVE SMOOTH",
"15 131 OFFCURVE",
"181 -15 OFFCURVE",
"395 -15 CURVE SMOOTH"
);
},
{
closed = 1;
nodes = (
"317 208 OFFCURVE",
"256 260 OFFCURVE",
"256 349 CURVE SMOOTH",
"256 437 OFFCURVE",
"316 490 OFFCURVE",
"395 490 CURVE SMOOTH",
"473 490 OFFCURVE",
"533 437 OFFCURVE",
"533 349 CURVE SMOOTH",
"533 260 OFFCURVE",
"472 208 OFFCURVE",
"395 208 CURVE SMOOTH"
);
}
);
width = 919;
}
);
leftKerningGroup = O;
note = Ohorn;
rightKerningGroup = O;
unicode = 01A0;
},
{
glyphname = Ohornacute;
lastChange = "2015-12-01 01:57:22 +0000";
layers = (
{
layerId = "A000C7A9-5E22-4BBF-9975-052AE6D21EBD";
name = Bold;
paths = (
{
closed = 1;
nodes = (
"608 -15 OFFCURVE",
"774 131 OFFCURVE",
"774 349 CURVE SMOOTH",
"774 400 OFFCURVE",
"764 447 OFFCURVE",
"748 490 CURVE",
"865 508 OFFCURVE",
"924 592 OFFCURVE",
"924 700 CURVE SMOOTH",
"924 747 LINE",
"745 747 LINE",
"745 715 LINE SMOOTH",
"745 666 OFFCURVE",
"721 633 OFFCURVE",
"641 633 CURVE",
"575 685 OFFCURVE",
"490 714 OFFCURVE",
"395 714 CURVE SMOOTH",
"181 714 OFFCURVE",
"15 568 OFFCURVE",
"15 349 CURVE SMOOTH",
"15 131 OFFCURVE",
"181 -15 OFFCURVE",
"395 -15 CURVE SMOOTH"
);
},
{
closed = 1;
nodes = (
"317 208 OFFCURVE",
"256 260 OFFCURVE",
"256 349 CURVE SMOOTH",
"256 437 OFFCURVE",
"316 490 OFFCURVE",
"395 490 CURVE SMOOTH",
"473 490 OFFCURVE",
"533 437 OFFCURVE",
"533 349 CURVE SMOOTH",
"533 260 OFFCURVE",
"472 208 OFFCURVE",
"395 208 CURVE SMOOTH"
);
},
{
closed = 1;
nodes = (
"494 742 LINE",
"589 923 LINE",
"372 923 LINE",
"304 742 LINE"
);
}
);
width = 919;
}
);
leftKerningGroup = O;
note = Ohornacute;
rightKerningGroup = O;
unicode = 1EDA;
},
{
glyphname = Ohorndotbelow;
lastChange = "2015-12-01 02:00:06 +0000";
layers = (
{
layerId = "A000C7A9-5E22-4BBF-9975-052AE6D21EBD";
name = Bold;
paths = (
{
closed = 1;
nodes = (
"15 131 OFFCURVE",
"181 -15 OFFCURVE",
"395 -15 CURVE SMOOTH",
"608 -15 OFFCURVE",
"774 131 OFFCURVE",
"774 349 CURVE SMOOTH",
"774 400 OFFCURVE",
"764 447 OFFCURVE",
"748 490 CURVE",
"865 508 OFFCURVE",
"924 592 OFFCURVE",
"924 700 CURVE SMOOTH",
"924 747 LINE",
"745 747 LINE",
"745 715 LINE SMOOTH",
"745 666 OFFCURVE",
"721 633 OFFCURVE",
"641 633 CURVE",
"575 685 OFFCURVE",
"490 714 OFFCURVE",
"395 714 CURVE SMOOTH",
"181 714 OFFCURVE",
"15 568 OFFCURVE",
"15 349 CURVE SMOOTH"
);
},
{
closed = 1;
nodes = (
"256 437 OFFCURVE",
"316 490 OFFCURVE",
"395 490 CURVE SMOOTH",
"473 490 OFFCURVE",
"533 437 OFFCURVE",
"533 349 CURVE SMOOTH",
"533 260 OFFCURVE",
"472 208 OFFCURVE",
"395 208 CURVE SMOOTH",
"317 208 OFFCURVE",
"256 260 OFFCURVE",
"256 349 CURVE SMOOTH"
);
},
{
closed = 1;
nodes = (
"314 -182 OFFCURVE",
"355 -220 OFFCURVE",
"402 -220 CURVE SMOOTH",
"450 -220 OFFCURVE",
"489 -182 OFFCURVE",
"489 -133 CURVE SMOOTH",
"489 -84 OFFCURVE",
"450 -45 OFFCURVE",
"402 -45 CURVE SMOOTH",
"355 -45 OFFCURVE",
"314 -84 OFFCURVE",
"314 -133 CURVE SMOOTH"
);
}
);
width = 919;
}
);
leftKerningGroup = O;
note = Ohorndotbelow;
rightKerningGroup = O;
unicode = 1EE2;
},
{
glyphname = Ohorngrave;
lastChange = "2015-12-01 01:57:22 +0000";
layers = (
{
layerId = "A000C7A9-5E22-4BBF-9975-052AE6D21EBD";
name = Bold;
paths = (
{
closed = 1;
nodes = (
"608 -15 OFFCURVE",
"774 131 OFFCURVE",
"774 349 CURVE SMOOTH",
"774 400 OFFCURVE",
"764 447 OFFCURVE",
"748 490 CURVE",
"865 508 OFFCURVE",
"924 592 OFFCURVE",
"924 700 CURVE SMOOTH",
"924 747 LINE",
"745 747 LINE",
"745 715 LINE SMOOTH",
"745 666 OFFCURVE",
"721 633 OFFCURVE",
"641 633 CURVE",
"575 685 OFFCURVE",
"490 714 OFFCURVE",
"395 714 CURVE SMOOTH",
"181 714 OFFCURVE",
"15 568 OFFCURVE",
"15 349 CURVE SMOOTH",
"15 131 OFFCURVE",
"181 -15 OFFCURVE",
"395 -15 CURVE SMOOTH"
);
},
{
closed = 1;
nodes = (
"317 208 OFFCURVE",
"256 260 OFFCURVE",
"256 349 CURVE SMOOTH",
"256 437 OFFCURVE",
"316 490 OFFCURVE",
"395 490 CURVE SMOOTH",
"473 490 OFFCURVE",
"533 437 OFFCURVE",
"533 349 CURVE SMOOTH",
"533 260 OFFCURVE",
"472 208 OFFCURVE",
"395 208 CURVE SMOOTH"
);
},
{
closed = 1;
nodes = (
"481 742 LINE",
"413 923 LINE",
"196 923 LINE",
"291 742 LINE"
);
}
);
width = 919;
}
);
leftKerningGroup = O;
note = Ohorngrave;
rightKerningGroup = O;
unicode = 1EDC;
},
{
glyphname = Ohornhookabove;
lastChange = "2015-12-01 01:57:21 +0000";
layers = (
{
layerId = "A000C7A9-5E22-4BBF-9975-052AE6D21EBD";
name = Bold;
paths = (
{
closed = 1;
nodes = (
"608 -15 OFFCURVE",
"774 131 OFFCURVE",
"774 349 CURVE SMOOTH",
"774 400 OFFCURVE",
"764 447 OFFCURVE",
"748 490 CURVE",
"865 508 OFFCURVE",
"924 592 OFFCURVE",
"924 700 CURVE SMOOTH",
"924 747 LINE",
"745 747 LINE",
"745 715 LINE SMOOTH",
"745 666 OFFCURVE",
"721 633 OFFCURVE",
"641 633 CURVE",
"575 685 OFFCURVE",
"490 714 OFFCURVE",
"395 714 CURVE SMOOTH",
"181 714 OFFCURVE",
"15 568 OFFCURVE",
"15 349 CURVE SMOOTH",
"15 131 OFFCURVE",
"181 -15 OFFCURVE",
"395 -15 CURVE SMOOTH"
);
},
{
closed = 1;
nodes = (
"317 208 OFFCURVE",
"256 260 OFFCURVE",
"256 349 CURVE SMOOTH",
"256 437 OFFCURVE",
"316 490 OFFCURVE",
"395 490 CURVE SMOOTH",
"473 490 OFFCURVE",
"533 437 OFFCURVE",
"533 349 CURVE SMOOTH",
"533 260 OFFCURVE",
"472 208 OFFCURVE",
"395 208 CURVE SMOOTH"
);
},
{
closed = 1;
nodes = (
"483 742 LINE",
"483 782 LINE",
"536 798 OFFCURVE",
"574 825 OFFCURVE",
"574 877 CURVE SMOOTH",
"574 940 OFFCURVE",
"516 981 OFFCURVE",
"397 981 CURVE SMOOTH",
"353 981 OFFCURVE",
"290 972 OFFCURVE",
"256 962 CURVE",
"256 877 LINE",
"269 881 OFFCURVE",
"293 886 OFFCURVE",
"313 886 CURVE SMOOTH",
"354 886 OFFCURVE",
"372 876 OFFCURVE",
"372 854 CURVE SMOOTH",
"372 827 OFFCURVE",
"352 816 OFFCURVE",
"296 816 CURVE",
"296 742 LINE"
);
}
);
width = 919;
}
);
leftKerningGroup = O;
note = Ohornhookabove;
rightKerningGroup = O;
unicode = 1EDE;
},
{
glyphname = Ohorntilde;
lastChange = "2015-12-01 01:57:21 +0000";
layers = (
{
layerId = "A000C7A9-5E22-4BBF-9975-052AE6D21EBD";
name = Bold;
paths = (
{
closed = 1;
nodes = (
"608 -15 OFFCURVE",
"774 131 OFFCURVE",
"774 349 CURVE SMOOTH",
"774 400 OFFCURVE",
"764 447 OFFCURVE",
"748 490 CURVE",
"865 508 OFFCURVE",
"924 592 OFFCURVE",
"924 700 CURVE SMOOTH",
"924 747 LINE",
"745 747 LINE",
"745 715 LINE SMOOTH",
"745 666 OFFCURVE",
"721 633 OFFCURVE",
"641 633 CURVE",
"575 685 OFFCURVE",
"490 714 OFFCURVE",
"395 714 CURVE SMOOTH",
"181 714 OFFCURVE",
"15 568 OFFCURVE",
"15 349 CURVE SMOOTH",
"15 131 OFFCURVE",
"181 -15 OFFCURVE",
"395 -15 CURVE SMOOTH"
);
},
{
closed = 1;
nodes = (
"317 208 OFFCURVE",
"256 260 OFFCURVE",
"256 349 CURVE SMOOTH",
"256 437 OFFCURVE",
"316 490 OFFCURVE",
"395 490 CURVE SMOOTH",
"473 490 OFFCURVE",
"533 437 OFFCURVE",
"533 349 CURVE SMOOTH",
"533 260 OFFCURVE",
"472 208 OFFCURVE",
"395 208 CURVE SMOOTH"
);
},
{
closed = 1;
nodes = (
"567 742 OFFCURVE",
"605 753 OFFCURVE",
"631 782 CURVE",
"631 935 LINE",
"600 901 OFFCURVE",
"563 886 OFFCURVE",
"521 886 CURVE SMOOTH",
"456 886 OFFCURVE",
"385 936 OFFCURVE",
"317 936 CURVE SMOOTH",
"271 936 OFFCURVE",
"233 925 OFFCURVE",
"207 896 CURVE",
"207 743 LINE",
"238 777 OFFCURVE",
"275 792 OFFCURVE",
"317 792 CURVE SMOOTH",
"381 792 OFFCURVE",
"448 742 OFFCURVE",
"521 742 CURVE SMOOTH"
);
}
);
width = 919;
}
);
leftKerningGroup = O;
note = Ohorntilde;
rightKerningGroup = O;
unicode = 1EE0;
},
{
glyphname = Ohungarumlaut;
lastChange = "2015-12-01 01:57:22 +0000";
layers = (
{
layerId = "A000C7A9-5E22-4BBF-9975-052AE6D21EBD";
name = Bold;
paths = (
{
closed = 1;
nodes = (
"608 -15 OFFCURVE",
"774 131 OFFCURVE",
"774 349 CURVE SMOOTH",
"774 568 OFFCURVE",
"608 714 OFFCURVE",
"395 714 CURVE SMOOTH",
"181 714 OFFCURVE",
"15 568 OFFCURVE",
"15 349 CURVE SMOOTH",
"15 131 OFFCURVE",
"181 -15 OFFCURVE",
"395 -15 CURVE SMOOTH"
);
},
{
closed = 1;
nodes = (
"317 208 OFFCURVE",
"256 260 OFFCURVE",
"256 349 CURVE SMOOTH",
"256 437 OFFCURVE",
"316 490 OFFCURVE",
"395 490 CURVE SMOOTH",
"473 490 OFFCURVE",
"533 437 OFFCURVE",
"533 349 CURVE SMOOTH",
"533 260 OFFCURVE",
"472 208 OFFCURVE",
"395 208 CURVE SMOOTH"
);
},
{
closed = 1;
nodes = (
"336 742 LINE",
"431 923 LINE",
"214 923 LINE",
"146 742 LINE"
);
},
{
closed = 1;
nodes = (
"616 742 LINE",
"711 923 LINE",
"494 923 LINE",
"426 742 LINE"
);
}
);
width = 789;
}
);
leftKerningGroup = O;
note = Ohungarumlaut;
rightKerningGroup = O;
unicode = 0150;
},
{
glyphname = Omacron;
lastChange = "2015-12-01 01:57:22 +0000";
layers = (
{
layerId = "A000C7A9-5E22-4BBF-9975-052AE6D21EBD";
name = Bold;
paths = (
{
closed = 1;
nodes = (
"608 -15 OFFCURVE",
"774 131 OFFCURVE",
"774 349 CURVE SMOOTH",
"774 568 OFFCURVE",
"608 714 OFFCURVE",
"395 714 CURVE SMOOTH",
"181 714 OFFCURVE",
"15 568 OFFCURVE",
"15 349 CURVE SMOOTH",
"15 131 OFFCURVE",
"181 -15 OFFCURVE",
"395 -15 CURVE SMOOTH"
);
},
{
closed = 1;
nodes = (
"317 208 OFFCURVE",
"256 260 OFFCURVE",
"256 349 CURVE SMOOTH",
"256 437 OFFCURVE",
"316 490 OFFCURVE",
"395 490 CURVE SMOOTH",
"473 490 OFFCURVE",
"533 437 OFFCURVE",
"533 349 CURVE SMOOTH",
"533 260 OFFCURVE",
"472 208 OFFCURVE",
"395 208 CURVE SMOOTH"
);
},
{
closed = 1;
nodes = (
"578 742 LINE",
"578 885 LINE",
"211 885 LINE",
"211 742 LINE"
);
}
);
width = 789;
}
);
leftKerningGroup = O;
note = Omacron;
rightKerningGroup = O;
unicode = 014C;
},
{
glyphname = Oslash;
lastChange = "2015-12-01 01:57:21 +0000";
layers = (
{
layerId = "A000C7A9-5E22-4BBF-9975-052AE6D21EBD";
name = Bold;
paths = (
{
closed = 1;
nodes = (
"271 -86 LINE",
"303 -5 LINE",
"332 -11 OFFCURVE",
"363 -15 OFFCURVE",
"395 -15 CURVE SMOOTH",
"608 -15 OFFCURVE",
"774 131 OFFCURVE",
"774 349 CURVE SMOOTH",
"774 500 OFFCURVE",
"695 616 OFFCURVE",
"576 673 CURVE",
"621 784 LINE",
"510 784 LINE",
"479 706 LINE",
"452 711 OFFCURVE",
"424 714 OFFCURVE",
"395 714 CURVE SMOOTH",
"181 714 OFFCURVE",
"15 568 OFFCURVE",
"15 349 CURVE SMOOTH",
"15 201 OFFCURVE",
"91 86 OFFCURVE",
"206 28 CURVE",
"161 -86 LINE"
);
},
{
closed = 1;
nodes = (
"270 271 OFFCURVE",
"256 305 OFFCURVE",
"256 349 CURVE SMOOTH",
"256 436 OFFCURVE",
"314 488 OFFCURVE",
"392 490 CURVE",
"294 247 LINE"
);
},
{
closed = 1;
nodes = (
"489 456 LINE",
"516 431 OFFCURVE",
"533 395 OFFCURVE",
"533 349 CURVE SMOOTH",
"533 260 OFFCURVE",
"472 208 OFFCURVE",
"395 208 CURVE SMOOTH",
"389 208 LINE"
);
}
);
width = 789;
}
);
leftKerningGroup = O;
note = Oslash;
rightKerningGroup = O;
unicode = 00D8;
},
{
glyphname = Oslashacute;
lastChange = "2015-12-01 02:00:26 +0000";
layers = (
{
layerId = "A000C7A9-5E22-4BBF-9975-052AE6D21EBD";
name = Bold;
paths = (
{
closed = 1;
nodes = (
"271 -86 LINE",
"303 -5 LINE",
"332 -11 OFFCURVE",
"363 -15 OFFCURVE",
"395 -15 CURVE SMOOTH",
"608 -15 OFFCURVE",
"774 131 OFFCURVE",
"774 349 CURVE SMOOTH",
"774 500 OFFCURVE",
"695 616 OFFCURVE",
"576 673 CURVE",
"621 784 LINE",
"510 784 LINE",
"479 706 LINE",
"452 711 OFFCURVE",
"424 714 OFFCURVE",
"395 714 CURVE SMOOTH",
"181 714 OFFCURVE",
"15 568 OFFCURVE",
"15 349 CURVE SMOOTH",
"15 201 OFFCURVE",
"91 86 OFFCURVE",
"206 28 CURVE",
"161 -86 LINE"
);
},
{
closed = 1;
nodes = (
"270 271 OFFCURVE",
"256 305 OFFCURVE",
"256 349 CURVE SMOOTH",
"256 436 OFFCURVE",
"314 488 OFFCURVE",
"392 490 CURVE",
"294 247 LINE"
);
},
{
closed = 1;
nodes = (
"489 456 LINE",
"516 431 OFFCURVE",
"533 395 OFFCURVE",
"533 349 CURVE SMOOTH",
"533 260 OFFCURVE",
"472 208 OFFCURVE",
"395 208 CURVE SMOOTH",
"389 208 LINE"
);
},
{
closed = 1;
nodes = (
"441 742 LINE",
"536 923 LINE",
"319 923 LINE",
"251 742 LINE"
);
}
);
width = 789;
}
);
leftKerningGroup = O;
note = Oslashacute;
rightKerningGroup = O;
unicode = 01FE;
},
{
glyphname = Otilde;
lastChange = "2015-12-01 01:57:21 +0000";
layers = (
{
layerId = "A000C7A9-5E22-4BBF-9975-052AE6D21EBD";
name = Bold;
paths = (
{
closed = 1;
nodes = (
"608 -15 OFFCURVE",
"774 131 OFFCURVE",
"774 349 CURVE SMOOTH",
"774 568 OFFCURVE",
"608 714 OFFCURVE",
"395 714 CURVE SMOOTH",
"181 714 OFFCURVE",
"15 568 OFFCURVE",
"15 349 CURVE SMOOTH",
"15 131 OFFCURVE",
"181 -15 OFFCURVE",
"395 -15 CURVE SMOOTH"
);
},
{
closed = 1;
nodes = (
"317 208 OFFCURVE",
"256 260 OFFCURVE",
"256 349 CURVE SMOOTH",
"256 437 OFFCURVE",
"316 490 OFFCURVE",
"395 490 CURVE SMOOTH",
"473 490 OFFCURVE",
"533 437 OFFCURVE",
"533 349 CURVE SMOOTH",
"533 260 OFFCURVE",
"472 208 OFFCURVE",
"395 208 CURVE SMOOTH"
);
},
{
closed = 1;
nodes = (
"542 754 OFFCURVE",
"580 765 OFFCURVE",
"606 794 CURVE",
"606 947 LINE",
"575 913 OFFCURVE",
"538 898 OFFCURVE",
"496 898 CURVE SMOOTH",
"431 898 OFFCURVE",
"360 948 OFFCURVE",
"292 948 CURVE SMOOTH",
"246 948 OFFCURVE",
"208 937 OFFCURVE",
"182 908 CURVE",
"182 755 LINE",
"213 789 OFFCURVE",
"250 804 OFFCURVE",
"292 804 CURVE SMOOTH",
"356 804 OFFCURVE",
"423 754 OFFCURVE",
"496 754 CURVE SMOOTH"
);
}
);
width = 789;
}
);
leftKerningGroup = O;
note = Otilde;
rightKerningGroup = O;
unicode = 00D5;
},
{
glyphname = OE;
lastChange = "2015-12-01 01:57:21 +0000";
layers = (
{
layerId = "A000C7A9-5E22-4BBF-9975-052AE6D21EBD";
name = Bold;
paths = (
{
closed = 1;
nodes = (
"878 0 LINE",
"878 199 LINE",
"627 199 LINE",
"627 260 LINE",
"796 260 LINE",
"796 439 LINE",
"627 439 LINE",
"627 500 LINE",
"878 500 LINE",
"878 699 LINE",
"413 699 LINE SMOOTH",
"169 699 OFFCURVE",
"15 568 OFFCURVE",
"15 349 CURVE SMOOTH",
"15 131 OFFCURVE",
"169 0 OFFCURVE",
"413 0 CURVE SMOOTH"
);
},
{
closed = 1;
nodes = (
"298 223 OFFCURVE",
"256 260 OFFCURVE",
"256 349 CURVE SMOOTH",
"256 437 OFFCURVE",
"297 475 OFFCURVE",
"390 475 CURVE",
"390 223 LINE"
);
}
);
width = 893;
}
);
leftKerningGroup = O;
note = OE;
rightKerningGroup = E;
unicode = 0152;
},
{
glyphname = P;
lastChange = "2015-12-01 01:57:21 +0000";
layers = (
{
layerId = "A000C7A9-5E22-4BBF-9975-052AE6D21EBD";
name = Bold;
paths = (
{
closed = 1;
nodes = (
"272 0 LINE",
"272 191 LINE",
"371 191 LINE SMOOTH",
"539 191 OFFCURVE",
"653 276 OFFCURVE",
"653 445 CURVE SMOOTH",
"653 614 OFFCURVE",
"539 699 OFFCURVE",
"371 699 CURVE SMOOTH",
"35 699 LINE",
"35 0 LINE"
);
},
{
closed = 1;
nodes = (
"272 522 LINE",
"323 522 LINE SMOOTH",
"374 522 OFFCURVE",
"414 504 OFFCURVE",
"414 445 CURVE SMOOTH",
"414 386 OFFCURVE",
"374 368 OFFCURVE",
"323 368 CURVE SMOOTH",
"272 368 LINE"
);
}
);
width = 658;
}
);
note = P;
unicode = 0050;
},
{
glyphname = Thorn;
lastChange = "2015-12-01 01:57:22 +0000";
layers = (
{
layerId = "A000C7A9-5E22-4BBF-9975-052AE6D21EBD";
name = Bold;
paths = (
{
closed = 1;
nodes = (
"272 0 LINE",
"272 99 LINE",
"371 99 LINE SMOOTH",
"539 99 OFFCURVE",
"653 184 OFFCURVE",
"653 353 CURVE SMOOTH",
"653 522 OFFCURVE",
"539 607 OFFCURVE",
"371 607 CURVE SMOOTH",
"272 607 LINE",
"272 699 LINE",
"35 699 LINE",
"35 0 LINE"
);
},
{
closed = 1;
nodes = (
"272 428 LINE",
"321 428 LINE SMOOTH",
"372 428 OFFCURVE",
"412 412 OFFCURVE",
"412 353 CURVE SMOOTH",
"412 294 OFFCURVE",
"372 278 OFFCURVE",
"321 278 CURVE SMOOTH",
"272 278 LINE"
);
}
);
width = 658;
}
);
note = Thorn;
unicode = 00DE;
},
{
glyphname = Q;
lastChange = "2015-12-01 01:57:21 +0000";
layers = (
{
layerId = "A000C7A9-5E22-4BBF-9975-052AE6D21EBD";
name = Bold;
paths = (
{
closed = 1;
nodes = (
"796 0 LINE",
"796 173 LINE",
"694 173 LINE",
"738 213 OFFCURVE",
"774 299 OFFCURVE",
"774 361 CURVE SMOOTH",
"774 580 OFFCURVE",
"620 714 OFFCURVE",
"395 714 CURVE SMOOTH",
"169 714 OFFCURVE",
"15 568 OFFCURVE",
"15 349 CURVE SMOOTH",
"15 131 OFFCURVE",
"179 0 OFFCURVE",
"423 0 CURVE SMOOTH"
);
},
{
closed = 1;
nodes = (
"317 208 OFFCURVE",
"256 260 OFFCURVE",
"256 349 CURVE SMOOTH",
"256 437 OFFCURVE",
"316 490 OFFCURVE",
"395 490 CURVE SMOOTH",
"473 490 OFFCURVE",
"533 437 OFFCURVE",
"533 349 CURVE SMOOTH",
"533 260 OFFCURVE",
"472 208 OFFCURVE",
"395 208 CURVE SMOOTH"
);
}
);
width = 796;
}
);
leftKerningGroup = O;
note = Q;
rightKerningGroup = O;
unicode = 0051;
},
{
glyphname = R;
lastChange = "2015-12-01 01:57:21 +0000";
layers = (
{
layerId = "A000C7A9-5E22-4BBF-9975-052AE6D21EBD";
name = Bold;
paths = (
{
closed = 1;
nodes = (
"268 0 LINE",
"268 191 LINE",
"313 191 LINE",
"405 0 LINE",
"644 0 LINE",
"534 227 LINE",
"608 267 OFFCURVE",
"653 339 OFFCURVE",
"653 445 CURVE SMOOTH",
"653 614 OFFCURVE",
"539 699 OFFCURVE",
"371 699 CURVE SMOOTH",
"35 699 LINE",
"35 0 LINE"
);
},
{
closed = 1;
nodes = (
"268 522 LINE",
"321 522 LINE SMOOTH",
"372 522 OFFCURVE",
"412 504 OFFCURVE",
"412 445 CURVE SMOOTH",
"412 386 OFFCURVE",
"372 368 OFFCURVE",
"321 368 CURVE SMOOTH",
"268 368 LINE"
);
}
);
width = 668;
}
);
note = R;
rightKerningGroup = R;
unicode = 0052;
},
{
glyphname = Racute;
lastChange = "2015-12-01 01:57:22 +0000";
layers = (
{
layerId = "A000C7A9-5E22-4BBF-9975-052AE6D21EBD";
name = Bold;
paths = (
{
closed = 1;
nodes = (
"268 0 LINE",
"268 191 LINE",
"313 191 LINE",
"405 0 LINE",
"644 0 LINE",
"534 227 LINE",
"608 267 OFFCURVE",
"653 339 OFFCURVE",
"653 445 CURVE SMOOTH",
"653 614 OFFCURVE",
"539 699 OFFCURVE",
"371 699 CURVE SMOOTH",
"35 699 LINE",
"35 0 LINE"
);
},
{
closed = 1;
nodes = (
"268 522 LINE",
"321 522 LINE SMOOTH",
"372 522 OFFCURVE",
"412 504 OFFCURVE",
"412 445 CURVE SMOOTH",
"412 386 OFFCURVE",
"372 368 OFFCURVE",
"321 368 CURVE SMOOTH",
"268 368 LINE"
);
},
{
closed = 1;
nodes = (
"366 742 LINE",
"461 923 LINE",
"244 923 LINE",
"176 742 LINE"
);
}
);
width = 668;
}
);
note = Racute;
rightKerningGroup = R;
unicode = 0154;
},
{
glyphname = Rcaron;
lastChange = "2015-12-01 01:57:21 +0000";
layers = (
{
layerId = "A000C7A9-5E22-4BBF-9975-052AE6D21EBD";
name = Bold;
paths = (
{
closed = 1;
nodes = (
"268 0 LINE",
"268 191 LINE",
"313 191 LINE",
"405 0 LINE",
"644 0 LINE",
"534 227 LINE",
"608 267 OFFCURVE",
"653 339 OFFCURVE",
"653 445 CURVE SMOOTH",
"653 614 OFFCURVE",
"539 699 OFFCURVE",
"371 699 CURVE SMOOTH",
"35 699 LINE",
"35 0 LINE"
);
},
{
closed = 1;
nodes = (
"268 522 LINE",
"321 522 LINE SMOOTH",
"372 522 OFFCURVE",
"412 504 OFFCURVE",
"412 445 CURVE SMOOTH",
"412 386 OFFCURVE",
"372 368 OFFCURVE",
"321 368 CURVE SMOOTH",
"268 368 LINE"
);
},
{
closed = 1;
nodes = (
"444 742 LINE",
"609 933 LINE",
"402 933 LINE",
"343 853 LINE",
"284 933 LINE",
"77 933 LINE",
"242 742 LINE"
);
}
);
width = 668;
}
);
note = Rcaron;
rightKerningGroup = R;
unicode = 0158;
},
{
glyphname = Rcommaaccent;
lastChange = "2015-12-01 02:00:40 +0000";
layers = (
{
layerId = "A000C7A9-5E22-4BBF-9975-052AE6D21EBD";
name = Bold;
paths = (
{
closed = 1;
nodes = (
"268 0 LINE",
"268 191 LINE",
"313 191 LINE",
"405 0 LINE",
"644 0 LINE",
"534 227 LINE",
"608 267 OFFCURVE",
"653 339 OFFCURVE",
"653 445 CURVE SMOOTH",
"653 614 OFFCURVE",
"539 699 OFFCURVE",
"371 699 CURVE SMOOTH",
"35 699 LINE",
"35 0 LINE"
);
},
{
closed = 1;
nodes = (
"268 522 LINE",
"321 522 LINE SMOOTH",
"372 522 OFFCURVE",
"412 504 OFFCURVE",
"412 445 CURVE SMOOTH",
"412 386 OFFCURVE",
"372 368 OFFCURVE",
"321 368 CURVE SMOOTH",
"268 368 LINE"
);
},
{
closed = 1;
nodes = (
"333 -259 LINE",
"444 -41 LINE",
"232 -41 LINE",
"148 -259 LINE"
);
}
);
width = 668;
}
);
note = Rcommaaccent;
rightKerningGroup = R;
unicode = 0156;
},
{
glyphname = Rdotbelow;
lastChange = "2015-12-01 02:00:45 +0000";
layers = (
{
layerId = "A000C7A9-5E22-4BBF-9975-052AE6D21EBD";
name = Bold;
paths = (
{
closed = 1;
nodes = (
"268 0 LINE",
"268 191 LINE",
"313 191 LINE",
"405 0 LINE",
"644 0 LINE",
"534 227 LINE",
"608 267 OFFCURVE",
"653 339 OFFCURVE",
"653 445 CURVE SMOOTH",
"653 614 OFFCURVE",
"539 699 OFFCURVE",
"371 699 CURVE SMOOTH",
"35 699 LINE",
"35 0 LINE"
);
},
{
closed = 1;
nodes = (
"268 522 LINE",
"321 522 LINE SMOOTH",
"372 522 OFFCURVE",
"412 504 OFFCURVE",
"412 445 CURVE SMOOTH",
"412 386 OFFCURVE",
"372 368 OFFCURVE",
"321 368 CURVE SMOOTH",
"268 368 LINE"
);
},
{
closed = 1;
nodes = (
"371 -220 OFFCURVE",
"410 -182 OFFCURVE",
"410 -133 CURVE SMOOTH",
"410 -84 OFFCURVE",
"371 -45 OFFCURVE",
"323 -45 CURVE SMOOTH",
"276 -45 OFFCURVE",
"235 -84 OFFCURVE",
"235 -133 CURVE SMOOTH",
"235 -182 OFFCURVE",
"276 -220 OFFCURVE",
"323 -220 CURVE SMOOTH"
);
}
);
width = 668;
}
);
note = Rdotbelow;
rightKerningGroup = R;
unicode = 1E5A;
},
{
glyphname = Rdotbelowmacron;
lastChange = "2015-12-01 02:00:47 +0000";
layers = (
{
layerId = "A000C7A9-5E22-4BBF-9975-052AE6D21EBD";
name = Bold;
paths = (
{
closed = 1;
nodes = (
"268 0 LINE",
"268 191 LINE",
"313 191 LINE",
"405 0 LINE",
"644 0 LINE",
"534 227 LINE",
"608 267 OFFCURVE",
"653 339 OFFCURVE",
"653 445 CURVE SMOOTH",
"653 614 OFFCURVE",
"539 699 OFFCURVE",
"371 699 CURVE SMOOTH",
"35 699 LINE",
"35 0 LINE"
);
},
{
closed = 1;
nodes = (
"268 522 LINE",
"321 522 LINE SMOOTH",
"372 522 OFFCURVE",
"412 504 OFFCURVE",
"412 445 CURVE SMOOTH",
"412 386 OFFCURVE",
"372 368 OFFCURVE",
"321 368 CURVE SMOOTH",
"268 368 LINE"
);
},
{
closed = 1;
nodes = (
"492 742 LINE",
"492 885 LINE",
"125 885 LINE",
"125 742 LINE"
);
},
{
closed = 1;
nodes = (
"371 -220 OFFCURVE",
"410 -182 OFFCURVE",
"410 -133 CURVE SMOOTH",
"410 -84 OFFCURVE",
"371 -45 OFFCURVE",
"323 -45 CURVE SMOOTH",
"276 -45 OFFCURVE",
"235 -84 OFFCURVE",
"235 -133 CURVE SMOOTH",
"235 -182 OFFCURVE",
"276 -220 OFFCURVE",
"323 -220 CURVE SMOOTH"
);
}
);
width = 668;
}
);
note = Rdotbelowmacron;
rightKerningGroup = R;
unicode = 1E5C;
},
{
glyphname = Rlinebelow;
lastChange = "2015-12-01 02:00:53 +0000";
layers = (
{
layerId = "A000C7A9-5E22-4BBF-9975-052AE6D21EBD";
name = Bold;
paths = (
{
closed = 1;
nodes = (
"268 0 LINE",
"268 191 LINE",
"313 191 LINE",
"405 0 LINE",
"644 0 LINE",
"534 227 LINE",
"608 267 OFFCURVE",
"653 339 OFFCURVE",
"653 445 CURVE SMOOTH",
"653 614 OFFCURVE",
"539 699 OFFCURVE",
"371 699 CURVE SMOOTH",
"35 699 LINE",
"35 0 LINE"
);
},
{
closed = 1;
nodes = (
"268 522 LINE",
"321 522 LINE SMOOTH",
"372 522 OFFCURVE",
"412 504 OFFCURVE",
"412 445 CURVE SMOOTH",
"412 386 OFFCURVE",
"372 368 OFFCURVE",
"321 368 CURVE SMOOTH",
"268 368 LINE"
);
},
{
closed = 1;
nodes = (
"507 -192 LINE",
"507 -49 LINE",
"140 -49 LINE",
"140 -192 LINE"
);
}
);
width = 668;
}
);
note = Rlinebelow;
rightKerningGroup = R;
unicode = 1E5E;
},
{
glyphname = S;
lastChange = "2015-12-01 01:57:19 +0000";
layers = (
{
layerId = "A000C7A9-5E22-4BBF-9975-052AE6D21EBD";
name = Bold;
paths = (
{
closed = 1;
nodes = (
"473 -15 OFFCURVE",
"565 71 OFFCURVE",
"565 201 CURVE SMOOTH",
"565 312 OFFCURVE",
"526 363 OFFCURVE",
"386 422 CURVE SMOOTH",
"314 452 OFFCURVE",
"273 462 OFFCURVE",
"273 489 CURVE SMOOTH",
"273 513 OFFCURVE",
"305 520 OFFCURVE",
"344 520 CURVE SMOOTH",
"399 520 OFFCURVE",
"461 504 OFFCURVE",
"522 470 CURVE",
"522 669 LINE",
"458 700 OFFCURVE",
"392 714 OFFCURVE",
"300 714 CURVE SMOOTH",
"132 714 OFFCURVE",
"17 624 OFFCURVE",
"17 495 CURVE SMOOTH",
"17 396 OFFCURVE",
"73 332 OFFCURVE",
"200 276 CURVE SMOOTH",
"279 241 OFFCURVE",
"305 229 OFFCURVE",
"305 204 CURVE SMOOTH",
"305 187 OFFCURVE",
"290 179 OFFCURVE",
"249 179 CURVE SMOOTH",
"182 179 OFFCURVE",
"93 199 OFFCURVE",
"15 243 CURVE",
"15 37 LINE",
"74 5 OFFCURVE",
"177 -15 OFFCURVE",
"268 -15 CURVE SMOOTH"
);
}
);
width = 580;
}
);
leftKerningGroup = S;
note = S;
rightKerningGroup = S;
unicode = 0053;
},
{
glyphname = Sacute;
lastChange = "2015-12-01 01:57:21 +0000";
layers = (
{
layerId = "A000C7A9-5E22-4BBF-9975-052AE6D21EBD";
name = Bold;
paths = (
{
closed = 1;
nodes = (
"473 -15 OFFCURVE",
"565 71 OFFCURVE",
"565 201 CURVE SMOOTH",
"565 312 OFFCURVE",
"526 363 OFFCURVE",
"386 422 CURVE SMOOTH",
"314 452 OFFCURVE",
"273 462 OFFCURVE",
"273 489 CURVE SMOOTH",
"273 513 OFFCURVE",
"305 520 OFFCURVE",
"344 520 CURVE SMOOTH",
"399 520 OFFCURVE",
"461 504 OFFCURVE",
"522 470 CURVE",
"522 669 LINE",
"458 700 OFFCURVE",
"392 714 OFFCURVE",
"300 714 CURVE SMOOTH",
"132 714 OFFCURVE",
"17 624 OFFCURVE",
"17 495 CURVE SMOOTH",
"17 396 OFFCURVE",
"73 332 OFFCURVE",
"200 276 CURVE SMOOTH",
"279 241 OFFCURVE",
"305 229 OFFCURVE",
"305 204 CURVE SMOOTH",
"305 187 OFFCURVE",
"290 179 OFFCURVE",
"249 179 CURVE SMOOTH",
"182 179 OFFCURVE",
"93 199 OFFCURVE",
"15 243 CURVE",
"15 37 LINE",
"74 5 OFFCURVE",
"177 -15 OFFCURVE",
"268 -15 CURVE SMOOTH"
);
},
{
closed = 1;
nodes = (
"375 742 LINE",
"470 923 LINE",
"253 923 LINE",
"185 742 LINE"
);
}
);
width = 580;
}
);
leftKerningGroup = S;
note = Sacute;
rightKerningGroup = S;
unicode = 015A;
},
{
glyphname = Scaron;
lastChange = "2015-12-01 02:01:01 +0000";
layers = (
{
layerId = "A000C7A9-5E22-4BBF-9975-052AE6D21EBD";
name = Bold;
paths = (
{
closed = 1;
nodes = (
"473 -15 OFFCURVE",
"565 71 OFFCURVE",
"565 201 CURVE SMOOTH",
"565 312 OFFCURVE",
"526 363 OFFCURVE",
"386 422 CURVE SMOOTH",
"314 452 OFFCURVE",
"273 462 OFFCURVE",
"273 489 CURVE SMOOTH",
"273 513 OFFCURVE",
"305 520 OFFCURVE",
"344 520 CURVE SMOOTH",
"399 520 OFFCURVE",
"461 504 OFFCURVE",
"522 470 CURVE",
"522 669 LINE",
"458 700 OFFCURVE",
"392 714 OFFCURVE",
"300 714 CURVE SMOOTH",
"132 714 OFFCURVE",
"17 624 OFFCURVE",
"17 495 CURVE SMOOTH",
"17 396 OFFCURVE",
"73 332 OFFCURVE",
"200 276 CURVE SMOOTH",
"279 241 OFFCURVE",
"305 229 OFFCURVE",
"305 204 CURVE SMOOTH",
"305 187 OFFCURVE",
"290 179 OFFCURVE",
"249 179 CURVE SMOOTH",
"182 179 OFFCURVE",
"93 199 OFFCURVE",
"15 243 CURVE",
"15 37 LINE",
"74 5 OFFCURVE",
"177 -15 OFFCURVE",
"268 -15 CURVE SMOOTH"
);
},
{
closed = 1;
nodes = (
"380 742 LINE",
"545 933 LINE",
"338 933 LINE",
"279 853 LINE",
"220 933 LINE",
"13 933 LINE",
"178 742 LINE"
);
}
);
width = 580;
}
);
leftKerningGroup = S;
note = Scaron;
rightKerningGroup = S;
unicode = 0160;
},
{
glyphname = Scedilla;
lastChange = "2015-12-01 01:57:22 +0000";
layers = (
{
layerId = "A000C7A9-5E22-4BBF-9975-052AE6D21EBD";
name = Bold;
paths = (
{
closed = 1;
nodes = (
"473 -15 OFFCURVE",
"565 71 OFFCURVE",
"565 201 CURVE SMOOTH",
"565 312 OFFCURVE",
"526 363 OFFCURVE",
"386 422 CURVE SMOOTH",
"314 452 OFFCURVE",
"273 462 OFFCURVE",
"273 489 CURVE SMOOTH",
"273 513 OFFCURVE",
"305 520 OFFCURVE",
"344 520 CURVE SMOOTH",
"399 520 OFFCURVE",
"461 504 OFFCURVE",
"522 470 CURVE",
"522 669 LINE",
"458 700 OFFCURVE",
"392 714 OFFCURVE",
"300 714 CURVE SMOOTH",
"132 714 OFFCURVE",
"17 624 OFFCURVE",
"17 495 CURVE SMOOTH",
"17 396 OFFCURVE",
"73 332 OFFCURVE",
"200 276 CURVE SMOOTH",
"279 241 OFFCURVE",
"305 229 OFFCURVE",
"305 204 CURVE SMOOTH",
"305 187 OFFCURVE",
"290 179 OFFCURVE",
"249 179 CURVE SMOOTH",
"182 179 OFFCURVE",
"93 199 OFFCURVE",
"15 243 CURVE",
"15 37 LINE",
"74 5 OFFCURVE",
"177 -15 OFFCURVE",
"268 -15 CURVE SMOOTH"
);
},
{
closed = 1;
nodes = (
"386 -248 OFFCURVE",
"430 -195 OFFCURVE",
"430 -137 CURVE SMOOTH",
"430 -88 OFFCURVE",
"394 -57 OFFCURVE",
"336 -49 CURVE",
"356 0 LINE",
"197 0 LINE",
"174 -76 LINE",
"241 -76 OFFCURVE",
"260 -97 OFFCURVE",
"260 -126 CURVE SMOOTH",
"260 -147 OFFCURVE",
"246 -165 OFFCURVE",
"208 -165 CURVE SMOOTH",
"185 -165 OFFCURVE",
"163 -158 OFFCURVE",
"147 -149 CURVE",
"145 -232 LINE",
"169 -241 OFFCURVE",
"209 -248 OFFCURVE",
"263 -248 CURVE SMOOTH"
);
}
);
width = 580;
}
);
leftKerningGroup = S;
note = Scedilla;
rightKerningGroup = S;
unicode = 015E;
},
{
glyphname = Scircumflex;
lastChange = "2015-12-01 01:57:22 +0000";
layers = (
{
layerId = "A000C7A9-5E22-4BBF-9975-052AE6D21EBD";
name = Bold;
paths = (
{
closed = 1;
nodes = (
"473 -15 OFFCURVE",
"565 71 OFFCURVE",
"565 201 CURVE SMOOTH",
"565 312 OFFCURVE",
"526 363 OFFCURVE",
"386 422 CURVE SMOOTH",
"314 452 OFFCURVE",
"273 462 OFFCURVE",
"273 489 CURVE SMOOTH",
"273 513 OFFCURVE",
"305 520 OFFCURVE",
"344 520 CURVE SMOOTH",
"399 520 OFFCURVE",
"461 504 OFFCURVE",
"522 470 CURVE",
"522 669 LINE",
"458 700 OFFCURVE",
"392 714 OFFCURVE",
"300 714 CURVE SMOOTH",
"132 714 OFFCURVE",
"17 624 OFFCURVE",
"17 495 CURVE SMOOTH",
"17 396 OFFCURVE",
"73 332 OFFCURVE",
"200 276 CURVE SMOOTH",
"279 241 OFFCURVE",
"305 229 OFFCURVE",
"305 204 CURVE SMOOTH",
"305 187 OFFCURVE",
"290 179 OFFCURVE",
"249 179 CURVE SMOOTH",
"182 179 OFFCURVE",
"93 199 OFFCURVE",
"15 243 CURVE",
"15 37 LINE",
"74 5 OFFCURVE",
"177 -15 OFFCURVE",
"268 -15 CURVE SMOOTH"
);
},
{
closed = 1;
nodes = (
"226 742 LINE",
"285 822 LINE",
"344 742 LINE",
"551 742 LINE",
"386 933 LINE",
"184 933 LINE",
"19 742 LINE"
);
}
);
width = 580;
}
);
leftKerningGroup = S;
note = Scircumflex;
rightKerningGroup = S;
unicode = 015C;
},
{
glyphname = Scommaaccent;
lastChange = "2015-12-01 01:57:21 +0000";
layers = (
{
layerId = "A000C7A9-5E22-4BBF-9975-052AE6D21EBD";
name = Bold;
paths = (
{
closed = 1;
nodes = (
"473 -15 OFFCURVE",
"565 71 OFFCURVE",
"565 201 CURVE SMOOTH",
"565 312 OFFCURVE",
"526 363 OFFCURVE",
"386 422 CURVE SMOOTH",
"314 452 OFFCURVE",
"273 462 OFFCURVE",
"273 489 CURVE SMOOTH",
"273 513 OFFCURVE",
"305 520 OFFCURVE",
"344 520 CURVE SMOOTH",
"399 520 OFFCURVE",
"461 504 OFFCURVE",
"522 470 CURVE",
"522 669 LINE",
"458 700 OFFCURVE",
"392 714 OFFCURVE",
"300 714 CURVE SMOOTH",
"132 714 OFFCURVE",
"17 624 OFFCURVE",
"17 495 CURVE SMOOTH",
"17 396 OFFCURVE",
"73 332 OFFCURVE",
"200 276 CURVE SMOOTH",
"279 241 OFFCURVE",
"305 229 OFFCURVE",
"305 204 CURVE SMOOTH",
"305 187 OFFCURVE",
"290 179 OFFCURVE",
"249 179 CURVE SMOOTH",
"182 179 OFFCURVE",
"93 199 OFFCURVE",
"15 243 CURVE",
"15 37 LINE",
"74 5 OFFCURVE",
"177 -15 OFFCURVE",
"268 -15 CURVE SMOOTH"
);
},
{
closed = 1;
nodes = (
"304 -259 LINE",
"415 -41 LINE",
"183 -41 LINE",
"99 -259 LINE"
);
}
);
width = 580;
}
);
leftKerningGroup = S;
note = Scommaaccent;
rightKerningGroup = S;
unicode = 0218;
},
{
glyphname = Sdotaccent;
lastChange = "2015-12-01 01:57:21 +0000";
layers = (
{
layerId = "A000C7A9-5E22-4BBF-9975-052AE6D21EBD";
name = Bold;
paths = (
{
closed = 1;
nodes = (
"473 -15 OFFCURVE",
"565 71 OFFCURVE",
"565 201 CURVE SMOOTH",
"565 312 OFFCURVE",
"526 363 OFFCURVE",
"386 422 CURVE SMOOTH",
"314 452 OFFCURVE",
"273 462 OFFCURVE",
"273 489 CURVE SMOOTH",
"273 513 OFFCURVE",
"305 520 OFFCURVE",
"344 520 CURVE SMOOTH",
"399 520 OFFCURVE",
"461 504 OFFCURVE",
"522 470 CURVE",
"522 669 LINE",
"458 700 OFFCURVE",
"392 714 OFFCURVE",
"300 714 CURVE SMOOTH",
"132 714 OFFCURVE",
"17 624 OFFCURVE",
"17 495 CURVE SMOOTH",
"17 396 OFFCURVE",
"73 332 OFFCURVE",
"200 276 CURVE SMOOTH",
"279 241 OFFCURVE",
"305 229 OFFCURVE",
"305 204 CURVE SMOOTH",
"305 187 OFFCURVE",
"290 179 OFFCURVE",
"249 179 CURVE SMOOTH",
"182 179 OFFCURVE",
"93 199 OFFCURVE",
"15 243 CURVE",
"15 37 LINE",
"74 5 OFFCURVE",
"177 -15 OFFCURVE",
"268 -15 CURVE SMOOTH"
);
},
{
closed = 1;
nodes = (
"337 742 OFFCURVE",
"376 780 OFFCURVE",
"376 829 CURVE SMOOTH",
"376 878 OFFCURVE",
"337 917 OFFCURVE",
"289 917 CURVE SMOOTH",
"242 917 OFFCURVE",
"201 878 OFFCURVE",
"201 829 CURVE SMOOTH",
"201 780 OFFCURVE",
"242 742 OFFCURVE",
"289 742 CURVE SMOOTH"
);
}
);
width = 580;
}
);
leftKerningGroup = S;
note = Sdotaccent;
rightKerningGroup = S;
unicode = 1E60;
},
{
glyphname = Sdotbelow;
lastChange = "2015-12-01 01:57:21 +0000";
layers = (
{
layerId = "A000C7A9-5E22-4BBF-9975-052AE6D21EBD";
name = Bold;
paths = (
{
closed = 1;
nodes = (
"473 -15 OFFCURVE",
"565 71 OFFCURVE",
"565 201 CURVE SMOOTH",
"565 312 OFFCURVE",
"526 363 OFFCURVE",
"386 422 CURVE SMOOTH",
"314 452 OFFCURVE",
"273 462 OFFCURVE",
"273 489 CURVE SMOOTH",
"273 513 OFFCURVE",
"305 520 OFFCURVE",
"344 520 CURVE SMOOTH",
"399 520 OFFCURVE",
"461 504 OFFCURVE",
"522 470 CURVE",
"522 669 LINE",
"458 700 OFFCURVE",
"392 714 OFFCURVE",
"300 714 CURVE SMOOTH",
"132 714 OFFCURVE",
"17 624 OFFCURVE",
"17 495 CURVE SMOOTH",
"17 396 OFFCURVE",
"73 332 OFFCURVE",
"200 276 CURVE SMOOTH",
"279 241 OFFCURVE",
"305 229 OFFCURVE",
"305 204 CURVE SMOOTH",
"305 187 OFFCURVE",
"290 179 OFFCURVE",
"249 179 CURVE SMOOTH",
"182 179 OFFCURVE",
"93 199 OFFCURVE",
"15 243 CURVE",
"15 37 LINE",
"74 5 OFFCURVE",
"177 -15 OFFCURVE",
"268 -15 CURVE SMOOTH"
);
},
{
closed = 1;
nodes = (
"331 -220 OFFCURVE",
"370 -182 OFFCURVE",
"370 -133 CURVE SMOOTH",
"370 -84 OFFCURVE",
"331 -45 OFFCURVE",
"283 -45 CURVE SMOOTH",
"236 -45 OFFCURVE",
"195 -84 OFFCURVE",
"195 -133 CURVE SMOOTH",
"195 -182 OFFCURVE",
"236 -220 OFFCURVE",
"283 -220 CURVE SMOOTH"
);
}
);
width = 580;
}
);
leftKerningGroup = S;
note = Sdotbelow;
rightKerningGroup = S;
unicode = 1E62;
},
{
glyphname = Germandbls;
lastChange = "2015-12-01 01:57:19 +0000";
layers = (
{
layerId = "A000C7A9-5E22-4BBF-9975-052AE6D21EBD";
name = Bold;
paths = (
{
closed = 1;
nodes = (
"570 -15 OFFCURVE",
"660 59 OFFCURVE",
"660 194 CURVE SMOOTH",
"660 282 OFFCURVE",
"618 345 OFFCURVE",
"532 378 CURVE",
"622 485 LINE",
"609 597 OFFCURVE",
"528 714 OFFCURVE",
"323 714 CURVE SMOOTH",
"132 714 OFFCURVE",
"30 616 OFFCURVE",
"30 450 CURVE SMOOTH",
"30 0 LINE",
"266 0 LINE",
"266 482 LINE SMOOTH",
"266 520 OFFCURVE",
"278 552 OFFCURVE",
"326 552 CURVE SMOOTH",
"366 552 OFFCURVE",
"381 523 OFFCURVE",
"381 490 CURVE",
"292 384 LINE",
"292 277 LINE",
"345 277 LINE SMOOTH",
"396 277 OFFCURVE",
"419 256 OFFCURVE",
"419 219 CURVE SMOOTH",
"419 178 OFFCURVE",
"397 163 OFFCURVE",
"355 163 CURVE SMOOTH",
"333 163 OFFCURVE",
"308 169 OFFCURVE",
"292 182 CURVE",
"292 3 LINE",
"322 -10 OFFCURVE",
"373 -15 OFFCURVE",
"414 -15 CURVE SMOOTH"
);
}
);
width = 675;
}
);
note = uni1E9E;
unicode = 1E9E;
},
{
glyphname = Schwa;
lastChange = "2015-12-01 01:57:21 +0000";
layers = (
{
layerId = "A000C7A9-5E22-4BBF-9975-052AE6D21EBD";
name = Bold;
paths = (
{
closed = 1;
nodes = (
"661 -15 OFFCURVE",
"810 152 OFFCURVE",
"810 353 CURVE SMOOTH",
"810 574 OFFCURVE",
"661 714 OFFCURVE",
"373 714 CURVE SMOOTH",
"252 714 OFFCURVE",
"145 693 OFFCURVE",
"71 663 CURVE",
"71 475 LINE",
"142 502 OFFCURVE",
"241 516 OFFCURVE",
"326 516 CURVE SMOOTH",
"462 516 OFFCURVE",
"500 480 OFFCURVE",
"519 432 CURVE",
"15 432 LINE",
"15 343 LINE SMOOTH",
"15 143 OFFCURVE",
"143 -15 OFFCURVE",
"407 -15 CURVE SMOOTH"
);
},
{
closed = 1;
nodes = (
"327 180 OFFCURVE",
"295 221 OFFCURVE",
"286 269 CURVE",
"519 269 LINE",
"510 221 OFFCURVE",
"476 180 OFFCURVE",
"402 180 CURVE SMOOTH"
);
}
);
width = 825;
}
);
note = uni018F;
unicode = 018F;
},
{
glyphname = T;
lastChange = "2015-12-01 01:57:19 +0000";
layers = (
{
layerId = "A000C7A9-5E22-4BBF-9975-052AE6D21EBD";
name = Bold;
paths = (
{
closed = 1;
nodes = (
"416 0 LINE",
"416 500 LINE",
"595 500 LINE",
"595 699 LINE",
"0 699 LINE",
"0 500 LINE",
"179 500 LINE",
"179 0 LINE"
);
}
);
width = 595;
}
);
leftKerningGroup = T;
note = T;
rightKerningGroup = T;
unicode = 0054;
},
{
glyphname = Tbar;
lastChange = "2015-12-01 01:57:21 +0000";
layers = (
{
layerId = "A000C7A9-5E22-4BBF-9975-052AE6D21EBD";
name = Bold;
paths = (
{
closed = 1;
nodes = (
"416 0 LINE",
"416 500 LINE",
"595 500 LINE",
"595 699 LINE",
"0 699 LINE",
"0 500 LINE",
"179 500 LINE",
"179 0 LINE"
);
},
{
closed = 1;
nodes = (
"513 228 LINE",
"513 417 LINE",
"86 417 LINE",
"86 228 LINE"
);
}
);
width = 595;
}
);
leftKerningGroup = T;
note = Tbar;
rightKerningGroup = T;
unicode = 0166;
},
{
glyphname = Tcaron;
lastChange = "2015-12-01 01:57:21 +0000";
layers = (
{
layerId = "A000C7A9-5E22-4BBF-9975-052AE6D21EBD";
name = Bold;
paths = (
{
closed = 1;
nodes = (
"416 0 LINE",
"416 500 LINE",
"595 500 LINE",
"595 699 LINE",
"0 699 LINE",
"0 500 LINE",
"179 500 LINE",
"179 0 LINE"
);
},
{
closed = 1;
nodes = (
"398 742 LINE",
"563 933 LINE",
"356 933 LINE",
"297 853 LINE",
"238 933 LINE",
"31 933 LINE",
"196 742 LINE"
);
}
);
width = 595;
}
);
leftKerningGroup = T;
note = Tcaron;
rightKerningGroup = T;
unicode = 0164;
},
{
glyphname = Tcedilla;
lastChange = "2015-12-01 01:57:22 +0000";
layers = (
{
layerId = "A000C7A9-5E22-4BBF-9975-052AE6D21EBD";
name = Bold;
paths = (
{
closed = 1;
nodes = (
"416 0 LINE",
"416 500 LINE",
"595 500 LINE",
"595 699 LINE",
"0 699 LINE",
"0 500 LINE",
"179 500 LINE",
"179 0 LINE"
);
},
{
closed = 1;
nodes = (
"411 -248 OFFCURVE",
"455 -195 OFFCURVE",
"455 -137 CURVE SMOOTH",
"455 -88 OFFCURVE",
"419 -57 OFFCURVE",
"361 -49 CURVE",
"381 0 LINE",
"222 0 LINE",
"199 -76 LINE",
"266 -76 OFFCURVE",
"285 -97 OFFCURVE",
"285 -126 CURVE SMOOTH",
"285 -147 OFFCURVE",
"271 -165 OFFCURVE",
"233 -165 CURVE SMOOTH",
"210 -165 OFFCURVE",
"188 -158 OFFCURVE",
"172 -149 CURVE",
"170 -232 LINE",
"194 -241 OFFCURVE",
"234 -248 OFFCURVE",
"288 -248 CURVE SMOOTH"
);
}
);
width = 595;
}
);
leftKerningGroup = T;
note = Tcedilla;
rightKerningGroup = T;
unicode = 0162;
},
{
glyphname = Tcommaaccent;
lastChange = "2015-12-01 01:57:21 +0000";
layers = (
{
layerId = "A000C7A9-5E22-4BBF-9975-052AE6D21EBD";
name = Bold;
paths = (
{
closed = 1;
nodes = (
"416 0 LINE",
"416 500 LINE",
"595 500 LINE",
"595 699 LINE",
"0 699 LINE",
"0 500 LINE",
"179 500 LINE",
"179 0 LINE"
);
},
{
closed = 1;
nodes = (
"293 -259 LINE",
"404 -41 LINE",
"192 -41 LINE",
"108 -259 LINE"
);
}
);
width = 595;
}
);
leftKerningGroup = T;
note = Tcommaaccent;
rightKerningGroup = T;
unicode = 021A;
},
{
glyphname = Tdotbelow;
lastChange = "2015-12-01 01:57:22 +0000";
layers = (
{
layerId = "A000C7A9-5E22-4BBF-9975-052AE6D21EBD";
name = Bold;
paths = (
{
closed = 1;
nodes = (
"416 0 LINE",
"416 500 LINE",
"595 500 LINE",
"595 699 LINE",
"0 699 LINE",
"0 500 LINE",
"179 500 LINE",
"179 0 LINE"
);
},
{
closed = 1;
nodes = (
"346 -220 OFFCURVE",
"385 -182 OFFCURVE",
"385 -133 CURVE SMOOTH",
"385 -84 OFFCURVE",
"346 -45 OFFCURVE",
"298 -45 CURVE SMOOTH",
"251 -45 OFFCURVE",
"210 -84 OFFCURVE",
"210 -133 CURVE SMOOTH",
"210 -182 OFFCURVE",
"251 -220 OFFCURVE",
"298 -220 CURVE SMOOTH"
);
}
);
width = 595;
}
);
leftKerningGroup = T;
note = Tdotbelow;
rightKerningGroup = T;
unicode = 1E6C;
},
{
glyphname = Tlinebelow;
lastChange = "2015-12-01 01:57:21 +0000";
layers = (
{
layerId = "A000C7A9-5E22-4BBF-9975-052AE6D21EBD";
name = Bold;
paths = (
{
closed = 1;
nodes = (
"416 0 LINE",
"416 500 LINE",
"595 500 LINE",
"595 699 LINE",
"0 699 LINE",
"0 500 LINE",
"179 500 LINE",
"179 0 LINE"
);
},
{
closed = 1;
nodes = (
"463 -192 LINE",
"463 -49 LINE",
"96 -49 LINE",
"96 -192 LINE"
);
}
);
width = 595;
}
);
leftKerningGroup = T;
note = Tlinebelow;
rightKerningGroup = T;
unicode = 1E6E;
},
{
glyphname = U;
lastChange = "2015-12-01 01:57:19 +0000";
layers = (
{
layerId = "A000C7A9-5E22-4BBF-9975-052AE6D21EBD";
name = Bold;
paths = (
{
closed = 1;
nodes = (
"602 -15 OFFCURVE",
"704 130 OFFCURVE",
"704 315 CURVE SMOOTH",
"704 699 LINE",
"466 699 LINE",
"466 322 LINE SMOOTH",
"466 245 OFFCURVE",
"438 203 OFFCURVE",
"367 203 CURVE SMOOTH",
"296 203 OFFCURVE",
"267 245 OFFCURVE",
"267 322 CURVE SMOOTH",
"267 699 LINE",
"30 699 LINE",
"30 315 LINE SMOOTH",
"30 130 OFFCURVE",
"132 -15 OFFCURVE",
"367 -15 CURVE SMOOTH"
);
}
);
width = 734;
}
);
leftKerningGroup = U;
note = U;
rightKerningGroup = U;
unicode = 0055;
},
{
glyphname = Uacute;
lastChange = "2015-12-01 01:57:22 +0000";
layers = (
{
layerId = "A000C7A9-5E22-4BBF-9975-052AE6D21EBD";
name = Bold;
paths = (
{
closed = 1;
nodes = (
"602 -15 OFFCURVE",
"704 130 OFFCURVE",
"704 315 CURVE SMOOTH",
"704 699 LINE",
"466 699 LINE",
"466 322 LINE SMOOTH",
"466 245 OFFCURVE",
"438 203 OFFCURVE",
"367 203 CURVE SMOOTH",
"296 203 OFFCURVE",
"267 245 OFFCURVE",
"267 322 CURVE SMOOTH",
"267 699 LINE",
"30 699 LINE",
"30 315 LINE SMOOTH",
"30 130 OFFCURVE",
"132 -15 OFFCURVE",
"367 -15 CURVE SMOOTH"
);
},
{
closed = 1;
nodes = (
"462 742 LINE",
"557 923 LINE",
"340 923 LINE",
"272 742 LINE"
);
}
);
width = 734;
}
);
leftKerningGroup = U;
note = Uacute;
rightKerningGroup = U;
unicode = 00DA;
},
{
glyphname = Ubreve;
lastChange = "2015-12-01 01:57:22 +0000";
layers = (
{
layerId = "A000C7A9-5E22-4BBF-9975-052AE6D21EBD";
name = Bold;
paths = (
{
closed = 1;
nodes = (
"602 -15 OFFCURVE",
"704 130 OFFCURVE",
"704 315 CURVE SMOOTH",
"704 699 LINE",
"466 699 LINE",
"466 322 LINE SMOOTH",
"466 245 OFFCURVE",
"438 203 OFFCURVE",
"367 203 CURVE SMOOTH",
"296 203 OFFCURVE",
"267 245 OFFCURVE",
"267 322 CURVE SMOOTH",
"267 699 LINE",
"30 699 LINE",
"30 315 LINE SMOOTH",
"30 130 OFFCURVE",
"132 -15 OFFCURVE",
"367 -15 CURVE SMOOTH"
);
},
{
closed = 1;
nodes = (
"500 742 OFFCURVE",
"572 816 OFFCURVE",
"572 937 CURVE",
"405 937 LINE",
"405 898 OFFCURVE",
"392 879 OFFCURVE",
"367 879 CURVE SMOOTH",
"342 879 OFFCURVE",
"329 898 OFFCURVE",
"329 937 CURVE",
"162 937 LINE",
"162 816 OFFCURVE",
"234 742 OFFCURVE",
"367 742 CURVE SMOOTH"
);
}
);
width = 734;
}
);
leftKerningGroup = U;
note = Ubreve;
rightKerningGroup = U;
unicode = 016C;
},
{
glyphname = Ucaron;
lastChange = "2015-12-01 01:57:22 +0000";
layers = (
{
layerId = "A000C7A9-5E22-4BBF-9975-052AE6D21EBD";
name = Bold;
paths = (
{
closed = 1;
nodes = (
"602 -15 OFFCURVE",
"704 130 OFFCURVE",
"704 315 CURVE SMOOTH",
"704 699 LINE",
"466 699 LINE",
"466 322 LINE SMOOTH",
"466 245 OFFCURVE",
"438 203 OFFCURVE",
"367 203 CURVE SMOOTH",
"296 203 OFFCURVE",
"267 245 OFFCURVE",
"267 322 CURVE SMOOTH",
"267 699 LINE",
"30 699 LINE",
"30 315 LINE SMOOTH",
"30 130 OFFCURVE",
"132 -15 OFFCURVE",
"367 -15 CURVE SMOOTH"
);
},
{
closed = 1;
nodes = (
"468 742 LINE",
"633 933 LINE",
"426 933 LINE",
"367 853 LINE",
"308 933 LINE",
"101 933 LINE",
"266 742 LINE"
);
}
);
width = 734;
}
);
leftKerningGroup = U;
note = Ucaron;
rightKerningGroup = U;
unicode = 01D3;
},
{
glyphname = Ucircumflex;
lastChange = "2015-12-01 01:57:22 +0000";
layers = (
{
layerId = "A000C7A9-5E22-4BBF-9975-052AE6D21EBD";
name = Bold;
paths = (
{
closed = 1;
nodes = (
"602 -15 OFFCURVE",
"704 130 OFFCURVE",
"704 315 CURVE SMOOTH",
"704 699 LINE",
"466 699 LINE",
"466 322 LINE SMOOTH",
"466 245 OFFCURVE",
"438 203 OFFCURVE",
"367 203 CURVE SMOOTH",
"296 203 OFFCURVE",
"267 245 OFFCURVE",
"267 322 CURVE SMOOTH",
"267 699 LINE",
"30 699 LINE",
"30 315 LINE SMOOTH",
"30 130 OFFCURVE",
"132 -15 OFFCURVE",
"367 -15 CURVE SMOOTH"
);
},
{
closed = 1;
nodes = (
"308 742 LINE",
"367 822 LINE",
"426 742 LINE",
"633 742 LINE",
"468 933 LINE",
"266 933 LINE",
"101 742 LINE"
);
}
);
width = 734;
}
);
leftKerningGroup = U;
note = Ucircumflex;
rightKerningGroup = U;
unicode = 00DB;
},
{
glyphname = Udieresis;
lastChange = "2015-12-01 01:57:21 +0000";
layers = (
{
layerId = "A000C7A9-5E22-4BBF-9975-052AE6D21EBD";
name = Bold;
paths = (
{
closed = 1;
nodes = (
"602 -15 OFFCURVE",
"704 130 OFFCURVE",
"704 315 CURVE SMOOTH",
"704 699 LINE",
"466 699 LINE",
"466 322 LINE SMOOTH",
"466 245 OFFCURVE",
"438 203 OFFCURVE",
"367 203 CURVE SMOOTH",
"296 203 OFFCURVE",
"267 245 OFFCURVE",
"267 322 CURVE SMOOTH",
"267 699 LINE",
"30 699 LINE",
"30 315 LINE SMOOTH",
"30 130 OFFCURVE",
"132 -15 OFFCURVE",
"367 -15 CURVE SMOOTH"
);
},
{
closed = 1;
nodes = (
"299 752 OFFCURVE",
"338 790 OFFCURVE",
"338 839 CURVE SMOOTH",
"338 888 OFFCURVE",
"299 927 OFFCURVE",
"251 927 CURVE SMOOTH",
"204 927 OFFCURVE",
"163 888 OFFCURVE",
"163 839 CURVE SMOOTH",
"163 790 OFFCURVE",
"204 752 OFFCURVE",
"251 752 CURVE SMOOTH"
);
},
{
closed = 1;
nodes = (
"533 752 OFFCURVE",
"572 790 OFFCURVE",
"572 839 CURVE SMOOTH",
"572 888 OFFCURVE",
"533 927 OFFCURVE",
"486 927 CURVE SMOOTH",
"438 927 OFFCURVE",
"398 888 OFFCURVE",
"398 839 CURVE SMOOTH",
"398 790 OFFCURVE",
"438 752 OFFCURVE",
"486 752 CURVE SMOOTH"
);
}
);
width = 734;
}
);
leftKerningGroup = U;
note = Udieresis;
rightKerningGroup = U;
unicode = 00DC;
},
{
glyphname = Udieresisacute;
lastChange = "2015-12-01 01:57:21 +0000";
layers = (
{
layerId = "A000C7A9-5E22-4BBF-9975-052AE6D21EBD";
name = Bold;
paths = (
{
closed = 1;
nodes = (
"602 -15 OFFCURVE",
"704 130 OFFCURVE",
"704 315 CURVE SMOOTH",
"704 699 LINE",
"466 699 LINE",
"466 322 LINE SMOOTH",
"466 245 OFFCURVE",
"438 203 OFFCURVE",
"367 203 CURVE SMOOTH",
"296 203 OFFCURVE",
"267 245 OFFCURVE",
"267 322 CURVE SMOOTH",
"267 699 LINE",
"30 699 LINE",
"30 315 LINE SMOOTH",
"30 130 OFFCURVE",
"132 -15 OFFCURVE",
"367 -15 CURVE SMOOTH"
);
},
{
closed = 1;
nodes = (
"299 742 OFFCURVE",
"338 780 OFFCURVE",
"338 829 CURVE SMOOTH",
"338 878 OFFCURVE",
"299 917 OFFCURVE",
"251 917 CURVE SMOOTH",
"204 917 OFFCURVE",
"163 878 OFFCURVE",
"163 829 CURVE SMOOTH",
"163 780 OFFCURVE",
"204 742 OFFCURVE",
"251 742 CURVE SMOOTH"
);
},
{
closed = 1;
nodes = (
"533 742 OFFCURVE",
"572 780 OFFCURVE",
"572 829 CURVE SMOOTH",
"572 878 OFFCURVE",
"533 917 OFFCURVE",
"486 917 CURVE SMOOTH",
"438 917 OFFCURVE",
"398 878 OFFCURVE",
"398 829 CURVE SMOOTH",
"398 780 OFFCURVE",
"438 742 OFFCURVE",
"486 742 CURVE SMOOTH"
);
},
{
closed = 1;
nodes = (
"461 944 LINE",
"545 1093 LINE",
"338 1093 LINE",
"281 944 LINE"
);
}
);
width = 734;
}
);
leftKerningGroup = U;
note = Udieresisacute;
rightKerningGroup = U;
unicode = 01D7;
},
{
glyphname = Udieresiscaron;
lastChange = "2015-12-01 01:57:21 +0000";
layers = (
{
layerId = "A000C7A9-5E22-4BBF-9975-052AE6D21EBD";
name = Bold;
paths = (
{
closed = 1;
nodes = (
"602 -15 OFFCURVE",
"704 130 OFFCURVE",
"704 315 CURVE SMOOTH",
"704 699 LINE",
"466 699 LINE",
"466 322 LINE SMOOTH",
"466 245 OFFCURVE",
"438 203 OFFCURVE",
"367 203 CURVE SMOOTH",
"296 203 OFFCURVE",
"267 245 OFFCURVE",
"267 322 CURVE SMOOTH",
"267 699 LINE",
"30 699 LINE",
"30 315 LINE SMOOTH",
"30 130 OFFCURVE",
"132 -15 OFFCURVE",
"367 -15 CURVE SMOOTH"
);
},
{
closed = 1;
nodes = (
"295 742 OFFCURVE",
"335 780 OFFCURVE",
"335 829 CURVE SMOOTH",
"335 878 OFFCURVE",
"295 917 OFFCURVE",
"247 917 CURVE SMOOTH",
"200 917 OFFCURVE",
"161 878 OFFCURVE",
"161 829 CURVE SMOOTH",
"161 780 OFFCURVE",
"200 742 OFFCURVE",
"247 742 CURVE SMOOTH"
);
},
{
closed = 1;
nodes = (
"529 742 OFFCURVE",
"570 780 OFFCURVE",
"570 829 CURVE SMOOTH",
"570 878 OFFCURVE",
"529 917 OFFCURVE",
"482 917 CURVE SMOOTH",
"434 917 OFFCURVE",
"395 878 OFFCURVE",
"395 829 CURVE SMOOTH",
"395 780 OFFCURVE",
"434 742 OFFCURVE",
"482 742 CURVE SMOOTH"
);
},
{
closed = 1;
nodes = (
"438 935 LINE",
"603 1096 LINE",
"411 1096 LINE",
"367 1046 LINE",
"323 1096 LINE",
"131 1096 LINE",
"296 935 LINE"
);
}
);
width = 734;
}
);
leftKerningGroup = U;
note = Udieresiscaron;
rightKerningGroup = U;
unicode = 01D9;
},
{
glyphname = Udieresisgrave;
lastChange = "2015-12-01 01:57:21 +0000";
layers = (
{
layerId = "A000C7A9-5E22-4BBF-9975-052AE6D21EBD";
name = Bold;
paths = (
{
closed = 1;
nodes = (
"602 -15 OFFCURVE",
"704 130 OFFCURVE",
"704 315 CURVE SMOOTH",
"704 699 LINE",
"466 699 LINE",
"466 322 LINE SMOOTH",
"466 245 OFFCURVE",
"438 203 OFFCURVE",
"367 203 CURVE SMOOTH",
"296 203 OFFCURVE",
"267 245 OFFCURVE",
"267 322 CURVE SMOOTH",
"267 699 LINE",
"30 699 LINE",
"30 315 LINE SMOOTH",
"30 130 OFFCURVE",
"132 -15 OFFCURVE",
"367 -15 CURVE SMOOTH"
);
},
{
closed = 1;
nodes = (
"299 742 OFFCURVE",
"339 780 OFFCURVE",
"339 829 CURVE SMOOTH",
"339 878 OFFCURVE",
"299 917 OFFCURVE",
"251 917 CURVE SMOOTH",
"204 917 OFFCURVE",
"165 878 OFFCURVE",
"165 829 CURVE SMOOTH",
"165 780 OFFCURVE",
"204 742 OFFCURVE",
"251 742 CURVE SMOOTH"
);
},
{
closed = 1;
nodes = (
"533 742 OFFCURVE",
"574 780 OFFCURVE",
"574 829 CURVE SMOOTH",
"574 878 OFFCURVE",
"533 917 OFFCURVE",
"486 917 CURVE SMOOTH",
"438 917 OFFCURVE",
"399 878 OFFCURVE",
"399 829 CURVE SMOOTH",
"399 780 OFFCURVE",
"438 742 OFFCURVE",
"486 742 CURVE SMOOTH"
);
},
{
closed = 1;
nodes = (
"456 944 LINE",
"399 1093 LINE",
"192 1093 LINE",
"276 944 LINE"
);
}
);
width = 734;
}
);
leftKerningGroup = U;
note = Udieresisgrave;
rightKerningGroup = U;
unicode = 01DB;
},
{
glyphname = Udieresismacron;
lastChange = "2015-12-01 01:57:21 +0000";
layers = (
{
layerId = "A000C7A9-5E22-4BBF-9975-052AE6D21EBD";
name = Bold;
paths = (
{
closed = 1;
nodes = (
"602 -15 OFFCURVE",
"704 130 OFFCURVE",
"704 315 CURVE SMOOTH",
"704 699 LINE",
"466 699 LINE",
"466 322 LINE SMOOTH",
"466 245 OFFCURVE",
"438 203 OFFCURVE",
"367 203 CURVE SMOOTH",
"296 203 OFFCURVE",
"267 245 OFFCURVE",
"267 322 CURVE SMOOTH",
"267 699 LINE",
"30 699 LINE",
"30 315 LINE SMOOTH",
"30 130 OFFCURVE",
"132 -15 OFFCURVE",
"367 -15 CURVE SMOOTH"
);
},
{
closed = 1;
nodes = (
"299 742 OFFCURVE",
"338 780 OFFCURVE",
"338 829 CURVE SMOOTH",
"338 878 OFFCURVE",
"299 917 OFFCURVE",
"251 917 CURVE SMOOTH",
"204 917 OFFCURVE",
"163 878 OFFCURVE",
"163 829 CURVE SMOOTH",
"163 780 OFFCURVE",
"204 742 OFFCURVE",
"251 742 CURVE SMOOTH"
);
},
{
closed = 1;
nodes = (
"533 742 OFFCURVE",
"572 780 OFFCURVE",
"572 829 CURVE SMOOTH",
"572 878 OFFCURVE",
"533 917 OFFCURVE",
"486 917 CURVE SMOOTH",
"438 917 OFFCURVE",
"398 878 OFFCURVE",
"398 829 CURVE SMOOTH",
"398 780 OFFCURVE",
"438 742 OFFCURVE",
"486 742 CURVE SMOOTH"
);
},
{
closed = 1;
nodes = (
"551 950 LINE",
"551 1093 LINE",
"184 1093 LINE",
"184 950 LINE"
);
}
);
width = 734;
}
);
leftKerningGroup = U;
note = Udieresismacron;
rightKerningGroup = U;
unicode = 01D5;
},
{
glyphname = Udotbelow;
lastChange = "2015-12-01 01:57:21 +0000";
layers = (
{
layerId = "A000C7A9-5E22-4BBF-9975-052AE6D21EBD";
name = Bold;
paths = (
{
closed = 1;
nodes = (
"602 -15 OFFCURVE",
"704 130 OFFCURVE",
"704 315 CURVE SMOOTH",
"704 699 LINE",
"466 699 LINE",
"466 322 LINE SMOOTH",
"466 245 OFFCURVE",
"438 203 OFFCURVE",
"367 203 CURVE SMOOTH",
"296 203 OFFCURVE",
"267 245 OFFCURVE",
"267 322 CURVE SMOOTH",
"267 699 LINE",
"30 699 LINE",
"30 315 LINE SMOOTH",
"30 130 OFFCURVE",
"132 -15 OFFCURVE",
"367 -15 CURVE SMOOTH"
);
},
{
closed = 1;
nodes = (
"416 -220 OFFCURVE",
"455 -182 OFFCURVE",
"455 -133 CURVE SMOOTH",
"455 -84 OFFCURVE",
"416 -45 OFFCURVE",
"368 -45 CURVE SMOOTH",
"321 -45 OFFCURVE",
"280 -84 OFFCURVE",
"280 -133 CURVE SMOOTH",
"280 -182 OFFCURVE",
"321 -220 OFFCURVE",
"368 -220 CURVE SMOOTH"
);
}
);
width = 734;
}
);
leftKerningGroup = U;
note = Udotbelow;
rightKerningGroup = U;
unicode = 1EE4;
},
{
glyphname = Ugrave;
lastChange = "2015-12-01 01:57:22 +0000";
layers = (
{
layerId = "A000C7A9-5E22-4BBF-9975-052AE6D21EBD";
name = Bold;
paths = (
{
closed = 1;
nodes = (
"602 -15 OFFCURVE",
"704 130 OFFCURVE",
"704 315 CURVE SMOOTH",
"704 699 LINE",
"466 699 LINE",
"466 322 LINE SMOOTH",
"466 245 OFFCURVE",
"438 203 OFFCURVE",
"367 203 CURVE SMOOTH",
"296 203 OFFCURVE",
"267 245 OFFCURVE",
"267 322 CURVE SMOOTH",
"267 699 LINE",
"30 699 LINE",
"30 315 LINE SMOOTH",
"30 130 OFFCURVE",
"132 -15 OFFCURVE",
"367 -15 CURVE SMOOTH"
);
},
{
closed = 1;
nodes = (
"466 742 LINE",
"398 923 LINE",
"181 923 LINE",
"276 742 LINE"
);
}
);
width = 734;
}
);
leftKerningGroup = U;
note = Ugrave;
rightKerningGroup = U;
unicode = 00D9;
},
{
glyphname = Uhookabove;
lastChange = "2015-12-01 01:57:21 +0000";
layers = (
{
layerId = "A000C7A9-5E22-4BBF-9975-052AE6D21EBD";
name = Bold;
paths = (
{
closed = 1;
nodes = (
"602 -15 OFFCURVE",
"704 130 OFFCURVE",
"704 315 CURVE SMOOTH",
"704 699 LINE",
"466 699 LINE",
"466 322 LINE SMOOTH",
"466 245 OFFCURVE",
"438 203 OFFCURVE",
"367 203 CURVE SMOOTH",
"296 203 OFFCURVE",
"267 245 OFFCURVE",
"267 322 CURVE SMOOTH",
"267 699 LINE",
"30 699 LINE",
"30 315 LINE SMOOTH",
"30 130 OFFCURVE",
"132 -15 OFFCURVE",
"367 -15 CURVE SMOOTH"
);
},
{
closed = 1;
nodes = (
"454 742 LINE",
"454 782 LINE",
"507 798 OFFCURVE",
"545 825 OFFCURVE",
"545 877 CURVE SMOOTH",
"545 940 OFFCURVE",
"487 981 OFFCURVE",
"368 981 CURVE SMOOTH",
"324 981 OFFCURVE",
"261 972 OFFCURVE",
"227 962 CURVE",
"227 877 LINE",
"240 881 OFFCURVE",
"264 886 OFFCURVE",
"284 886 CURVE SMOOTH",
"325 886 OFFCURVE",
"343 876 OFFCURVE",
"343 854 CURVE SMOOTH",
"343 827 OFFCURVE",
"323 816 OFFCURVE",
"267 816 CURVE",
"267 742 LINE"
);
}
);
width = 734;
}
);
leftKerningGroup = U;
note = Uhookabove;
rightKerningGroup = U;
unicode = 1EE6;
},
{
glyphname = Uhorn;
lastChange = "2015-12-01 01:57:19 +0000";
layers = (
{
layerId = "A000C7A9-5E22-4BBF-9975-052AE6D21EBD";
name = Bold;
paths = (
{
closed = 1;
nodes = (
"602 -15 OFFCURVE",
"704 130 OFFCURVE",
"704 315 CURVE SMOOTH",
"704 486 LINE",
"885 486 OFFCURVE",
"957 577 OFFCURVE",
"957 700 CURVE SMOOTH",
"957 747 LINE",
"778 747 LINE",
"778 715 LINE SMOOTH",
"778 666 OFFCURVE",
"764 639 OFFCURVE",
"704 639 CURVE",
"704 699 LINE",
"466 699 LINE",
"466 322 LINE SMOOTH",
"466 245 OFFCURVE",
"438 203 OFFCURVE",
"367 203 CURVE SMOOTH",
"296 203 OFFCURVE",
"267 245 OFFCURVE",
"267 322 CURVE SMOOTH",
"267 699 LINE",
"30 699 LINE",
"30 315 LINE SMOOTH",
"30 130 OFFCURVE",
"132 -15 OFFCURVE",
"367 -15 CURVE SMOOTH"
);
}
);
width = 952;
}
);
leftKerningGroup = U;
note = Uhorn;
rightKerningGroup = U;
unicode = 01AF;
},
{
glyphname = Uhornacute;
lastChange = "2015-12-01 01:57:21 +0000";
layers = (
{
layerId = "A000C7A9-5E22-4BBF-9975-052AE6D21EBD";
name = Bold;
paths = (
{
closed = 1;
nodes = (
"602 -15 OFFCURVE",
"704 130 OFFCURVE",
"704 315 CURVE SMOOTH",
"704 486 LINE",
"885 486 OFFCURVE",
"957 577 OFFCURVE",
"957 700 CURVE SMOOTH",
"957 747 LINE",
"778 747 LINE",
"778 715 LINE SMOOTH",
"778 666 OFFCURVE",
"764 639 OFFCURVE",
"704 639 CURVE",
"704 699 LINE",
"466 699 LINE",
"466 322 LINE SMOOTH",
"466 245 OFFCURVE",
"438 203 OFFCURVE",
"367 203 CURVE SMOOTH",
"296 203 OFFCURVE",
"267 245 OFFCURVE",
"267 322 CURVE SMOOTH",
"267 699 LINE",
"30 699 LINE",
"30 315 LINE SMOOTH",
"30 130 OFFCURVE",
"132 -15 OFFCURVE",
"367 -15 CURVE SMOOTH"
);
},
{
closed = 1;
nodes = (
"459 742 LINE",
"554 923 LINE",
"337 923 LINE",
"269 742 LINE"
);
}
);
width = 952;
}
);
leftKerningGroup = U;
note = Uhornacute;
rightKerningGroup = U;
unicode = 1EE8;
},
{
glyphname = Uhorndotbelow;
lastChange = "2015-12-01 01:57:22 +0000";
layers = (
{
layerId = "A000C7A9-5E22-4BBF-9975-052AE6D21EBD";
name = Bold;
paths = (
{
closed = 1;
nodes = (
"602 -15 OFFCURVE",
"704 130 OFFCURVE",
"704 315 CURVE SMOOTH",
"704 486 LINE",
"885 486 OFFCURVE",
"957 577 OFFCURVE",
"957 700 CURVE SMOOTH",
"957 747 LINE",
"778 747 LINE",
"778 715 LINE SMOOTH",
"778 666 OFFCURVE",
"764 639 OFFCURVE",
"704 639 CURVE",
"704 699 LINE",
"466 699 LINE",
"466 322 LINE SMOOTH",
"466 245 OFFCURVE",
"438 203 OFFCURVE",
"367 203 CURVE SMOOTH",
"296 203 OFFCURVE",
"267 245 OFFCURVE",
"267 322 CURVE SMOOTH",
"267 699 LINE",
"30 699 LINE",
"30 315 LINE SMOOTH",
"30 130 OFFCURVE",
"132 -15 OFFCURVE",
"367 -15 CURVE SMOOTH"
);
},
{
closed = 1;
nodes = (
"418 -220 OFFCURVE",
"457 -182 OFFCURVE",
"457 -133 CURVE SMOOTH",
"457 -84 OFFCURVE",
"418 -45 OFFCURVE",
"370 -45 CURVE SMOOTH",
"323 -45 OFFCURVE",
"282 -84 OFFCURVE",
"282 -133 CURVE SMOOTH",
"282 -182 OFFCURVE",
"323 -220 OFFCURVE",
"370 -220 CURVE SMOOTH"
);
}
);
width = 952;
}
);
leftKerningGroup = U;
note = Uhorndotbelow;
rightKerningGroup = U;
unicode = 1EF0;
},
{
glyphname = Uhorngrave;
lastChange = "2015-12-01 01:57:22 +0000";
layers = (
{
layerId = "A000C7A9-5E22-4BBF-9975-052AE6D21EBD";
name = Bold;
paths = (
{
closed = 1;
nodes = (
"602 -15 OFFCURVE",
"704 130 OFFCURVE",
"704 315 CURVE SMOOTH",
"704 486 LINE",
"885 486 OFFCURVE",
"957 577 OFFCURVE",
"957 700 CURVE SMOOTH",
"957 747 LINE",
"778 747 LINE",
"778 715 LINE SMOOTH",
"778 666 OFFCURVE",
"764 639 OFFCURVE",
"704 639 CURVE",
"704 699 LINE",
"466 699 LINE",
"466 322 LINE SMOOTH",
"466 245 OFFCURVE",
"438 203 OFFCURVE",
"367 203 CURVE SMOOTH",
"296 203 OFFCURVE",
"267 245 OFFCURVE",
"267 322 CURVE SMOOTH",
"267 699 LINE",
"30 699 LINE",
"30 315 LINE SMOOTH",
"30 130 OFFCURVE",
"132 -15 OFFCURVE",
"367 -15 CURVE SMOOTH"
);
},
{
closed = 1;
nodes = (
"463 742 LINE",
"395 923 LINE",
"178 923 LINE",
"273 742 LINE"
);
}
);
width = 952;
}
);
leftKerningGroup = U;
note = Uhorngrave;
rightKerningGroup = U;
unicode = 1EEA;
},
{
glyphname = Uhornhookabove;
lastChange = "2015-12-01 01:57:21 +0000";
layers = (
{
layerId = "A000C7A9-5E22-4BBF-9975-052AE6D21EBD";
name = Bold;
paths = (
{
closed = 1;
nodes = (
"602 -15 OFFCURVE",
"704 130 OFFCURVE",
"704 315 CURVE SMOOTH",
"704 486 LINE",
"885 486 OFFCURVE",
"957 577 OFFCURVE",
"957 700 CURVE SMOOTH",
"957 747 LINE",
"778 747 LINE",
"778 715 LINE SMOOTH",
"778 666 OFFCURVE",
"764 639 OFFCURVE",
"704 639 CURVE",
"704 699 LINE",
"466 699 LINE",
"466 322 LINE SMOOTH",
"466 245 OFFCURVE",
"438 203 OFFCURVE",
"367 203 CURVE SMOOTH",
"296 203 OFFCURVE",
"267 245 OFFCURVE",
"267 322 CURVE SMOOTH",
"267 699 LINE",
"30 699 LINE",
"30 315 LINE SMOOTH",
"30 130 OFFCURVE",
"132 -15 OFFCURVE",
"367 -15 CURVE SMOOTH"
);
},
{
closed = 1;
nodes = (
"467 742 LINE",
"467 782 LINE",
"520 798 OFFCURVE",
"558 825 OFFCURVE",
"558 877 CURVE SMOOTH",
"558 940 OFFCURVE",
"500 981 OFFCURVE",
"381 981 CURVE SMOOTH",
"337 981 OFFCURVE",
"274 972 OFFCURVE",
"240 962 CURVE",
"240 877 LINE",
"253 881 OFFCURVE",
"277 886 OFFCURVE",
"297 886 CURVE SMOOTH",
"338 886 OFFCURVE",
"356 876 OFFCURVE",
"356 854 CURVE SMOOTH",
"356 827 OFFCURVE",
"336 816 OFFCURVE",
"280 816 CURVE",
"280 742 LINE"
);
}
);
width = 952;
}
);
leftKerningGroup = U;
note = Uhornhookabove;
rightKerningGroup = U;
unicode = 1EEC;
},
{
glyphname = Uhorntilde;
lastChange = "2015-12-01 01:57:21 +0000";
layers = (
{
layerId = "A000C7A9-5E22-4BBF-9975-052AE6D21EBD";
name = Bold;
paths = (
{
closed = 1;
nodes = (
"602 -15 OFFCURVE",
"704 130 OFFCURVE",
"704 315 CURVE SMOOTH",
"704 486 LINE",
"885 486 OFFCURVE",
"957 577 OFFCURVE",
"957 700 CURVE SMOOTH",
"957 747 LINE",
"778 747 LINE",
"778 715 LINE SMOOTH",
"778 666 OFFCURVE",
"764 639 OFFCURVE",
"704 639 CURVE",
"704 699 LINE",
"466 699 LINE",
"466 322 LINE SMOOTH",
"466 245 OFFCURVE",
"438 203 OFFCURVE",
"367 203 CURVE SMOOTH",
"296 203 OFFCURVE",
"267 245 OFFCURVE",
"267 322 CURVE SMOOTH",
"267 699 LINE",
"30 699 LINE",
"30 315 LINE SMOOTH",
"30 130 OFFCURVE",
"132 -15 OFFCURVE",
"367 -15 CURVE SMOOTH"
);
},
{
closed = 1;
nodes = (
"537 742 OFFCURVE",
"575 753 OFFCURVE",
"601 782 CURVE",
"601 935 LINE",
"570 901 OFFCURVE",
"533 886 OFFCURVE",
"491 886 CURVE SMOOTH",
"426 886 OFFCURVE",
"355 936 OFFCURVE",
"287 936 CURVE SMOOTH",
"241 936 OFFCURVE",
"203 925 OFFCURVE",
"177 896 CURVE",
"177 743 LINE",
"208 777 OFFCURVE",
"245 792 OFFCURVE",
"287 792 CURVE SMOOTH",
"351 792 OFFCURVE",
"418 742 OFFCURVE",
"491 742 CURVE SMOOTH"
);
}
);
width = 952;
}
);
leftKerningGroup = U;
note = Uhorntilde;
rightKerningGroup = U;
unicode = 1EEE;
},
{
glyphname = Uhungarumlaut;
lastChange = "2015-12-01 01:57:21 +0000";
layers = (
{
layerId = "A000C7A9-5E22-4BBF-9975-052AE6D21EBD";
name = Bold;
paths = (
{
closed = 1;
nodes = (
"602 -15 OFFCURVE",
"704 130 OFFCURVE",
"704 315 CURVE SMOOTH",
"704 699 LINE",
"466 699 LINE",
"466 322 LINE SMOOTH",
"466 245 OFFCURVE",
"438 203 OFFCURVE",
"367 203 CURVE SMOOTH",
"296 203 OFFCURVE",
"267 245 OFFCURVE",
"267 322 CURVE SMOOTH",
"267 699 LINE",
"30 699 LINE",
"30 315 LINE SMOOTH",
"30 130 OFFCURVE",
"132 -15 OFFCURVE",
"367 -15 CURVE SMOOTH"
);
},
{
closed = 1;
nodes = (
"317 742 LINE",
"412 923 LINE",
"195 923 LINE",
"127 742 LINE"
);
},
{
closed = 1;
nodes = (
"597 742 LINE",
"692 923 LINE",
"475 923 LINE",
"407 742 LINE"
);
}
);
width = 734;
}
);
leftKerningGroup = U;
note = Uhungarumlaut;
rightKerningGroup = U;
unicode = 0170;
},
{
glyphname = Umacron;
lastChange = "2015-12-01 01:57:21 +0000";
layers = (
{
layerId = "A000C7A9-5E22-4BBF-9975-052AE6D21EBD";
name = Bold;
paths = (
{
closed = 1;
nodes = (
"602 -15 OFFCURVE",
"704 130 OFFCURVE",
"704 315 CURVE SMOOTH",
"704 699 LINE",
"466 699 LINE",
"466 322 LINE SMOOTH",
"466 245 OFFCURVE",
"438 203 OFFCURVE",
"367 203 CURVE SMOOTH",
"296 203 OFFCURVE",
"267 245 OFFCURVE",
"267 322 CURVE SMOOTH",
"267 699 LINE",
"30 699 LINE",
"30 315 LINE SMOOTH",
"30 130 OFFCURVE",
"132 -15 OFFCURVE",
"367 -15 CURVE SMOOTH"
);
},
{
closed = 1;
nodes = (
"551 742 LINE",
"551 885 LINE",
"184 885 LINE",
"184 742 LINE"
);
}
);
width = 734;
}
);
leftKerningGroup = U;
note = Umacron;
rightKerningGroup = U;
unicode = 016A;
},
{
glyphname = Uogonek;
lastChange = "2015-12-01 01:57:21 +0000";
layers = (
{
layerId = "A000C7A9-5E22-4BBF-9975-052AE6D21EBD";
name = Bold;
paths = (
{
closed = 1;
nodes = (
"602 -15 OFFCURVE",
"704 130 OFFCURVE",
"704 315 CURVE SMOOTH",
"704 699 LINE",
"466 699 LINE",
"466 322 LINE SMOOTH",
"466 245 OFFCURVE",
"438 203 OFFCURVE",
"367 203 CURVE SMOOTH",
"296 203 OFFCURVE",
"267 245 OFFCURVE",
"267 322 CURVE SMOOTH",
"267 699 LINE",
"30 699 LINE",
"30 315 LINE SMOOTH",
"30 130 OFFCURVE",
"132 -15 OFFCURVE",
"367 -15 CURVE SMOOTH"
);
},
{
closed = 1;
nodes = (
"395 -219 OFFCURVE",
"446 -212 OFFCURVE",
"477 -202 CURVE",
"477 -82 LINE",
"461 -90 OFFCURVE",
"444 -95 OFFCURVE",
"428 -95 CURVE SMOOTH",
"411 -95 OFFCURVE",
"402 -86 OFFCURVE",
"402 -72 CURVE SMOOTH",
"402 -45 OFFCURVE",
"424 -26 OFFCURVE",
"481 0 CURVE",
"276 0 LINE",
"234 -24 OFFCURVE",
"207 -63 OFFCURVE",
"207 -116 CURVE SMOOTH",
"207 -189 OFFCURVE",
"267 -219 OFFCURVE",
"349 -219 CURVE SMOOTH"
);
}
);
width = 734;
}
);
leftKerningGroup = U;
note = Uogonek;
rightKerningGroup = U;
unicode = 0172;
},
{
glyphname = Uring;
lastChange = "2015-12-01 01:57:22 +0000";
layers = (
{
layerId = "A000C7A9-5E22-4BBF-9975-052AE6D21EBD";
name = Bold;
paths = (
{
closed = 1;
nodes = (
"602 -15 OFFCURVE",
"704 130 OFFCURVE",
"704 315 CURVE SMOOTH",
"704 699 LINE",
"466 699 LINE",
"466 322 LINE SMOOTH",
"466 245 OFFCURVE",
"438 203 OFFCURVE",
"367 203 CURVE SMOOTH",
"296 203 OFFCURVE",
"267 245 OFFCURVE",
"267 322 CURVE SMOOTH",
"267 699 LINE",
"30 699 LINE",
"30 315 LINE SMOOTH",
"30 130 OFFCURVE",
"132 -15 OFFCURVE",
"367 -15 CURVE SMOOTH"
);
},
{
closed = 1;
nodes = (
"454 742 OFFCURVE",
"525 809 OFFCURVE",
"525 896 CURVE SMOOTH",
"525 983 OFFCURVE",
"454 1050 OFFCURVE",
"367 1050 CURVE SMOOTH",
"280 1050 OFFCURVE",
"209 983 OFFCURVE",
"209 896 CURVE SMOOTH",
"209 809 OFFCURVE",
"280 742 OFFCURVE",
"367 742 CURVE SMOOTH"
);
},
{
closed = 1;
nodes = (
"344 855 OFFCURVE",
"326 873 OFFCURVE",
"326 896 CURVE SMOOTH",
"326 919 OFFCURVE",
"344 937 OFFCURVE",
"367 937 CURVE SMOOTH",
"390 937 OFFCURVE",
"408 919 OFFCURVE",
"408 896 CURVE SMOOTH",
"408 873 OFFCURVE",
"390 855 OFFCURVE",
"367 855 CURVE SMOOTH"
);
}
);
width = 734;
}
);
leftKerningGroup = U;
note = Uring;
rightKerningGroup = U;
unicode = 016E;
},
{
glyphname = Utilde;
lastChange = "2015-12-01 01:57:21 +0000";
layers = (
{
layerId = "A000C7A9-5E22-4BBF-9975-052AE6D21EBD";
name = Bold;
paths = (
{
closed = 1;
nodes = (
"602 -15 OFFCURVE",
"704 130 OFFCURVE",
"704 315 CURVE SMOOTH",
"704 699 LINE",
"466 699 LINE",
"466 322 LINE SMOOTH",
"466 245 OFFCURVE",
"438 203 OFFCURVE",
"367 203 CURVE SMOOTH",
"296 203 OFFCURVE",
"267 245 OFFCURVE",
"267 322 CURVE SMOOTH",
"267 699 LINE",
"30 699 LINE",
"30 315 LINE SMOOTH",
"30 130 OFFCURVE",
"132 -15 OFFCURVE",
"367 -15 CURVE SMOOTH"
);
},
{
closed = 1;
nodes = (
"515 742 OFFCURVE",
"553 753 OFFCURVE",
"579 782 CURVE",
"579 935 LINE",
"548 901 OFFCURVE",
"511 886 OFFCURVE",
"469 886 CURVE SMOOTH",
"404 886 OFFCURVE",
"333 936 OFFCURVE",
"265 936 CURVE SMOOTH",
"219 936 OFFCURVE",
"181 925 OFFCURVE",
"155 896 CURVE",
"155 743 LINE",
"186 777 OFFCURVE",
"223 792 OFFCURVE",
"265 792 CURVE SMOOTH",
"329 792 OFFCURVE",
"396 742 OFFCURVE",
"469 742 CURVE SMOOTH"
);
}
);
width = 734;
}
);
leftKerningGroup = U;
note = Utilde;
rightKerningGroup = U;
unicode = 0168;
},
{
glyphname = V;
lastChange = "2015-12-01 01:57:19 +0000";
layers = (
{
layerId = "A000C7A9-5E22-4BBF-9975-052AE6D21EBD";
name = Bold;
paths = (
{
closed = 1;
nodes = (
"519 0 LINE",
"799 699 LINE",
"551 699 LINE",
"407 307 LINE",
"263 699 LINE",
"15 699 LINE",
"295 0 LINE"
);
}
);
width = 814;
}
);
note = V;
unicode = 0056;
},
{
glyphname = W;
lastChange = "2015-12-01 01:57:19 +0000";
layers = (
{
layerId = "A000C7A9-5E22-4BBF-9975-052AE6D21EBD";
name = Bold;
paths = (
{
closed = 1;
nodes = (
"409 0 LINE",
"494 318 LINE",
"579 0 LINE",
"794 0 LINE",
"973 699 LINE",
"727 699 LINE",
"651 382 LINE",
"583 699 LINE",
"415 699 LINE",
"337 383 LINE",
"261 699 LINE",
"15 699 LINE",
"194 0 LINE"
);
}
);
width = 988;
}
);
leftKerningGroup = W;
note = W;
rightKerningGroup = W;
unicode = 0057;
},
{
glyphname = Wacute;
lastChange = "2015-12-01 01:57:21 +0000";
layers = (
{
layerId = "A000C7A9-5E22-4BBF-9975-052AE6D21EBD";
name = Bold;
paths = (
{
closed = 1;
nodes = (
"409 0 LINE",
"494 318 LINE",
"579 0 LINE",
"794 0 LINE",
"973 699 LINE",
"727 699 LINE",
"651 382 LINE",
"583 699 LINE",
"415 699 LINE",
"337 383 LINE",
"261 699 LINE",
"15 699 LINE",
"194 0 LINE"
);
},
{
closed = 1;
nodes = (
"590 742 LINE",
"685 923 LINE",
"468 923 LINE",
"400 742 LINE"
);
}
);
width = 988;
}
);
leftKerningGroup = W;
note = Wacute;
rightKerningGroup = W;
unicode = 1E82;
},
{
glyphname = Wcircumflex;
lastChange = "2015-12-01 01:57:21 +0000";
layers = (
{
layerId = "A000C7A9-5E22-4BBF-9975-052AE6D21EBD";
name = Bold;
paths = (
{
closed = 1;
nodes = (
"409 0 LINE",
"494 318 LINE",
"579 0 LINE",
"794 0 LINE",
"973 699 LINE",
"727 699 LINE",
"651 382 LINE",
"583 699 LINE",
"415 699 LINE",
"337 383 LINE",
"261 699 LINE",
"15 699 LINE",
"194 0 LINE"
);
},
{
closed = 1;
nodes = (
"435 742 LINE",
"494 822 LINE",
"553 742 LINE",
"760 742 LINE",
"595 933 LINE",
"393 933 LINE",
"228 742 LINE"
);
}
);
width = 988;
}
);
leftKerningGroup = W;
note = Wcircumflex;
rightKerningGroup = W;
unicode = 0174;
},
{
glyphname = Wdieresis;
lastChange = "2015-12-01 01:57:21 +0000";
layers = (
{
layerId = "A000C7A9-5E22-4BBF-9975-052AE6D21EBD";
name = Bold;
paths = (
{
closed = 1;
nodes = (
"409 0 LINE",
"494 318 LINE",
"579 0 LINE",
"794 0 LINE",
"973 699 LINE",
"727 699 LINE",
"651 382 LINE",
"583 699 LINE",
"415 699 LINE",
"337 383 LINE",
"261 699 LINE",
"15 699 LINE",
"194 0 LINE"
);
},
{
closed = 1;
nodes = (
"426 742 OFFCURVE",
"465 780 OFFCURVE",
"465 829 CURVE SMOOTH",
"465 878 OFFCURVE",
"426 917 OFFCURVE",
"378 917 CURVE SMOOTH",
"331 917 OFFCURVE",
"290 878 OFFCURVE",
"290 829 CURVE SMOOTH",
"290 780 OFFCURVE",
"331 742 OFFCURVE",
"378 742 CURVE SMOOTH"
);
},
{
closed = 1;
nodes = (
"660 742 OFFCURVE",
"699 780 OFFCURVE",
"699 829 CURVE SMOOTH",
"699 878 OFFCURVE",
"660 917 OFFCURVE",
"613 917 CURVE SMOOTH",
"565 917 OFFCURVE",
"525 878 OFFCURVE",
"525 829 CURVE SMOOTH",
"525 780 OFFCURVE",
"565 742 OFFCURVE",
"613 742 CURVE SMOOTH"
);
}
);
width = 988;
}
);
leftKerningGroup = W;
note = Wdieresis;
rightKerningGroup = W;
unicode = 1E84;
},
{
glyphname = Wgrave;
lastChange = "2015-12-01 01:57:22 +0000";
layers = (
{
layerId = "A000C7A9-5E22-4BBF-9975-052AE6D21EBD";
name = Bold;
paths = (
{
closed = 1;
nodes = (
"409 0 LINE",
"494 318 LINE",
"579 0 LINE",
"794 0 LINE",
"973 699 LINE",
"727 699 LINE",
"651 382 LINE",
"583 699 LINE",
"415 699 LINE",
"337 383 LINE",
"261 699 LINE",
"15 699 LINE",
"194 0 LINE"
);
},
{
closed = 1;
nodes = (
"590 742 LINE",
"522 923 LINE",
"305 923 LINE",
"400 742 LINE"
);
}
);
width = 988;
}
);
leftKerningGroup = W;
note = Wgrave;
rightKerningGroup = W;
unicode = 1E80;
},
{
glyphname = X;
lastChange = "2015-12-01 01:57:19 +0000";
layers = (
{
layerId = "A000C7A9-5E22-4BBF-9975-052AE6D21EBD";
name = Bold;
paths = (
{
closed = 1;
nodes = (
"286 0 LINE",
"403 164 LINE",
"520 0 LINE",
"791 0 LINE",
"538 353 LINE",
"786 699 LINE",
"515 699 LINE",
"403 542 LINE",
"291 699 LINE",
"21 699 LINE",
"268 353 LINE",
"15 0 LINE"
);
}
);
width = 806;
}
);
note = X;
unicode = 0058;
},
{
glyphname = Y;
lastChange = "2015-12-01 01:57:19 +0000";
layers = (
{
layerId = "A000C7A9-5E22-4BBF-9975-052AE6D21EBD";
name = Bold;
paths = (
{
closed = 1;
nodes = (
"505 0 LINE",
"505 267 LINE",
"768 699 LINE",
"516 699 LINE",
"387 478 LINE",
"268 699 LINE",
"15 699 LINE",
"268 267 LINE",
"268 0 LINE"
);
}
);
width = 783;
}
);
leftKerningGroup = Y;
note = Y;
rightKerningGroup = Y;
unicode = 0059;
},
{
glyphname = Yacute;
lastChange = "2015-12-01 01:57:21 +0000";
layers = (
{
layerId = "A000C7A9-5E22-4BBF-9975-052AE6D21EBD";
name = Bold;
paths = (
{
closed = 1;
nodes = (
"505 0 LINE",
"505 267 LINE",
"768 699 LINE",
"516 699 LINE",
"387 478 LINE",
"268 699 LINE",
"15 699 LINE",
"268 267 LINE",
"268 0 LINE"
);
},
{
closed = 1;
nodes = (
"487 742 LINE",
"582 923 LINE",
"365 923 LINE",
"297 742 LINE"
);
}
);
width = 783;
}
);
leftKerningGroup = Y;
note = Yacute;
rightKerningGroup = Y;
unicode = 00DD;
},
{
glyphname = Ycircumflex;
lastChange = "2015-12-01 01:57:21 +0000";
layers = (
{
layerId = "A000C7A9-5E22-4BBF-9975-052AE6D21EBD";
name = Bold;
paths = (
{
closed = 1;
nodes = (
"505 0 LINE",
"505 267 LINE",
"768 699 LINE",
"516 699 LINE",
"387 478 LINE",
"268 699 LINE",
"15 699 LINE",
"268 267 LINE",
"268 0 LINE"
);
},
{
closed = 1;
nodes = (
"328 742 LINE",
"387 822 LINE",
"446 742 LINE",
"653 742 LINE",
"488 933 LINE",
"286 933 LINE",
"121 742 LINE"
);
}
);
width = 783;
}
);
leftKerningGroup = Y;
note = Ycircumflex;
rightKerningGroup = Y;
unicode = 0176;
},
{
glyphname = Ydieresis;
lastChange = "2015-12-01 01:57:21 +0000";
layers = (
{
layerId = "A000C7A9-5E22-4BBF-9975-052AE6D21EBD";
name = Bold;
paths = (
{
closed = 1;
nodes = (
"505 0 LINE",
"505 267 LINE",
"768 699 LINE",
"516 699 LINE",
"387 478 LINE",
"268 699 LINE",
"15 699 LINE",
"268 267 LINE",
"268 0 LINE"
);
},
{
closed = 1;
nodes = (
"319 742 OFFCURVE",
"358 780 OFFCURVE",
"358 829 CURVE SMOOTH",
"358 878 OFFCURVE",
"319 917 OFFCURVE",
"271 917 CURVE SMOOTH",
"224 917 OFFCURVE",
"183 878 OFFCURVE",
"183 829 CURVE SMOOTH",
"183 780 OFFCURVE",
"224 742 OFFCURVE",
"271 742 CURVE SMOOTH"
);
},
{
closed = 1;
nodes = (
"553 742 OFFCURVE",
"592 780 OFFCURVE",
"592 829 CURVE SMOOTH",
"592 878 OFFCURVE",
"553 917 OFFCURVE",
"506 917 CURVE SMOOTH",
"458 917 OFFCURVE",
"418 878 OFFCURVE",
"418 829 CURVE SMOOTH",
"418 780 OFFCURVE",
"458 742 OFFCURVE",
"506 742 CURVE SMOOTH"
);
}
);
width = 783;
}
);
leftKerningGroup = Y;
note = Ydieresis;
rightKerningGroup = Y;
unicode = 0178;
},
{
glyphname = Ydotaccent;
lastChange = "2015-12-01 01:57:22 +0000";
layers = (
{
layerId = "A000C7A9-5E22-4BBF-9975-052AE6D21EBD";
name = Bold;
paths = (
{
closed = 1;
nodes = (
"505 0 LINE",
"505 267 LINE",
"768 699 LINE",
"516 699 LINE",
"387 478 LINE",
"268 699 LINE",
"15 699 LINE",
"268 267 LINE",
"268 0 LINE"
);
},
{
closed = 1;
nodes = (
"381 742 OFFCURVE",
"420 780 OFFCURVE",
"420 829 CURVE SMOOTH",
"420 878 OFFCURVE",
"381 917 OFFCURVE",
"333 917 CURVE SMOOTH",
"286 917 OFFCURVE",
"245 878 OFFCURVE",
"245 829 CURVE SMOOTH",
"245 780 OFFCURVE",
"286 742 OFFCURVE",
"333 742 CURVE SMOOTH"
);
}
);
width = 783;
}
);
leftKerningGroup = Y;
note = Ydotaccent;
rightKerningGroup = Y;
unicode = 1E8E;
},
{
glyphname = Ydotbelow;
lastChange = "2015-12-01 01:57:22 +0000";
layers = (
{
layerId = "A000C7A9-5E22-4BBF-9975-052AE6D21EBD";
name = Bold;
paths = (
{
closed = 1;
nodes = (
"505 0 LINE",
"505 267 LINE",
"768 699 LINE",
"516 699 LINE",
"387 478 LINE",
"268 699 LINE",
"15 699 LINE",
"268 267 LINE",
"268 0 LINE"
);
},
{
closed = 1;
nodes = (
"436 -220 OFFCURVE",
"475 -182 OFFCURVE",
"475 -133 CURVE SMOOTH",
"475 -84 OFFCURVE",
"436 -45 OFFCURVE",
"388 -45 CURVE SMOOTH",
"341 -45 OFFCURVE",
"300 -84 OFFCURVE",
"300 -133 CURVE SMOOTH",
"300 -182 OFFCURVE",
"341 -220 OFFCURVE",
"388 -220 CURVE SMOOTH"
);
}
);
width = 783;
}
);
leftKerningGroup = Y;
note = Ydotbelow;
rightKerningGroup = Y;
unicode = 1EF4;
},
{
glyphname = Ygrave;
lastChange = "2015-12-01 01:57:22 +0000";
layers = (
{
layerId = "A000C7A9-5E22-4BBF-9975-052AE6D21EBD";
name = Bold;
paths = (
{
closed = 1;
nodes = (
"505 0 LINE",
"505 267 LINE",
"768 699 LINE",
"516 699 LINE",
"387 478 LINE",
"268 699 LINE",
"15 699 LINE",
"268 267 LINE",
"268 0 LINE"
);
},
{
closed = 1;
nodes = (
"478 742 LINE",
"410 923 LINE",
"193 923 LINE",
"288 742 LINE"
);
}
);
width = 783;
}
);
leftKerningGroup = Y;
note = Ygrave;
rightKerningGroup = Y;
unicode = 1EF2;
},
{
glyphname = Yhookabove;
lastChange = "2015-12-01 01:57:21 +0000";
layers = (
{
layerId = "A000C7A9-5E22-4BBF-9975-052AE6D21EBD";
name = Bold;
paths = (
{
closed = 1;
nodes = (
"505 0 LINE",
"505 267 LINE",
"768 699 LINE",
"516 699 LINE",
"387 478 LINE",
"268 699 LINE",
"15 699 LINE",
"268 267 LINE",
"268 0 LINE"
);
},
{
closed = 1;
nodes = (
"480 742 LINE",
"480 782 LINE",
"533 798 OFFCURVE",
"571 825 OFFCURVE",
"571 877 CURVE SMOOTH",
"571 940 OFFCURVE",
"513 981 OFFCURVE",
"394 981 CURVE SMOOTH",
"350 981 OFFCURVE",
"287 972 OFFCURVE",
"253 962 CURVE",
"253 877 LINE",
"266 881 OFFCURVE",
"290 886 OFFCURVE",
"310 886 CURVE SMOOTH",
"351 886 OFFCURVE",
"369 876 OFFCURVE",
"369 854 CURVE SMOOTH",
"369 827 OFFCURVE",
"349 816 OFFCURVE",
"293 816 CURVE",
"293 742 LINE"
);
}
);
width = 783;
}
);
leftKerningGroup = Y;
note = Yhookabove;
rightKerningGroup = Y;
unicode = 1EF6;
},
{
glyphname = Ytilde;
lastChange = "2015-12-01 01:57:22 +0000";
layers = (
{
layerId = "A000C7A9-5E22-4BBF-9975-052AE6D21EBD";
name = Bold;
paths = (
{
closed = 1;
nodes = (
"505 0 LINE",
"505 267 LINE",
"768 699 LINE",
"516 699 LINE",
"387 478 LINE",
"268 699 LINE",
"15 699 LINE",
"268 267 LINE",
"268 0 LINE"
);
},
{
closed = 1;
nodes = (
"535 742 OFFCURVE",
"573 753 OFFCURVE",
"599 782 CURVE",
"599 935 LINE",
"568 901 OFFCURVE",
"531 886 OFFCURVE",
"489 886 CURVE SMOOTH",
"424 886 OFFCURVE",
"353 936 OFFCURVE",
"285 936 CURVE SMOOTH",
"239 936 OFFCURVE",
"201 925 OFFCURVE",
"175 896 CURVE",
"175 743 LINE",
"206 777 OFFCURVE",
"243 792 OFFCURVE",
"285 792 CURVE SMOOTH",
"349 792 OFFCURVE",
"416 742 OFFCURVE",
"489 742 CURVE SMOOTH"
);
}
);
width = 783;
}
);
leftKerningGroup = Y;
note = Ytilde;
rightKerningGroup = Y;
unicode = 1EF8;
},
{
glyphname = Z;
lastChange = "2015-12-01 01:57:19 +0000";
layers = (
{
layerId = "A000C7A9-5E22-4BBF-9975-052AE6D21EBD";
name = Bold;
paths = (
{
closed = 1;
nodes = (
"597 0 LINE",
"597 199 LINE",
"306 199 LINE",
"572 546 LINE",
"572 699 LINE",
"21 699 LINE",
"21 500 LINE",
"282 500 LINE",
"15 152 LINE",
"15 0 LINE"
);
}
);
width = 612;
}
);
leftKerningGroup = Z;
note = Z;
rightKerningGroup = Z;
unicode = 005A;
},
{
glyphname = Zacute;
lastChange = "2015-12-01 01:57:22 +0000";
layers = (
{
layerId = "A000C7A9-5E22-4BBF-9975-052AE6D21EBD";
name = Bold;
paths = (
{
closed = 1;
nodes = (
"597 0 LINE",
"597 199 LINE",
"306 199 LINE",
"572 546 LINE",
"572 699 LINE",
"21 699 LINE",
"21 500 LINE",
"282 500 LINE",
"15 152 LINE",
"15 0 LINE"
);
},
{
closed = 1;
nodes = (
"372 742 LINE",
"467 923 LINE",
"250 923 LINE",
"182 742 LINE"
);
}
);
width = 612;
}
);
leftKerningGroup = Z;
note = Zacute;
rightKerningGroup = Z;
unicode = 0179;
},
{
glyphname = Zcaron;
lastChange = "2015-12-01 01:57:21 +0000";
layers = (
{
layerId = "A000C7A9-5E22-4BBF-9975-052AE6D21EBD";
name = Bold;
paths = (
{
closed = 1;
nodes = (
"597 0 LINE",
"597 199 LINE",
"306 199 LINE",
"572 546 LINE",
"572 699 LINE",
"21 699 LINE",
"21 500 LINE",
"282 500 LINE",
"15 152 LINE",
"15 0 LINE"
);
},
{
closed = 1;
nodes = (
"399 742 LINE",
"564 933 LINE",
"357 933 LINE",
"298 853 LINE",
"239 933 LINE",
"32 933 LINE",
"197 742 LINE"
);
}
);
width = 612;
}
);
leftKerningGroup = Z;
note = Zcaron;
rightKerningGroup = Z;
unicode = 017D;
},
{
glyphname = Zdotaccent;
lastChange = "2015-12-01 01:57:21 +0000";
layers = (
{
layerId = "A000C7A9-5E22-4BBF-9975-052AE6D21EBD";
name = Bold;
paths = (
{
closed = 1;
nodes = (
"597 0 LINE",
"597 199 LINE",
"306 199 LINE",
"572 546 LINE",
"572 699 LINE",
"21 699 LINE",
"21 500 LINE",
"282 500 LINE",
"15 152 LINE",
"15 0 LINE"
);
},
{
closed = 1;
nodes = (
"346 742 OFFCURVE",
"385 780 OFFCURVE",
"385 829 CURVE SMOOTH",
"385 878 OFFCURVE",
"346 917 OFFCURVE",
"298 917 CURVE SMOOTH",
"251 917 OFFCURVE",
"210 878 OFFCURVE",
"210 829 CURVE SMOOTH",
"210 780 OFFCURVE",
"251 742 OFFCURVE",
"298 742 CURVE SMOOTH"
);
}
);
width = 612;
}
);
leftKerningGroup = Z;
note = Zdotaccent;
rightKerningGroup = Z;
unicode = 017B;
},
{
glyphname = Zdotbelow;
lastChange = "2015-12-01 01:57:21 +0000";
layers = (
{
layerId = "A000C7A9-5E22-4BBF-9975-052AE6D21EBD";
name = Bold;
paths = (
{
closed = 1;
nodes = (
"597 0 LINE",
"597 199 LINE",
"306 199 LINE",
"572 546 LINE",
"572 699 LINE",
"21 699 LINE",
"21 500 LINE",
"282 500 LINE",
"15 152 LINE",
"15 0 LINE"
);
},
{
closed = 1;
nodes = (
"331 -220 OFFCURVE",
"370 -182 OFFCURVE",
"370 -133 CURVE SMOOTH",
"370 -84 OFFCURVE",
"331 -45 OFFCURVE",
"283 -45 CURVE SMOOTH",
"236 -45 OFFCURVE",
"195 -84 OFFCURVE",
"195 -133 CURVE SMOOTH",
"195 -182 OFFCURVE",
"236 -220 OFFCURVE",
"283 -220 CURVE SMOOTH"
);
}
);
width = 612;
}
);
leftKerningGroup = Z;
note = Zdotbelow;
rightKerningGroup = Z;
unicode = 1E92;
},
{
glyphname = a;
lastChange = "2015-12-01 01:57:22 +0000";
layers = (
{
layerId = "A000C7A9-5E22-4BBF-9975-052AE6D21EBD";
name = Bold;
paths = (
{
closed = 1;
nodes = (
"287 -15 OFFCURVE",
"348 8 OFFCURVE",
"377 35 CURVE",
"377 0 LINE",
"589 0 LINE",
"589 292 LINE SMOOTH",
"589 421 OFFCURVE",
"484 495 OFFCURVE",
"291 495 CURVE SMOOTH",
"201 495 OFFCURVE",
"127 480 OFFCURVE",
"85 459 CURVE",
"85 316 LINE",
"131 339 OFFCURVE",
"185 352 OFFCURVE",
"244 352 CURVE SMOOTH",
"315 352 OFFCURVE",
"364 331 OFFCURVE",
"364 296 CURVE SMOOTH",
"364 288 LINE",
"332 301 OFFCURVE",
"276 313 OFFCURVE",
"231 313 CURVE SMOOTH",
"88 313 OFFCURVE",
"15 256 OFFCURVE",
"15 148 CURVE SMOOTH",
"15 38 OFFCURVE",
"101 -15 OFFCURVE",
"221 -15 CURVE SMOOTH"
);
},
{
closed = 1;
nodes = (
"263 109 OFFCURVE",
"248 126 OFFCURVE",
"248 148 CURVE SMOOTH",
"248 172 OFFCURVE",
"265 188 OFFCURVE",
"293 188 CURVE SMOOTH",
"320 188 OFFCURVE",
"345 180 OFFCURVE",
"364 169 CURVE",
"364 137 LINE",
"350 122 OFFCURVE",
"323 109 OFFCURVE",
"293 109 CURVE SMOOTH"
);
}
);
width = 619;
}
);
leftKerningGroup = a;
note = a;
rightKerningGroup = a;
unicode = 0061;
},
{
glyphname = aacute;
lastChange = "2015-12-01 01:57:21 +0000";
layers = (
{
layerId = "A000C7A9-5E22-4BBF-9975-052AE6D21EBD";
name = Bold;
paths = (
{
closed = 1;
nodes = (
"287 -15 OFFCURVE",
"348 8 OFFCURVE",
"377 35 CURVE",
"377 0 LINE",
"589 0 LINE",
"589 292 LINE SMOOTH",
"589 421 OFFCURVE",
"484 495 OFFCURVE",
"291 495 CURVE SMOOTH",
"201 495 OFFCURVE",
"127 480 OFFCURVE",
"85 459 CURVE",
"85 316 LINE",
"131 339 OFFCURVE",
"185 352 OFFCURVE",
"244 352 CURVE SMOOTH",
"315 352 OFFCURVE",
"364 331 OFFCURVE",
"364 296 CURVE SMOOTH",
"364 288 LINE",
"332 301 OFFCURVE",
"276 313 OFFCURVE",
"231 313 CURVE SMOOTH",
"88 313 OFFCURVE",
"15 256 OFFCURVE",
"15 148 CURVE SMOOTH",
"15 38 OFFCURVE",
"101 -15 OFFCURVE",
"221 -15 CURVE SMOOTH"
);
},
{
closed = 1;
nodes = (
"263 109 OFFCURVE",
"248 126 OFFCURVE",
"248 148 CURVE SMOOTH",
"248 172 OFFCURVE",
"265 188 OFFCURVE",
"293 188 CURVE SMOOTH",
"320 188 OFFCURVE",
"345 180 OFFCURVE",
"364 169 CURVE",
"364 137 LINE",
"350 122 OFFCURVE",
"323 109 OFFCURVE",
"293 109 CURVE SMOOTH"
);
},
{
closed = 1;
nodes = (
"406 517 LINE",
"501 698 LINE",
"284 698 LINE",
"216 517 LINE"
);
}
);
width = 619;
}
);
leftKerningGroup = a;
note = aacute;
rightKerningGroup = a;
unicode = 00E1;
},
{
glyphname = abreve;
lastChange = "2015-12-01 01:57:21 +0000";
layers = (
{
layerId = "A000C7A9-5E22-4BBF-9975-052AE6D21EBD";
name = Bold;
paths = (
{
closed = 1;
nodes = (
"287 -15 OFFCURVE",
"348 8 OFFCURVE",
"377 35 CURVE",
"377 0 LINE",
"589 0 LINE",
"589 292 LINE SMOOTH",
"589 421 OFFCURVE",
"484 495 OFFCURVE",
"291 495 CURVE SMOOTH",
"201 495 OFFCURVE",
"127 480 OFFCURVE",
"85 459 CURVE",
"85 316 LINE",
"131 339 OFFCURVE",
"185 352 OFFCURVE",
"244 352 CURVE SMOOTH",
"315 352 OFFCURVE",
"364 331 OFFCURVE",
"364 296 CURVE SMOOTH",
"364 288 LINE",
"332 301 OFFCURVE",
"276 313 OFFCURVE",
"231 313 CURVE SMOOTH",
"88 313 OFFCURVE",
"15 256 OFFCURVE",
"15 148 CURVE SMOOTH",
"15 38 OFFCURVE",
"101 -15 OFFCURVE",
"221 -15 CURVE SMOOTH"
);
},
{
closed = 1;
nodes = (
"263 109 OFFCURVE",
"248 126 OFFCURVE",
"248 148 CURVE SMOOTH",
"248 172 OFFCURVE",
"265 188 OFFCURVE",
"293 188 CURVE SMOOTH",
"320 188 OFFCURVE",
"345 180 OFFCURVE",
"364 169 CURVE",
"364 137 LINE",
"350 122 OFFCURVE",
"323 109 OFFCURVE",
"293 109 CURVE SMOOTH"
);
},
{
closed = 1;
nodes = (
"467 517 OFFCURVE",
"539 591 OFFCURVE",
"539 712 CURVE",
"372 712 LINE",
"372 673 OFFCURVE",
"359 654 OFFCURVE",
"334 654 CURVE SMOOTH",
"309 654 OFFCURVE",
"296 673 OFFCURVE",
"296 712 CURVE",
"129 712 LINE",
"129 591 OFFCURVE",
"201 517 OFFCURVE",
"334 517 CURVE SMOOTH"
);
}
);
width = 619;
}
);
leftKerningGroup = a;
note = abreve;
rightKerningGroup = a;
unicode = 0103;
},
{
glyphname = abreveacute;
lastChange = "2015-12-01 01:57:22 +0000";
layers = (
{
layerId = "A000C7A9-5E22-4BBF-9975-052AE6D21EBD";
name = Bold;
paths = (
{
closed = 1;
nodes = (
"287 -15 OFFCURVE",
"348 8 OFFCURVE",
"377 35 CURVE",
"377 0 LINE",
"589 0 LINE",
"589 292 LINE SMOOTH",
"589 421 OFFCURVE",
"484 495 OFFCURVE",
"291 495 CURVE SMOOTH",
"201 495 OFFCURVE",
"127 480 OFFCURVE",
"85 459 CURVE",
"85 316 LINE",
"131 339 OFFCURVE",
"185 352 OFFCURVE",
"244 352 CURVE SMOOTH",
"315 352 OFFCURVE",
"364 331 OFFCURVE",
"364 296 CURVE SMOOTH",
"364 288 LINE",
"332 301 OFFCURVE",
"276 313 OFFCURVE",
"231 313 CURVE SMOOTH",
"88 313 OFFCURVE",
"15 256 OFFCURVE",
"15 148 CURVE SMOOTH",
"15 38 OFFCURVE",
"101 -15 OFFCURVE",
"221 -15 CURVE SMOOTH"
);
},
{
closed = 1;
nodes = (
"263 109 OFFCURVE",
"248 126 OFFCURVE",
"248 148 CURVE SMOOTH",
"248 172 OFFCURVE",
"265 188 OFFCURVE",
"293 188 CURVE SMOOTH",
"320 188 OFFCURVE",
"345 180 OFFCURVE",
"364 169 CURVE",
"364 137 LINE",
"350 122 OFFCURVE",
"323 109 OFFCURVE",
"293 109 CURVE SMOOTH"
);
},
{
closed = 1;
nodes = (
"429 517 OFFCURVE",
"509 579 OFFCURVE",
"509 679 CURVE",
"370 679 LINE",
"370 647 OFFCURVE",
"354 626 OFFCURVE",
"319 626 CURVE SMOOTH",
"284 626 OFFCURVE",
"268 647 OFFCURVE",
"268 679 CURVE",
"129 679 LINE",
"129 579 OFFCURVE",
"209 517 OFFCURVE",
"319 517 CURVE SMOOTH"
);
},
{
closed = 1;
nodes = (
"397 696 LINE",
"476 838 LINE",
"290 838 LINE",
"236 696 LINE"
);
}
);
width = 619;
}
);
leftKerningGroup = a;
note = abreveacute;
rightKerningGroup = a;
unicode = 1EAF;
},
{
glyphname = abrevedotbelow;
lastChange = "2015-12-01 02:01:35 +0000";
layers = (
{
layerId = "A000C7A9-5E22-4BBF-9975-052AE6D21EBD";
name = Bold;
paths = (
{
closed = 1;
nodes = (
"287 -15 OFFCURVE",
"348 8 OFFCURVE",
"377 35 CURVE",
"377 0 LINE",
"589 0 LINE",
"589 292 LINE SMOOTH",
"589 421 OFFCURVE",
"484 495 OFFCURVE",
"291 495 CURVE SMOOTH",
"201 495 OFFCURVE",
"127 480 OFFCURVE",
"85 459 CURVE",
"85 316 LINE",
"131 339 OFFCURVE",
"185 352 OFFCURVE",
"244 352 CURVE SMOOTH",
"315 352 OFFCURVE",
"364 331 OFFCURVE",
"364 296 CURVE SMOOTH",
"364 288 LINE",
"332 301 OFFCURVE",
"276 313 OFFCURVE",
"231 313 CURVE SMOOTH",
"88 313 OFFCURVE",
"15 256 OFFCURVE",
"15 148 CURVE SMOOTH",
"15 38 OFFCURVE",
"101 -15 OFFCURVE",
"221 -15 CURVE SMOOTH"
);
},
{
closed = 1;
nodes = (
"263 109 OFFCURVE",
"248 126 OFFCURVE",
"248 148 CURVE SMOOTH",
"248 172 OFFCURVE",
"265 188 OFFCURVE",
"293 188 CURVE SMOOTH",
"320 188 OFFCURVE",
"345 180 OFFCURVE",
"364 169 CURVE",
"364 137 LINE",
"350 122 OFFCURVE",
"323 109 OFFCURVE",
"293 109 CURVE SMOOTH"
);
},
{
closed = 1;
nodes = (
"458 517 OFFCURVE",
"530 591 OFFCURVE",
"530 712 CURVE",
"363 712 LINE",
"363 673 OFFCURVE",
"350 654 OFFCURVE",
"325 654 CURVE SMOOTH",
"300 654 OFFCURVE",
"287 673 OFFCURVE",
"287 712 CURVE",
"120 712 LINE",
"120 591 OFFCURVE",
"192 517 OFFCURVE",
"325 517 CURVE SMOOTH"
);
},
{
closed = 1;
nodes = (
"373 -220 OFFCURVE",
"412 -182 OFFCURVE",
"412 -133 CURVE SMOOTH",
"412 -84 OFFCURVE",
"373 -45 OFFCURVE",
"325 -45 CURVE SMOOTH",
"278 -45 OFFCURVE",
"237 -84 OFFCURVE",
"237 -133 CURVE SMOOTH",
"237 -182 OFFCURVE",
"278 -220 OFFCURVE",
"325 -220 CURVE SMOOTH"
);
}
);
width = 619;
}
);
leftKerningGroup = a;
note = abrevedotbelow;
rightKerningGroup = a;
unicode = 1EB7;
},
{
glyphname = abrevegrave;
lastChange = "2015-12-01 01:57:22 +0000";
layers = (
{
layerId = "A000C7A9-5E22-4BBF-9975-052AE6D21EBD";
name = Bold;
paths = (
{
closed = 1;
nodes = (
"287 -15 OFFCURVE",
"348 8 OFFCURVE",
"377 35 CURVE",
"377 0 LINE",
"589 0 LINE",
"589 292 LINE SMOOTH",
"589 421 OFFCURVE",
"484 495 OFFCURVE",
"291 495 CURVE SMOOTH",
"201 495 OFFCURVE",
"127 480 OFFCURVE",
"85 459 CURVE",
"85 316 LINE",
"131 339 OFFCURVE",
"185 352 OFFCURVE",
"244 352 CURVE SMOOTH",
"315 352 OFFCURVE",
"364 331 OFFCURVE",
"364 296 CURVE SMOOTH",
"364 288 LINE",
"332 301 OFFCURVE",
"276 313 OFFCURVE",
"231 313 CURVE SMOOTH",
"88 313 OFFCURVE",
"15 256 OFFCURVE",
"15 148 CURVE SMOOTH",
"15 38 OFFCURVE",
"101 -15 OFFCURVE",
"221 -15 CURVE SMOOTH"
);
},
{
closed = 1;
nodes = (
"263 109 OFFCURVE",
"248 126 OFFCURVE",
"248 148 CURVE SMOOTH",
"248 172 OFFCURVE",
"265 188 OFFCURVE",
"293 188 CURVE SMOOTH",
"320 188 OFFCURVE",
"345 180 OFFCURVE",
"364 169 CURVE",
"364 137 LINE",
"350 122 OFFCURVE",
"323 109 OFFCURVE",
"293 109 CURVE SMOOTH"
);
},
{
closed = 1;
nodes = (
"439 517 OFFCURVE",
"519 579 OFFCURVE",
"519 679 CURVE",
"380 679 LINE",
"380 647 OFFCURVE",
"364 626 OFFCURVE",
"329 626 CURVE SMOOTH",
"294 626 OFFCURVE",
"278 647 OFFCURVE",
"278 679 CURVE",
"139 679 LINE",
"139 579 OFFCURVE",
"219 517 OFFCURVE",
"329 517 CURVE SMOOTH"
);
},
{
closed = 1;
nodes = (
"412 696 LINE",
"358 838 LINE",
"172 838 LINE",
"251 696 LINE"
);
}
);
width = 619;
}
);
leftKerningGroup = a;
note = abrevegrave;
rightKerningGroup = a;
unicode = 1EB1;
},
{
glyphname = abrevehookabove;
lastChange = "2015-12-01 01:57:21 +0000";
layers = (
{
layerId = "A000C7A9-5E22-4BBF-9975-052AE6D21EBD";
name = Bold;
paths = (
{
closed = 1;
nodes = (
"287 -15 OFFCURVE",
"348 8 OFFCURVE",
"377 35 CURVE",
"377 0 LINE",
"589 0 LINE",
"589 292 LINE SMOOTH",
"589 421 OFFCURVE",
"484 495 OFFCURVE",
"291 495 CURVE SMOOTH",
"201 495 OFFCURVE",
"127 480 OFFCURVE",
"85 459 CURVE",
"85 316 LINE",
"131 339 OFFCURVE",
"185 352 OFFCURVE",
"244 352 CURVE SMOOTH",
"315 352 OFFCURVE",
"364 331 OFFCURVE",
"364 296 CURVE SMOOTH",
"364 288 LINE",
"332 301 OFFCURVE",
"276 313 OFFCURVE",
"231 313 CURVE SMOOTH",
"88 313 OFFCURVE",
"15 256 OFFCURVE",
"15 148 CURVE SMOOTH",
"15 38 OFFCURVE",
"101 -15 OFFCURVE",
"221 -15 CURVE SMOOTH"
);
},
{
closed = 1;
nodes = (
"263 109 OFFCURVE",
"248 126 OFFCURVE",
"248 148 CURVE SMOOTH",
"248 172 OFFCURVE",
"265 188 OFFCURVE",
"293 188 CURVE SMOOTH",
"320 188 OFFCURVE",
"345 180 OFFCURVE",
"364 169 CURVE",
"364 137 LINE",
"350 122 OFFCURVE",
"323 109 OFFCURVE",
"293 109 CURVE SMOOTH"
);
},
{
closed = 1;
nodes = (
"435 517 OFFCURVE",
"515 579 OFFCURVE",
"515 679 CURVE",
"376 679 LINE",
"376 647 OFFCURVE",
"360 626 OFFCURVE",
"325 626 CURVE SMOOTH",
"290 626 OFFCURVE",
"274 647 OFFCURVE",
"274 679 CURVE",
"135 679 LINE",
"135 579 OFFCURVE",
"215 517 OFFCURVE",
"325 517 CURVE SMOOTH"
);
},
{
closed = 1;
nodes = (
"397 696 LINE",
"397 717 LINE",
"432 729 OFFCURVE",
"455 750 OFFCURVE",
"455 783 CURVE SMOOTH",
"455 829 OFFCURVE",
"416 860 OFFCURVE",
"335 860 CURVE SMOOTH",
"305 860 OFFCURVE",
"260 854 OFFCURVE",
"236 847 CURVE",
"236 778 LINE",
"244 782 OFFCURVE",
"258 784 OFFCURVE",
"268 784 CURVE SMOOTH",
"294 784 OFFCURVE",
"306 776 OFFCURVE",
"306 764 CURVE SMOOTH",
"306 748 OFFCURVE",
"287 743 OFFCURVE",
"260 743 CURVE",
"260 696 LINE"
);
}
);
width = 619;
}
);
leftKerningGroup = a;
note = abrevehookabove;
rightKerningGroup = a;
unicode = 1EB3;
},
{
glyphname = abrevetilde;
lastChange = "2015-12-01 01:57:22 +0000";
layers = (
{
layerId = "A000C7A9-5E22-4BBF-9975-052AE6D21EBD";
name = Bold;
paths = (
{
closed = 1;
nodes = (
"287 -15 OFFCURVE",
"348 8 OFFCURVE",
"377 35 CURVE",
"377 0 LINE",
"589 0 LINE",
"589 292 LINE SMOOTH",
"589 421 OFFCURVE",
"484 495 OFFCURVE",
"291 495 CURVE SMOOTH",
"201 495 OFFCURVE",
"127 480 OFFCURVE",
"85 459 CURVE",
"85 316 LINE",
"131 339 OFFCURVE",
"185 352 OFFCURVE",
"244 352 CURVE SMOOTH",
"315 352 OFFCURVE",
"364 331 OFFCURVE",
"364 296 CURVE SMOOTH",
"364 288 LINE",
"332 301 OFFCURVE",
"276 313 OFFCURVE",
"231 313 CURVE SMOOTH",
"88 313 OFFCURVE",
"15 256 OFFCURVE",
"15 148 CURVE SMOOTH",
"15 38 OFFCURVE",
"101 -15 OFFCURVE",
"221 -15 CURVE SMOOTH"
);
},
{
closed = 1;
nodes = (
"263 109 OFFCURVE",
"248 126 OFFCURVE",
"248 148 CURVE SMOOTH",
"248 172 OFFCURVE",
"265 188 OFFCURVE",
"293 188 CURVE SMOOTH",
"320 188 OFFCURVE",
"345 180 OFFCURVE",
"364 169 CURVE",
"364 137 LINE",
"350 122 OFFCURVE",
"323 109 OFFCURVE",
"293 109 CURVE SMOOTH"
);
},
{
closed = 1;
nodes = (
"432 517 OFFCURVE",
"512 579 OFFCURVE",
"512 679 CURVE",
"373 679 LINE",
"373 647 OFFCURVE",
"357 626 OFFCURVE",
"322 626 CURVE SMOOTH",
"287 626 OFFCURVE",
"271 647 OFFCURVE",
"271 679 CURVE",
"132 679 LINE",
"132 579 OFFCURVE",
"212 517 OFFCURVE",
"322 517 CURVE SMOOTH"
);
},
{
closed = 1;
nodes = (
"441 694 OFFCURVE",
"471 703 OFFCURVE",
"492 726 CURVE",
"492 839 LINE",
"467 812 OFFCURVE",
"437 800 OFFCURVE",
"404 800 CURVE SMOOTH",
"351 800 OFFCURVE",
"294 840 OFFCURVE",
"239 840 CURVE SMOOTH",
"202 840 OFFCURVE",
"172 831 OFFCURVE",
"151 808 CURVE",
"151 695 LINE",
"176 722 OFFCURVE",
"206 734 OFFCURVE",
"239 734 CURVE SMOOTH",
"291 734 OFFCURVE",
"345 694 OFFCURVE",
"404 694 CURVE SMOOTH"
);
}
);
width = 619;
}
);
leftKerningGroup = a;
note = abrevetilde;
rightKerningGroup = a;
unicode = 1EB5;
},
{
glyphname = acaron;
lastChange = "2015-12-01 02:01:42 +0000";
layers = (
{
layerId = "A000C7A9-5E22-4BBF-9975-052AE6D21EBD";
name = Bold;
paths = (
{
closed = 1;
nodes = (
"287 -15 OFFCURVE",
"348 8 OFFCURVE",
"377 35 CURVE",
"377 0 LINE",
"589 0 LINE",
"589 292 LINE SMOOTH",
"589 421 OFFCURVE",
"484 495 OFFCURVE",
"291 495 CURVE SMOOTH",
"201 495 OFFCURVE",
"127 480 OFFCURVE",
"85 459 CURVE",
"85 316 LINE",
"131 339 OFFCURVE",
"185 352 OFFCURVE",
"244 352 CURVE SMOOTH",
"315 352 OFFCURVE",
"364 331 OFFCURVE",
"364 296 CURVE SMOOTH",
"364 288 LINE",
"332 301 OFFCURVE",
"276 313 OFFCURVE",
"231 313 CURVE SMOOTH",
"88 313 OFFCURVE",
"15 256 OFFCURVE",
"15 148 CURVE SMOOTH",
"15 38 OFFCURVE",
"101 -15 OFFCURVE",
"221 -15 CURVE SMOOTH"
);
},
{
closed = 1;
nodes = (
"263 109 OFFCURVE",
"248 126 OFFCURVE",
"248 148 CURVE SMOOTH",
"248 172 OFFCURVE",
"265 188 OFFCURVE",
"293 188 CURVE SMOOTH",
"320 188 OFFCURVE",
"345 180 OFFCURVE",
"364 169 CURVE",
"364 137 LINE",
"350 122 OFFCURVE",
"323 109 OFFCURVE",
"293 109 CURVE SMOOTH"
);
},
{
closed = 1;
nodes = (
"438 517 LINE",
"603 708 LINE",
"396 708 LINE",
"337 628 LINE",
"278 708 LINE",
"71 708 LINE",
"236 517 LINE"
);
}
);
width = 619;
}
);
leftKerningGroup = a;
note = acaron;
rightKerningGroup = a;
unicode = 01CE;
},
{
glyphname = acircumflex;
lastChange = "2015-12-01 01:57:21 +0000";
layers = (
{
layerId = "A000C7A9-5E22-4BBF-9975-052AE6D21EBD";
name = Bold;
paths = (
{
closed = 1;
nodes = (
"287 -15 OFFCURVE",
"348 8 OFFCURVE",
"377 35 CURVE",
"377 0 LINE",
"589 0 LINE",
"589 292 LINE SMOOTH",
"589 421 OFFCURVE",
"484 495 OFFCURVE",
"291 495 CURVE SMOOTH",
"201 495 OFFCURVE",
"127 480 OFFCURVE",
"85 459 CURVE",
"85 316 LINE",
"131 339 OFFCURVE",
"185 352 OFFCURVE",
"244 352 CURVE SMOOTH",
"315 352 OFFCURVE",
"364 331 OFFCURVE",
"364 296 CURVE SMOOTH",
"364 288 LINE",
"332 301 OFFCURVE",
"276 313 OFFCURVE",
"231 313 CURVE SMOOTH",
"88 313 OFFCURVE",
"15 256 OFFCURVE",
"15 148 CURVE SMOOTH",
"15 38 OFFCURVE",
"101 -15 OFFCURVE",
"221 -15 CURVE SMOOTH"
);
},
{
closed = 1;
nodes = (
"263 109 OFFCURVE",
"248 126 OFFCURVE",
"248 148 CURVE SMOOTH",
"248 172 OFFCURVE",
"265 188 OFFCURVE",
"293 188 CURVE SMOOTH",
"320 188 OFFCURVE",
"345 180 OFFCURVE",
"364 169 CURVE",
"364 137 LINE",
"350 122 OFFCURVE",
"323 109 OFFCURVE",
"293 109 CURVE SMOOTH"
);
},
{
closed = 1;
nodes = (
"264 517 LINE",
"323 597 LINE",
"382 517 LINE",
"589 517 LINE",
"424 708 LINE",
"222 708 LINE",
"57 517 LINE"
);
}
);
width = 619;
}
);
leftKerningGroup = a;
note = acircumflex;
rightKerningGroup = a;
unicode = 00E2;
},
{
glyphname = acircumflexacute;
lastChange = "2015-12-01 01:57:21 +0000";
layers = (
{
layerId = "A000C7A9-5E22-4BBF-9975-052AE6D21EBD";
name = Bold;
paths = (
{
closed = 1;
nodes = (
"287 -15 OFFCURVE",
"348 8 OFFCURVE",
"377 35 CURVE",
"377 0 LINE",
"589 0 LINE",
"589 292 LINE SMOOTH",
"589 421 OFFCURVE",
"484 495 OFFCURVE",
"291 495 CURVE SMOOTH",
"201 495 OFFCURVE",
"127 480 OFFCURVE",
"85 459 CURVE",
"85 316 LINE",
"131 339 OFFCURVE",
"185 352 OFFCURVE",
"244 352 CURVE SMOOTH",
"315 352 OFFCURVE",
"364 331 OFFCURVE",
"364 296 CURVE SMOOTH",
"364 288 LINE",
"332 301 OFFCURVE",
"276 313 OFFCURVE",
"231 313 CURVE SMOOTH",
"88 313 OFFCURVE",
"15 256 OFFCURVE",
"15 148 CURVE SMOOTH",
"15 38 OFFCURVE",
"101 -15 OFFCURVE",
"221 -15 CURVE SMOOTH"
);
},
{
closed = 1;
nodes = (
"263 109 OFFCURVE",
"248 126 OFFCURVE",
"248 148 CURVE SMOOTH",
"248 172 OFFCURVE",
"265 188 OFFCURVE",
"293 188 CURVE SMOOTH",
"320 188 OFFCURVE",
"345 180 OFFCURVE",
"364 169 CURVE",
"364 137 LINE",
"350 122 OFFCURVE",
"323 109 OFFCURVE",
"293 109 CURVE SMOOTH"
);
},
{
closed = 1;
nodes = (
"271 517 LINE",
"315 567 LINE",
"359 517 LINE",
"551 517 LINE",
"386 678 LINE",
"244 678 LINE",
"79 517 LINE"
);
},
{
closed = 1;
nodes = (
"636 650 LINE",
"720 799 LINE",
"513 799 LINE",
"456 650 LINE"
);
}
);
width = 619;
}
);
leftKerningGroup = a;
note = acircumflexacute;
rightKerningGroup = a;
unicode = 1EA5;
},
{
glyphname = acircumflexdotbelow;
lastChange = "2015-12-01 02:01:48 +0000";
layers = (
{
layerId = "A000C7A9-5E22-4BBF-9975-052AE6D21EBD";
name = Bold;
paths = (
{
closed = 1;
nodes = (
"287 -15 OFFCURVE",
"348 8 OFFCURVE",
"377 35 CURVE",
"377 0 LINE",
"589 0 LINE",
"589 292 LINE SMOOTH",
"589 421 OFFCURVE",
"484 495 OFFCURVE",
"291 495 CURVE SMOOTH",
"201 495 OFFCURVE",
"127 480 OFFCURVE",
"85 459 CURVE",
"85 316 LINE",
"131 339 OFFCURVE",
"185 352 OFFCURVE",
"244 352 CURVE SMOOTH",
"315 352 OFFCURVE",
"364 331 OFFCURVE",
"364 296 CURVE SMOOTH",
"364 288 LINE",
"332 301 OFFCURVE",
"276 313 OFFCURVE",
"231 313 CURVE SMOOTH",
"88 313 OFFCURVE",
"15 256 OFFCURVE",
"15 148 CURVE SMOOTH",
"15 38 OFFCURVE",
"101 -15 OFFCURVE",
"221 -15 CURVE SMOOTH"
);
},
{
closed = 1;
nodes = (
"263 109 OFFCURVE",
"248 126 OFFCURVE",
"248 148 CURVE SMOOTH",
"248 172 OFFCURVE",
"265 188 OFFCURVE",
"293 188 CURVE SMOOTH",
"320 188 OFFCURVE",
"345 180 OFFCURVE",
"364 169 CURVE",
"364 137 LINE",
"350 122 OFFCURVE",
"323 109 OFFCURVE",
"293 109 CURVE SMOOTH"
);
},
{
closed = 1;
nodes = (
"254 517 LINE",
"313 597 LINE",
"372 517 LINE",
"579 517 LINE",
"414 708 LINE",
"212 708 LINE",
"47 517 LINE"
);
},
{
closed = 1;
nodes = (
"373 -220 OFFCURVE",
"412 -182 OFFCURVE",
"412 -133 CURVE SMOOTH",
"412 -84 OFFCURVE",
"373 -45 OFFCURVE",
"325 -45 CURVE SMOOTH",
"278 -45 OFFCURVE",
"237 -84 OFFCURVE",
"237 -133 CURVE SMOOTH",
"237 -182 OFFCURVE",
"278 -220 OFFCURVE",
"325 -220 CURVE SMOOTH"
);
}
);
width = 619;
}
);
leftKerningGroup = a;
note = acircumflexdotbelow;
rightKerningGroup = a;
unicode = 1EAD;
},
{
glyphname = acircumflexgrave;
lastChange = "2015-12-01 01:57:22 +0000";
layers = (
{
layerId = "A000C7A9-5E22-4BBF-9975-052AE6D21EBD";
name = Bold;
paths = (
{
closed = 1;
nodes = (
"287 -15 OFFCURVE",
"348 8 OFFCURVE",
"377 35 CURVE",
"377 0 LINE",
"589 0 LINE",
"589 292 LINE SMOOTH",
"589 421 OFFCURVE",
"484 495 OFFCURVE",
"291 495 CURVE SMOOTH",
"201 495 OFFCURVE",
"127 480 OFFCURVE",
"85 459 CURVE",
"85 316 LINE",
"131 339 OFFCURVE",
"185 352 OFFCURVE",
"244 352 CURVE SMOOTH",
"315 352 OFFCURVE",
"364 331 OFFCURVE",
"364 296 CURVE SMOOTH",
"364 288 LINE",
"332 301 OFFCURVE",
"276 313 OFFCURVE",
"231 313 CURVE SMOOTH",
"88 313 OFFCURVE",
"15 256 OFFCURVE",
"15 148 CURVE SMOOTH",
"15 38 OFFCURVE",
"101 -15 OFFCURVE",
"221 -15 CURVE SMOOTH"
);
},
{
closed = 1;
nodes = (
"263 109 OFFCURVE",
"248 126 OFFCURVE",
"248 148 CURVE SMOOTH",
"248 172 OFFCURVE",
"265 188 OFFCURVE",
"293 188 CURVE SMOOTH",
"320 188 OFFCURVE",
"345 180 OFFCURVE",
"364 169 CURVE",
"364 137 LINE",
"350 122 OFFCURVE",
"323 109 OFFCURVE",
"293 109 CURVE SMOOTH"
);
},
{
closed = 1;
nodes = (
"179 650 LINE",
"122 799 LINE",
"-85 799 LINE",
"-1 650 LINE"
);
},
{
closed = 1;
nodes = (
"276 517 LINE",
"320 567 LINE",
"364 517 LINE",
"556 517 LINE",
"391 678 LINE",
"249 678 LINE",
"84 517 LINE"
);
}
);
width = 619;
}
);
leftKerningGroup = a;
note = acircumflexgrave;
rightKerningGroup = a;
unicode = 1EA7;
},
{
glyphname = acircumflexhookabove;
lastChange = "2015-12-01 01:57:22 +0000";
layers = (
{
layerId = "A000C7A9-5E22-4BBF-9975-052AE6D21EBD";
name = Bold;
paths = (
{
closed = 1;
nodes = (
"287 -15 OFFCURVE",
"348 8 OFFCURVE",
"377 35 CURVE",
"377 0 LINE",
"589 0 LINE",
"589 292 LINE SMOOTH",
"589 421 OFFCURVE",
"484 495 OFFCURVE",
"291 495 CURVE SMOOTH",
"201 495 OFFCURVE",
"127 480 OFFCURVE",
"85 459 CURVE",
"85 316 LINE",
"131 339 OFFCURVE",
"185 352 OFFCURVE",
"244 352 CURVE SMOOTH",
"315 352 OFFCURVE",
"364 331 OFFCURVE",
"364 296 CURVE SMOOTH",
"364 288 LINE",
"332 301 OFFCURVE",
"276 313 OFFCURVE",
"231 313 CURVE SMOOTH",
"88 313 OFFCURVE",
"15 256 OFFCURVE",
"15 148 CURVE SMOOTH",
"15 38 OFFCURVE",
"101 -15 OFFCURVE",
"221 -15 CURVE SMOOTH"
);
},
{
closed = 1;
nodes = (
"263 109 OFFCURVE",
"248 126 OFFCURVE",
"248 148 CURVE SMOOTH",
"248 172 OFFCURVE",
"265 188 OFFCURVE",
"293 188 CURVE SMOOTH",
"320 188 OFFCURVE",
"345 180 OFFCURVE",
"364 169 CURVE",
"364 137 LINE",
"350 122 OFFCURVE",
"323 109 OFFCURVE",
"293 109 CURVE SMOOTH"
);
},
{
closed = 1;
nodes = (
"267 517 LINE",
"311 567 LINE",
"355 517 LINE",
"547 517 LINE",
"382 678 LINE",
"240 678 LINE",
"75 517 LINE"
);
},
{
closed = 1;
nodes = (
"576 638 LINE",
"576 664 LINE",
"611 676 OFFCURVE",
"634 697 OFFCURVE",
"634 730 CURVE SMOOTH",
"634 776 OFFCURVE",
"595 807 OFFCURVE",
"514 807 CURVE SMOOTH",
"484 807 OFFCURVE",
"439 801 OFFCURVE",
"415 794 CURVE",
"415 725 LINE",
"423 729 OFFCURVE",
"437 731 OFFCURVE",
"447 731 CURVE SMOOTH",
"473 731 OFFCURVE",
"485 723 OFFCURVE",
"485 711 CURVE SMOOTH",
"485 695 OFFCURVE",
"466 690 OFFCURVE",
"439 690 CURVE",
"439 638 LINE"
);
}
);
width = 619;
}
);
leftKerningGroup = a;
note = acircumflexhookabove;
rightKerningGroup = a;
unicode = 1EA9;
},
{
glyphname = acircumflextilde;
lastChange = "2015-12-01 01:57:21 +0000";
layers = (
{
layerId = "A000C7A9-5E22-4BBF-9975-052AE6D21EBD";
name = Bold;
paths = (
{
closed = 1;
nodes = (
"287 -15 OFFCURVE",
"348 8 OFFCURVE",
"377 35 CURVE",
"377 0 LINE",
"589 0 LINE",
"589 292 LINE SMOOTH",
"589 421 OFFCURVE",
"484 495 OFFCURVE",
"291 495 CURVE SMOOTH",
"201 495 OFFCURVE",
"127 480 OFFCURVE",
"85 459 CURVE",
"85 316 LINE",
"131 339 OFFCURVE",
"185 352 OFFCURVE",
"244 352 CURVE SMOOTH",
"315 352 OFFCURVE",
"364 331 OFFCURVE",
"364 296 CURVE SMOOTH",
"364 288 LINE",
"332 301 OFFCURVE",
"276 313 OFFCURVE",
"231 313 CURVE SMOOTH",
"88 313 OFFCURVE",
"15 256 OFFCURVE",
"15 148 CURVE SMOOTH",
"15 38 OFFCURVE",
"101 -15 OFFCURVE",
"221 -15 CURVE SMOOTH"
);
},
{
closed = 1;
nodes = (
"263 109 OFFCURVE",
"248 126 OFFCURVE",
"248 148 CURVE SMOOTH",
"248 172 OFFCURVE",
"265 188 OFFCURVE",
"293 188 CURVE SMOOTH",
"320 188 OFFCURVE",
"345 180 OFFCURVE",
"364 169 CURVE",
"364 137 LINE",
"350 122 OFFCURVE",
"323 109 OFFCURVE",
"293 109 CURVE SMOOTH"
);
},
{
closed = 1;
nodes = (
"272 517 LINE",
"316 567 LINE",
"360 517 LINE",
"552 517 LINE",
"387 678 LINE",
"245 678 LINE",
"80 517 LINE"
);
},
{
closed = 1;
nodes = (
"447 689 OFFCURVE",
"477 698 OFFCURVE",
"498 721 CURVE",
"498 834 LINE",
"473 807 OFFCURVE",
"443 795 OFFCURVE",
"410 795 CURVE SMOOTH",
"357 795 OFFCURVE",
"300 835 OFFCURVE",
"245 835 CURVE SMOOTH",
"208 835 OFFCURVE",
"178 826 OFFCURVE",
"157 803 CURVE",
"157 690 LINE",
"182 717 OFFCURVE",
"212 729 OFFCURVE",
"245 729 CURVE SMOOTH",
"297 729 OFFCURVE",
"351 689 OFFCURVE",
"410 689 CURVE SMOOTH"
);
}
);
width = 619;
}
);
leftKerningGroup = a;
note = acircumflextilde;
rightKerningGroup = a;
unicode = 1EAB;
},
{
glyphname = adieresis;
lastChange = "2015-12-01 01:57:21 +0000";
layers = (
{
layerId = "A000C7A9-5E22-4BBF-9975-052AE6D21EBD";
name = Bold;
paths = (
{
closed = 1;
nodes = (
"287 -15 OFFCURVE",
"348 8 OFFCURVE",
"377 35 CURVE",
"377 0 LINE",
"589 0 LINE",
"589 292 LINE SMOOTH",
"589 421 OFFCURVE",
"484 495 OFFCURVE",
"291 495 CURVE SMOOTH",
"201 495 OFFCURVE",
"127 480 OFFCURVE",
"85 459 CURVE",
"85 316 LINE",
"131 339 OFFCURVE",
"185 352 OFFCURVE",
"244 352 CURVE SMOOTH",
"315 352 OFFCURVE",
"364 331 OFFCURVE",
"364 296 CURVE SMOOTH",
"364 288 LINE",
"332 301 OFFCURVE",
"276 313 OFFCURVE",
"231 313 CURVE SMOOTH",
"88 313 OFFCURVE",
"15 256 OFFCURVE",
"15 148 CURVE SMOOTH",
"15 38 OFFCURVE",
"101 -15 OFFCURVE",
"221 -15 CURVE SMOOTH"
);
},
{
closed = 1;
nodes = (
"263 109 OFFCURVE",
"248 126 OFFCURVE",
"248 148 CURVE SMOOTH",
"248 172 OFFCURVE",
"265 188 OFFCURVE",
"293 188 CURVE SMOOTH",
"320 188 OFFCURVE",
"345 180 OFFCURVE",
"364 169 CURVE",
"364 137 LINE",
"350 122 OFFCURVE",
"323 109 OFFCURVE",
"293 109 CURVE SMOOTH"
);
},
{
closed = 1;
nodes = (
"254 517 OFFCURVE",
"293 555 OFFCURVE",
"293 604 CURVE SMOOTH",
"293 653 OFFCURVE",
"254 692 OFFCURVE",
"206 692 CURVE SMOOTH",
"159 692 OFFCURVE",
"118 653 OFFCURVE",
"118 604 CURVE SMOOTH",
"118 555 OFFCURVE",
"159 517 OFFCURVE",
"206 517 CURVE SMOOTH"
);
},
{
closed = 1;
nodes = (
"488 517 OFFCURVE",
"527 555 OFFCURVE",
"527 604 CURVE SMOOTH",
"527 653 OFFCURVE",
"488 692 OFFCURVE",
"441 692 CURVE SMOOTH",
"393 692 OFFCURVE",
"353 653 OFFCURVE",
"353 604 CURVE SMOOTH",
"353 555 OFFCURVE",
"393 517 OFFCURVE",
"441 517 CURVE SMOOTH"
);
}
);
width = 619;
}
);
leftKerningGroup = a;
note = adieresis;
rightKerningGroup = a;
unicode = 00E4;
},
{
glyphname = adotbelow;
lastChange = "2015-12-01 02:01:53 +0000";
layers = (
{
layerId = "A000C7A9-5E22-4BBF-9975-052AE6D21EBD";
name = Bold;
paths = (
{
closed = 1;
nodes = (
"287 -15 OFFCURVE",
"348 8 OFFCURVE",
"377 35 CURVE",
"377 0 LINE",
"589 0 LINE",
"589 292 LINE SMOOTH",
"589 421 OFFCURVE",
"484 495 OFFCURVE",
"291 495 CURVE SMOOTH",
"201 495 OFFCURVE",
"127 480 OFFCURVE",
"85 459 CURVE",
"85 316 LINE",
"131 339 OFFCURVE",
"185 352 OFFCURVE",
"244 352 CURVE SMOOTH",
"315 352 OFFCURVE",
"364 331 OFFCURVE",
"364 296 CURVE SMOOTH",
"364 288 LINE",
"332 301 OFFCURVE",
"276 313 OFFCURVE",
"231 313 CURVE SMOOTH",
"88 313 OFFCURVE",
"15 256 OFFCURVE",
"15 148 CURVE SMOOTH",
"15 38 OFFCURVE",
"101 -15 OFFCURVE",
"221 -15 CURVE SMOOTH"
);
},
{
closed = 1;
nodes = (
"263 109 OFFCURVE",
"248 126 OFFCURVE",
"248 148 CURVE SMOOTH",
"248 172 OFFCURVE",
"265 188 OFFCURVE",
"293 188 CURVE SMOOTH",
"320 188 OFFCURVE",
"345 180 OFFCURVE",
"364 169 CURVE",
"364 137 LINE",
"350 122 OFFCURVE",
"323 109 OFFCURVE",
"293 109 CURVE SMOOTH"
);
},
{
closed = 1;
nodes = (
"373 -220 OFFCURVE",
"412 -182 OFFCURVE",
"412 -133 CURVE SMOOTH",
"412 -84 OFFCURVE",
"373 -45 OFFCURVE",
"325 -45 CURVE SMOOTH",
"278 -45 OFFCURVE",
"237 -84 OFFCURVE",
"237 -133 CURVE SMOOTH",
"237 -182 OFFCURVE",
"278 -220 OFFCURVE",
"325 -220 CURVE SMOOTH"
);
}
);
width = 619;
}
);
leftKerningGroup = a;
note = adotbelow;
rightKerningGroup = a;
unicode = 1EA1;
},
{
glyphname = agrave;
lastChange = "2015-12-01 01:57:21 +0000";
layers = (
{
layerId = "A000C7A9-5E22-4BBF-9975-052AE6D21EBD";
name = Bold;
paths = (
{
closed = 1;
nodes = (
"287 -15 OFFCURVE",
"348 8 OFFCURVE",
"377 35 CURVE",
"377 0 LINE",
"589 0 LINE",
"589 292 LINE SMOOTH",
"589 421 OFFCURVE",
"484 495 OFFCURVE",
"291 495 CURVE SMOOTH",
"201 495 OFFCURVE",
"127 480 OFFCURVE",
"85 459 CURVE",
"85 316 LINE",
"131 339 OFFCURVE",
"185 352 OFFCURVE",
"244 352 CURVE SMOOTH",
"315 352 OFFCURVE",
"364 331 OFFCURVE",
"364 296 CURVE SMOOTH",
"364 288 LINE",
"332 301 OFFCURVE",
"276 313 OFFCURVE",
"231 313 CURVE SMOOTH",
"88 313 OFFCURVE",
"15 256 OFFCURVE",
"15 148 CURVE SMOOTH",
"15 38 OFFCURVE",
"101 -15 OFFCURVE",
"221 -15 CURVE SMOOTH"
);
},
{
closed = 1;
nodes = (
"263 109 OFFCURVE",
"248 126 OFFCURVE",
"248 148 CURVE SMOOTH",
"248 172 OFFCURVE",
"265 188 OFFCURVE",
"293 188 CURVE SMOOTH",
"320 188 OFFCURVE",
"345 180 OFFCURVE",
"364 169 CURVE",
"364 137 LINE",
"350 122 OFFCURVE",
"323 109 OFFCURVE",
"293 109 CURVE SMOOTH"
);
},
{
closed = 1;
nodes = (
"455 517 LINE",
"387 698 LINE",
"170 698 LINE",
"265 517 LINE"
);
}
);
width = 619;
}
);
leftKerningGroup = a;
note = agrave;
rightKerningGroup = a;
unicode = 00E0;
},
{
glyphname = ahookabove;
lastChange = "2015-12-01 01:57:21 +0000";
layers = (
{
layerId = "A000C7A9-5E22-4BBF-9975-052AE6D21EBD";
name = Bold;
paths = (
{
closed = 1;
nodes = (
"287 -15 OFFCURVE",
"348 8 OFFCURVE",
"377 35 CURVE",
"377 0 LINE",
"589 0 LINE",
"589 292 LINE SMOOTH",
"589 421 OFFCURVE",
"484 495 OFFCURVE",
"291 495 CURVE SMOOTH",
"201 495 OFFCURVE",
"127 480 OFFCURVE",
"85 459 CURVE",
"85 316 LINE",
"131 339 OFFCURVE",
"185 352 OFFCURVE",
"244 352 CURVE SMOOTH",
"315 352 OFFCURVE",
"364 331 OFFCURVE",
"364 296 CURVE SMOOTH",
"364 288 LINE",
"332 301 OFFCURVE",
"276 313 OFFCURVE",
"231 313 CURVE SMOOTH",
"88 313 OFFCURVE",
"15 256 OFFCURVE",
"15 148 CURVE SMOOTH",
"15 38 OFFCURVE",
"101 -15 OFFCURVE",
"221 -15 CURVE SMOOTH"
);
},
{
closed = 1;
nodes = (
"263 109 OFFCURVE",
"248 126 OFFCURVE",
"248 148 CURVE SMOOTH",
"248 172 OFFCURVE",
"265 188 OFFCURVE",
"293 188 CURVE SMOOTH",
"320 188 OFFCURVE",
"345 180 OFFCURVE",
"364 169 CURVE",
"364 137 LINE",
"350 122 OFFCURVE",
"323 109 OFFCURVE",
"293 109 CURVE SMOOTH"
);
},
{
closed = 1;
nodes = (
"413 517 LINE",
"413 557 LINE",
"466 573 OFFCURVE",
"504 600 OFFCURVE",
"504 652 CURVE SMOOTH",
"504 715 OFFCURVE",
"446 756 OFFCURVE",
"327 756 CURVE SMOOTH",
"283 756 OFFCURVE",
"220 747 OFFCURVE",
"186 737 CURVE",
"186 652 LINE",
"199 656 OFFCURVE",
"223 661 OFFCURVE",
"243 661 CURVE SMOOTH",
"284 661 OFFCURVE",
"302 651 OFFCURVE",
"302 629 CURVE SMOOTH",
"302 602 OFFCURVE",
"282 591 OFFCURVE",
"226 591 CURVE",
"226 517 LINE"
);
}
);
width = 619;
}
);
leftKerningGroup = a;
note = ahookabove;
rightKerningGroup = a;
unicode = 1EA3;
},
